<?xml version="1.0" standalone="no"?>
<!DOCTYPE svg PUBLIC "-//W3C//DTD SVG 20010904//EN"
 "http://www.w3.org/TR/2001/REC-SVG-20010904/DTD/svg10.dtd">
<svg version="1.0" xmlns="http://www.w3.org/2000/svg"
 width="200px" viewBox="0 0 1280.000000 1266.000000"
 preserveAspectRatio="xMidYMid meet">
<g transform="translate(0.000000,1266.000000) scale(0.100000,-0.100000)"
 stroke="none">
<path d="M1736 12607 c-30 -51 -92 -181 -197 -415 l-77 -174 -17 34 c-27 52
-75 97 -112 104 -25 5 -47 -1 -89 -21 -89 -43 -170 -168 -224 -341 -11 -36
-20 -70 -20 -74 0 -14 162 -33 248 -29 70 4 81 2 76 -11 -53 -132 -165 -440
-233 -645 -82 -245 -90 -262 -129 -301 -35 -34 -42 -48 -42 -80 0 -20 5 -51
11 -68 9 -26 6 -51 -24 -161 -71 -266 -135 -561 -189 -875 -12 -73 -13 -69
-21 199 -7 255 -6 275 10 293 26 29 24 108 -4 146 -23 31 -25 43 -43 287 -27
349 -73 621 -131 768 -43 110 -108 160 -172 134 -76 -32 -161 -172 -235 -389
-40 -116 -78 -265 -69 -274 2 -3 23 50 46 118 109 316 219 508 291 508 65 0
125 -155 169 -430 22 -135 51 -407 51 -475 l0 -43 -31 29 c-51 48 -137 51
-222 8 -98 -51 -243 -233 -297 -374 -9 -23 -6 -25 86 -55 203 -68 358 -76 475
-26 15 7 17 -15 23 -216 4 -123 8 -435 10 -694 l3 -471 -33 37 c-81 89 -197
118 -297 72 -161 -72 -304 -375 -319 -677 l-3 -60 65 -3 c91 -5 291 15 389 38
93 23 164 51 234 93 26 16 49 28 50 26 2 -2 15 -44 31 -94 132 -420 359 -818
871 -1525 255 -353 366 -511 447 -635 294 -456 450 -821 493 -1160 l6 -50 -46
85 c-306 560 -913 1147 -1335 1291 -83 29 -108 33 -200 33 -93 1 -111 -2 -162
-26 -71 -33 -148 -104 -193 -178 -66 -109 -117 -305 -131 -508 -7 -90 -8 -93
-38 -111 -52 -33 -80 -79 -84 -142 -5 -68 11 -103 79 -176 43 -45 49 -57 49
-95 0 -103 62 -561 109 -805 l18 -92 -35 31 c-134 117 -298 56 -401 -148 -57
-112 -97 -263 -108 -404 l-6 -76 44 -2 c77 -4 279 18 362 39 80 20 157 54 210
91 16 11 29 19 31 17 2 -2 11 -38 20 -79 25 -106 103 -382 122 -425 27 -66 26
-30 -5 101 -98 419 -102 444 -83 473 27 39 42 79 42 108 0 44 -38 109 -80 138
-22 15 -42 35 -44 44 -35 111 -159 981 -143 997 2 3 29 -7 59 -21 119 -54 295
-85 489 -85 l116 0 -4 57 c-17 239 -100 474 -208 592 -133 143 -282 148 -409
12 -26 -29 -49 -51 -51 -49 -7 9 19 186 40 273 81 325 256 454 525 386 217
-55 470 -223 754 -500 305 -299 565 -647 668 -896 l33 -80 -1 -200 c-1 -252
-28 -492 -85 -770 -33 -161 -44 -196 -84 -268 -31 -57 -38 -81 -45 -160 -19
-203 -238 -706 -493 -1132 -252 -422 -533 -782 -893 -1143 -117 -117 -189
-193 -161 -170 95 79 381 372 511 523 479 557 819 1138 1051 1794 4 8 20 -4
49 -35 214 -237 675 -239 1255 -5 68 27 126 52 129 55 9 10 -100 216 -171 322
-241 362 -500 554 -746 554 -128 0 -218 -46 -292 -149 -22 -30 -39 -52 -39
-49 0 3 9 66 20 140 33 227 44 365 44 593 0 186 -3 240 -23 350 -70 398 -204
763 -565 1540 l-92 200 75 8 c106 10 267 51 391 99 58 23 107 42 109 44 8 7
-56 127 -116 219 -136 204 -302 333 -443 343 -108 7 -173 -25 -231 -116 l-27
-43 -31 87 c-71 196 -111 360 -126 514 -6 62 -5 67 20 88 54 47 64 110 28 173
-14 23 -13 29 7 70 13 24 50 72 84 107 77 80 205 146 377 193 65 18 119 36
119 39 0 10 -127 -9 -208 -30 -194 -53 -320 -135 -399 -262 l-30 -47 -17 39
c-9 21 -33 52 -52 69 -108 96 -265 -34 -355 -293 -38 -108 -38 -113 14 -127
60 -17 263 -17 310 -1 21 8 40 12 43 9 2 -2 9 -44 15 -93 15 -122 68 -326 125
-475 55 -145 60 -206 19 -249 -54 -57 -71 -158 -36 -216 36 -59 127 -113 227
-134 l49 -11 130 -277 c116 -250 291 -646 308 -697 9 -27 -2 -11 -65 100 -115
203 -249 402 -617 915 -496 691 -724 1096 -847 1508 -25 83 -26 96 -14 115 52
81 65 159 36 216 -15 28 -65 75 -102 97 -17 10 -19 28 -23 233 -6 380 35 753
135 1221 32 147 131 551 138 557 1 1 31 -13 67 -31 94 -50 182 -66 354 -66
l147 0 -7 53 c-29 211 -137 413 -250 466 -56 26 -100 27 -150 1 -22 -11 -40
-20 -42 -20 -6 0 183 537 256 726 26 67 37 84 61 94 16 7 48 32 70 56 47 51
53 98 20 152 l-20 33 126 302 c129 307 156 377 149 377 -2 0 -15 -19 -29 -43z"/>
<path d="M6045 2663 c-398 -34 -644 -152 -741 -358 -43 -91 -29 -176 43 -255
28 -32 33 -41 18 -37 -11 4 -81 17 -155 31 -649 118 -1291 93 -1955 -76 -740
-188 -1513 -585 -2160 -1109 -66 -53 -129 -107 -140 -119 -11 -13 35 22 102
77 699 571 1584 1000 2408 1167 326 66 570 90 925 90 393 0 616 -25 929 -105
85 -21 155 -40 157 -42 1 -1 22 -29 47 -63 115 -157 259 -210 398 -148 l58 26
173 -78 c95 -43 381 -183 635 -311 712 -359 992 -483 1378 -611 116 -38 262
-82 325 -97 63 -15 119 -31 123 -35 4 -4 -13 -18 -39 -31 -95 -49 -137 -156
-99 -255 23 -61 123 -160 202 -202 140 -73 269 -101 511 -110 l174 -7 -7 84
c-8 101 -46 283 -74 365 -12 33 -21 60 -21 62 0 1 105 0 233 -3 324 -8 721 17
1065 68 74 10 137 19 142 19 4 0 10 -22 14 -48 15 -118 122 -249 295 -363 57
-38 110 -69 117 -69 16 0 77 146 103 250 24 96 28 234 7 291 l-13 36 266 66
c407 102 777 218 1063 333 289 116 323 147 62 55 -443 -155 -799 -260 -1231
-362 l-182 -43 -46 23 c-62 31 -141 26 -215 -12 -28 -15 -67 -27 -87 -27 -39
0 -65 -12 -108 -49 -28 -24 -49 -29 -195 -49 -447 -61 -847 -83 -1190 -66
l-125 7 -35 60 c-105 182 -265 254 -398 182 -50 -27 -126 -98 -149 -139 -10
-19 -15 -18 -159 18 -475 122 -832 270 -1726 717 -240 120 -504 249 -585 285
-173 77 -165 73 -158 84 7 12 275 -82 825 -288 410 -153 448 -169 478 -203 61
-71 167 -106 238 -79 21 8 50 3 153 -29 440 -138 741 -197 1096 -216 301 -16
617 48 897 182 l117 56 48 -50 c84 -86 191 -122 385 -130 l128 -6 -6 49 c-19
167 -67 317 -122 383 l-28 34 136 136 c150 150 236 254 341 410 69 102 144
239 136 247 -2 3 -37 -44 -77 -103 -127 -189 -230 -313 -402 -486 -149 -151
-169 -168 -190 -160 -12 4 -48 8 -78 8 -67 0 -105 -24 -155 -97 -18 -28 -47
-59 -64 -69 -28 -17 -49 -49 -65 -102 -14 -43 -353 -176 -551 -216 -329 -66
-713 -39 -1205 84 -132 33 -401 113 -409 121 -3 2 11 21 31 42 91 96 165 304
185 521 l6 74 -134 -6 c-215 -10 -357 -45 -466 -116 -115 -74 -170 -190 -129
-269 16 -31 61 -74 94 -92 13 -6 22 -13 20 -16 -2 -2 -101 33 -219 77 -320
121 -761 282 -871 318 -54 18 -98 34 -98 37 0 2 16 25 36 51 107 140 202 444
221 702 l6 91 -124 -2 c-68 -1 -142 -3 -164 -5z"/>
<path d="M4555 1836 c-50 -24 -92 -63 -134 -123 l-22 -33 -262 0 c-144 0 -329
-5 -412 -10 -835 -56 -1664 -306 -2383 -718 -134 -77 -412 -257 -412 -267 0
-2 51 29 114 70 617 402 1405 700 2158 814 327 50 774 79 1004 66 l124 -7 -25
-29 c-68 -82 -48 -180 58 -279 98 -91 308 -150 540 -150 l97 0 0 49 c0 63 -24
200 -49 281 -11 35 -18 66 -16 68 7 7 190 -28 312 -59 271 -69 443 -173 443
-268 0 -75 -65 -138 -215 -211 -156 -76 -270 -111 -630 -195 -341 -79 -340
-97 2 -39 407 69 716 184 835 312 183 195 -50 385 -597 487 -77 14 -149 28
-160 31 -11 2 -40 36 -65 75 -62 97 -151 159 -229 159 -14 0 -48 -11 -76 -24z"/>
<path d="M904 698 l-19 -23 23 19 c21 18 27 26 19 26 -2 0 -12 -10 -23 -22z"/>
</g>
</svg>
