<?xml version="1.0" standalone="no"?>

<svg version="1.0" xmlns="http://www.w3.org/2000/svg"
 width="411.000000pt" height="409.000000pt" viewBox="0 0 411.000000 409.000000"
 preserveAspectRatio="xMidYMid meet">

<g transform="translate(0.000000,409.000000) scale(0.100000,-0.100000)"
fill="#333333" stroke="none">
<path d="M2015 4073 c-235 -21 -518 -73 -579 -105 -12 -6 -30 -12 -42 -14 -52
-5 -174 -46 -229 -75 -92 -49 -310 -200 -405 -280 -95 -80 -115 -101 -203
-209 -34 -41 -80 -96 -103 -122 -86 -97 -199 -280 -241 -389 -53 -136 -103
-293 -103 -322 0 -12 -9 -46 -20 -76 -10 -29 -19 -56 -18 -60 1 -3 -2 -13 -5
-21 -3 -8 -8 -35 -11 -60 -3 -25 -11 -87 -18 -139 -9 -73 -9 -125 0 -240 13
-155 57 -397 90 -496 80 -237 149 -393 205 -467 19 -24 51 -71 71 -104 21 -32
73 -95 115 -139 43 -44 100 -107 127 -140 27 -33 62 -71 79 -85 16 -14 47 -44
69 -67 37 -40 172 -128 311 -203 80 -43 289 -121 400 -149 50 -12 115 -29 145
-36 172 -43 391 -62 528 -45 257 33 493 72 561 95 25 8 53 15 63 15 10 0 51
19 91 43 39 24 97 56 127 72 105 55 126 68 280 178 158 112 225 174 331 307
33 41 66 82 72 90 47 58 132 227 198 394 11 27 28 65 39 86 40 79 98 277 110
376 6 54 16 125 21 157 6 32 12 157 15 278 2 120 5 222 6 226 1 5 -3 26 -10
48 -6 22 -19 74 -28 115 -25 114 -91 307 -132 385 -20 39 -57 111 -83 160 -26
50 -59 113 -73 140 -54 108 -266 327 -421 436 -33 23 -71 52 -85 65 -14 12
-41 31 -60 42 -19 10 -86 49 -148 87 -112 66 -259 135 -317 149 -16 4 -70 22
-120 41 -117 45 -258 65 -427 63 -73 -1 -151 -3 -173 -5z m204 -27 c-2 -2 -60
-6 -129 -10 -78 -3 -118 -2 -105 3 19 9 243 15 234 7z m176 -6 c7 -12 -63 -12
-120 -1 -35 8 -31 9 37 10 42 0 80 -3 83 -9z m-258 -27 c-20 -2 -52 -2 -70 0
-17 2 0 4 38 4 39 0 53 -2 32 -4z m-177 -12 c0 -9 -48 -21 -88 -21 -37 0 -15
18 28 23 19 2 41 5 48 5 6 1 12 -2 12 -7z m540 -28 c41 -13 121 -47 178 -74
56 -27 107 -49 113 -49 24 0 331 -165 370 -199 13 -11 41 -30 199 -137 91 -62
220 -199 280 -299 68 -113 109 -195 110 -218 0 -10 12 -38 26 -63 14 -24 22
-44 17 -44 -4 0 -3 -4 3 -8 28 -19 131 -250 140 -316 3 -23 14 -64 24 -91 10
-28 19 -66 20 -85 5 -84 -2 -83 -34 5 -87 240 -115 257 -111 67 3 -119 -2
-182 -14 -182 -3 0 -20 35 -37 78 -29 70 -30 79 -17 94 24 27 4 89 -88 276
-78 159 -83 166 -187 274 -114 118 -334 300 -406 336 -24 12 -59 22 -77 22
-23 0 -46 10 -69 29 -19 15 -61 43 -92 61 -32 17 -58 34 -58 36 0 7 36 -10
138 -64 57 -30 105 -52 108 -49 6 6 -134 84 -227 125 -180 81 -288 105 -597
133 -359 33 -574 17 -647 -50 -37 -34 -175 -75 -221 -66 -53 11 -283 -76 -373
-141 -41 -29 -77 -52 -79 -49 -10 10 31 57 59 67 18 6 29 17 29 28 0 23 40 55
86 70 19 6 32 15 29 20 -3 4 2 10 10 14 8 3 17 1 20 -4 3 -5 16 -5 30 2 13 6
22 15 19 19 -5 9 94 79 113 79 6 0 13 3 15 8 7 16 296 113 423 142 55 12 109
27 120 33 36 19 187 20 297 2 112 -19 122 -22 186 -70 l42 -33 -157 3 c-127 3
-147 2 -103 -6 30 -6 89 -10 131 -9 61 1 118 -10 295 -55 262 -67 329 -88 414
-130 60 -30 181 -112 205 -139 6 -6 26 -24 44 -41 24 -21 31 -24 23 -10 -24
47 -161 149 -277 207 -44 22 -90 49 -101 60 -12 10 -52 30 -90 43 -70 24 -273
65 -328 65 -22 1 -44 13 -76 41 -50 46 -57 45 85 8 39 -11 160 -42 271 -70
l201 -51 88 -69 c49 -38 125 -104 169 -147 120 -114 177 -162 187 -156 11 6
-15 34 -31 34 -6 0 -9 4 -6 9 6 8 -21 36 -33 36 -3 0 -5 4 -4 10 4 15 -64 79
-113 107 -23 13 -81 55 -129 93 -123 99 -182 137 -330 209 -157 77 -246 110
-355 130 -102 20 -120 20 -120 1 0 -11 -9 -13 -42 -9 -24 3 -56 9 -72 15 -101
33 -272 30 -449 -7 -79 -16 -126 -18 -111 -5 5 5 74 18 154 30 242 34 361 41
465 29 39 -4 95 -10 125 -12 74 -6 346 -77 445 -116 82 -32 234 -129 433 -277
63 -46 116 -82 118 -80 6 6 -60 58 -171 137 -49 35 -119 85 -155 111 -36 25
-86 58 -112 74 -27 15 -48 29 -48 31 0 6 33 -8 155 -66 116 -56 214 -120 264
-174 40 -42 10 -29 -54 24 -33 28 -66 50 -73 50 -7 0 31 -34 85 -76 103 -80
125 -102 118 -115 -3 -4 25 -34 62 -66 184 -160 311 -337 395 -548 15 -38 27
-60 28 -48 1 65 -123 286 -245 438 -107 134 -360 397 -418 437 -86 58 -273
146 -385 180 -53 16 -140 42 -192 58 -52 16 -137 36 -190 45 -163 27 -210 37
-210 46 0 12 44 16 165 17 90 0 123 -5 185 -25z m156 -12 c15 -12 33 -21 40
-21 20 0 288 -129 281 -136 -3 -3 -36 9 -74 26 -156 74 -211 99 -276 127 -37
16 -65 32 -61 35 9 10 62 -9 90 -31z m-988 10 c4 -11 -4 -13 -38 -8 -47 6
-115 -10 -279 -67 -57 -20 -109 -35 -114 -33 -25 8 227 95 338 116 63 12 87
10 93 -8z m142 9 c-8 -5 -37 -9 -65 -9 -37 0 -45 3 -30 9 29 12 114 12 95 0z
m326 -6 c-3 -7 0 -15 7 -18 7 -2 -20 -5 -59 -5 -54 -1 -73 3 -77 13 -5 11 4
16 36 18 88 6 98 6 93 -8z m-146 -23 c0 -4 -55 -12 -122 -20 -107 -11 -356
-49 -441 -67 -21 -4 -26 -10 -22 -23 4 -14 -5 -19 -57 -28 -35 -5 -74 -7 -87
-3 -21 5 -9 12 65 37 211 74 266 87 464 106 124 12 200 11 200 -2z m100 -76
c19 -12 -104 -33 -210 -35 -52 -1 -67 -4 -50 -10 31 -9 32 -9 -145 -56 -127
-34 -221 -65 -330 -109 -37 -14 -39 -14 -20 1 31 25 194 103 231 110 19 3 32
10 29 14 -3 5 -20 4 -38 -1 -40 -11 -57 -11 -57 0 0 5 18 12 40 16 39 7 56 25
23 25 -40 0 4 13 123 35 102 19 156 24 259 22 72 -1 137 -7 145 -12z m318 -31
c52 -14 133 -43 182 -64 120 -53 253 -120 248 -126 -3 -2 -88 18 -190 44 -176
47 -333 110 -363 147 -5 7 -17 15 -25 18 -8 3 1 6 20 6 19 1 77 -11 128 -25z
m-908 12 c0 -2 -7 -7 -16 -10 -8 -3 -12 -2 -9 4 6 10 25 14 25 6z m-350 -19
c0 -13 -76 -67 -170 -120 -25 -15 -69 -53 -98 -87 -29 -33 -59 -60 -67 -60
-17 0 -208 -182 -256 -245 -21 -27 -59 -77 -84 -110 -47 -62 -193 -301 -237
-390 -31 -61 -71 -207 -93 -335 -16 -95 -28 -130 -40 -118 -4 4 1 37 10 75 9
37 23 97 31 133 32 143 80 282 132 385 36 72 147 232 201 290 26 28 66 76 89
107 23 31 48 61 55 65 8 4 16 16 20 25 10 27 224 205 342 284 61 40 121 82
135 93 30 24 30 25 30 8z m1040 -8 l25 -21 -34 6 c-19 4 -59 9 -88 12 -68 9
-58 24 15 24 43 0 63 -6 82 -21z m123 -15 c38 -20 66 -38 63 -41 -8 -9 -110
26 -151 52 l-40 25 30 0 c17 0 61 -16 98 -36z m-938 -37 c-33 -13 -89 -40
-123 -61 -35 -21 -66 -36 -69 -33 -5 6 56 47 70 47 4 0 7 8 7 19 0 27 57 47
140 49 32 1 29 -1 -25 -21z m91 0 c-10 -7 -75 -49 -144 -94 -141 -94 -263
-166 -269 -160 -2 3 22 31 54 63 71 72 191 147 287 179 79 26 101 30 72 12z
m-316 -16 c0 -5 -20 -15 -45 -24 -46 -14 -46 -14 -28 5 29 32 73 43 73 19z
m1910 -7 c0 -2 -9 0 -20 6 -11 6 -20 13 -20 16 0 2 9 0 20 -6 11 -6 20 -13 20
-16z m-1855 -19 c-54 -45 -258 -175 -274 -175 -5 0 -36 -22 -67 -50 -31 -27
-61 -50 -66 -50 -22 0 64 95 107 118 18 10 18 11 2 12 -24 0 -20 9 31 64 45
49 63 60 38 24 -20 -28 -20 -38 -1 -38 8 0 15 4 15 8 0 11 209 107 240 111 3
0 -8 -11 -25 -24z m1992 -31 c81 -55 110 -80 79 -68 -33 13 -14 -6 47 -44 34
-22 76 -54 92 -72 41 -44 12 -28 -99 55 -49 36 -103 73 -119 81 -16 9 -26 18
-23 21 3 3 21 -5 41 -17 20 -12 38 -20 41 -17 3 2 -12 15 -33 28 -49 30 -127
89 -117 89 4 0 45 -25 91 -56z m-592 -53 c90 -19 201 -56 209 -69 4 -7 -300
67 -335 81 -32 13 42 5 126 -12z m-1533 -73 c-33 -35 -69 -74 -80 -88 -26 -32
-38 -21 -18 17 29 53 115 133 143 133 9 0 -9 -26 -45 -62z m1158 36 c107 -9
197 -18 199 -20 12 -12 -21 -12 -189 2 -212 18 -465 13 -575 -11 -81 -17 -93
-18 -80 -6 22 19 115 44 190 51 91 8 180 5 455 -16z m-25 -30 c187 -14 265
-25 344 -50 16 -5 22 -4 18 3 -4 6 -28 16 -54 23 -58 16 -82 33 -33 24 96 -18
302 -108 405 -175 51 -34 64 -47 59 -62 -5 -16 -2 -18 15 -12 25 8 34 0 226
-180 146 -137 324 -289 331 -283 2 3 -44 47 -103 98 -60 51 -146 129 -193 174
-47 44 -114 107 -148 139 -45 40 -58 57 -44 57 57 0 249 -146 433 -329 114
-114 117 -119 191 -266 94 -187 112 -236 103 -272 -6 -25 -10 -21 -56 62 -54
96 -84 135 -106 135 -17 0 -17 -6 6 -98 11 -44 22 -132 26 -207 5 -118 4 -128
-9 -105 -9 14 -15 34 -16 45 0 12 -4 25 -9 30 -12 12 -142 263 -233 449 -48
98 -72 136 -79 129 -8 -8 -7 -18 1 -34 7 -13 -37 24 -97 84 -59 59 -112 107
-116 107 -15 0 -6 -40 14 -59 12 -11 27 -29 33 -40 77 -138 112 -205 147 -288
34 -80 68 -182 69 -202 0 -3 -20 17 -45 44 -24 27 -42 51 -40 53 4 5 -56 94
-78 117 -15 15 2 -14 31 -55 l25 -35 -41 40 c-23 21 -42 44 -42 50 0 6 -21 27
-47 46 -86 63 -99 74 -209 165 -178 149 -299 209 -526 264 -144 35 -346 70
-391 69 -30 -1 -29 -2 8 -9 22 -4 108 -20 190 -35 83 -15 175 -34 205 -42 30
-8 69 -18 86 -22 17 -5 39 -14 50 -20 18 -12 18 -12 -1 -7 -11 3 -63 17 -115
30 -52 14 -135 29 -185 35 -108 12 -625 23 -575 12 l35 -7 -60 -18 c-202 -58
-330 -103 -402 -142 -44 -24 -85 -44 -89 -44 -4 0 9 18 31 40 21 21 42 37 47
34 5 -3 17 1 26 9 39 34 284 135 407 167 91 24 363 34 585 22 193 -11 242 -25
454 -129 158 -78 200 -107 294 -197 39 -38 72 -65 72 -59 0 21 -159 159 -234
203 -85 50 -94 65 -15 25 133 -66 246 -172 320 -296 23 -38 46 -72 52 -76 6
-4 0 11 -13 33 -96 160 -149 218 -283 308 -62 43 -96 59 -124 61 -21 1 -78 20
-128 42 -151 67 -147 64 -90 57 200 -23 396 -117 549 -263 44 -42 53 -48 37
-23 -35 50 -196 171 -286 213 -44 20 -120 51 -170 68 -49 17 -139 49 -200 71
l-110 41 125 -6 c155 -7 190 -16 445 -119 34 -14 37 -14 21 -1 -11 8 -62 31
-113 51 -86 33 -122 54 -72 41 15 -4 19 -3 12 4 -6 6 -52 17 -104 25 -146 22
-486 110 -457 117 38 11 74 8 181 -14 326 -66 493 -144 850 -398 113 -80 146
-122 251 -325 54 -103 104 -204 112 -224 l14 -37 -5 34 c-7 48 -207 423 -257
482 -39 47 -282 263 -338 302 -13 9 -34 17 -45 17 -14 0 -7 -8 24 -25 42 -24
241 -190 241 -201 0 -7 -15 3 -100 66 -192 144 -396 240 -640 301 -52 13 -86
25 -74 27 40 6 332 -68 418 -106 68 -31 69 -21 1 12 -107 52 -315 109 -535
147 l-75 13 60 12 c50 10 54 12 24 13 -19 1 -60 -3 -90 -8 -30 -6 -162 -13
-294 -17 -132 -3 -271 -10 -310 -14 -44 -5 6 -6 135 -4 l205 3 -195 -18 c-203
-19 -297 -39 -327 -70 -24 -25 -184 -41 -163 -17 16 21 170 97 180 91 5 -3 6
4 3 15 -7 25 6 30 167 65 211 47 305 51 595 29z m-1330 -126 c-49 -51 -105
-105 -125 -119 -39 -28 -82 -89 -126 -181 -16 -32 -32 -58 -36 -58 -30 0 25
100 121 220 48 61 241 241 250 234 2 -2 -36 -45 -84 -96z m-131 -33 c-44 -62
-61 -81 -69 -73 -4 3 103 138 110 138 2 0 -16 -29 -41 -65z m584 27 c-23 -14
-62 -40 -85 -59 -55 -44 -86 -44 -36 0 58 51 106 85 128 89 39 9 36 -5 -7 -30z
m959 27 c43 -6 81 -14 85 -18 4 -3 -49 -4 -117 -2 -94 2 -125 0 -125 -9 0 -9
-15 -10 -56 -5 -35 4 -54 3 -50 -3 3 -5 -29 -12 -77 -16 -45 -4 -99 -9 -120
-13 -36 -5 -39 -4 -35 18 3 22 9 25 83 31 44 5 107 12 140 16 89 13 185 13
272 1z m-1554 -23 c-10 -13 -44 -55 -75 -93 -70 -84 -180 -244 -290 -420 -45
-73 -84 -131 -85 -129 -5 5 65 166 93 213 37 65 120 171 184 238 32 33 66 77
75 98 10 21 38 55 63 77 51 46 62 50 35 16z m473 -1 c-11 -8 -22 -12 -25 -9
-6 6 19 24 34 24 6 -1 1 -7 -9 -15z m2332 -28 c23 -23 42 -49 42 -57 0 -8 -22
8 -50 35 -27 27 -50 53 -50 57 0 17 17 6 58 -35z m-2651 -44 c-61 -105 -82
-133 -94 -128 -7 2 -22 -5 -33 -17 -11 -12 -20 -18 -20 -14 0 9 59 93 86 123
8 10 32 40 52 67 47 64 53 43 9 -31z m889 52 c-1 -20 -8 -26 -36 -32 -44 -8
-97 -30 -105 -43 -8 -13 -4 -13 31 4 16 8 85 22 154 30 255 33 259 31 91 -28
-68 -23 -123 -36 -160 -37 -41 -1 -49 -3 -31 -8 23 -7 21 -9 -20 -20 -135 -37
-262 -76 -319 -97 -35 -13 -66 -24 -68 -24 -18 0 126 99 192 132 73 37 78 41
60 54 -10 8 -42 14 -71 14 -123 0 -41 42 126 64 156 21 158 21 156 -9z m-536
11 c0 -2 -57 -55 -127 -117 -244 -217 -304 -283 -363 -396 -52 -101 -90 -152
-90 -122 0 47 215 386 263 414 15 9 25 20 22 25 -5 8 36 43 73 64 27 16 9 -3
-28 -29 -22 -15 -38 -30 -36 -32 8 -8 123 75 146 104 12 15 47 42 78 59 68 38
62 35 62 30z m-151 -42 c-13 -14 -54 -41 -91 -61 -41 -21 -104 -69 -158 -120
-97 -92 -123 -99 -37 -10 55 57 228 190 269 206 38 16 43 12 17 -15z m1090 7
c20 -6 95 -24 166 -42 72 -17 132 -33 135 -36 2 -2 -128 -1 -290 2 -162 3
-295 7 -297 8 -4 5 212 77 231 77 10 0 35 -4 55 -9z m1056 -43 l40 -41 -47 37
c-27 21 -48 40 -48 42 0 13 21 -1 55 -38z m-1825 -12 c0 -2 -24 -18 -54 -35
-30 -17 -65 -41 -77 -53 -26 -27 -17 -10 24 50 27 37 35 42 69 42 21 0 38 -2
38 -4z m90 -17 c-14 -11 -59 -42 -100 -69 -41 -28 -101 -71 -133 -97 -31 -25
-60 -44 -63 -41 -3 3 35 37 83 75 48 38 104 88 123 111 30 34 41 40 75 41 l40
0 -25 -20z m-302 -60 c-40 -39 -86 -78 -103 -86 -64 -33 -147 -114 -277 -271
-38 -45 -54 -32 -23 18 27 43 31 55 14 44 -8 -5 -8 -1 0 14 6 12 17 24 24 28
8 5 7 2 -2 -9 -8 -10 -11 -20 -8 -23 3 -3 18 14 35 38 58 85 317 298 375 309
18 4 33 7 35 8 2 0 -30 -31 -70 -70z m1067 35 c83 -14 271 -72 261 -81 -5 -6
-161 15 -281 37 -102 18 -261 35 -237 24 8 -4 53 -12 100 -18 83 -12 77 -12
-148 -12 -266 -1 -276 -3 -570 -103 -141 -48 -175 -54 -136 -25 48 35 457 165
576 183 82 12 342 9 435 -5z m1366 -17 c12 -22 12 -22 -10 -3 -11 11 -21 23
-21 28 0 14 19 -1 31 -25z m-3017 -36 c-16 -22 -35 -43 -43 -46 -12 -5 3 19
52 83 5 7 12 10 14 8 3 -3 -8 -23 -23 -45z m640 16 c-11 -12 -65 -74 -119
-137 -55 -63 -111 -127 -125 -141 -14 -14 -42 -44 -62 -67 -21 -23 -38 -39
-38 -36 0 17 98 139 182 229 52 55 112 119 133 143 21 23 40 40 43 37 3 -3 -4
-15 -14 -28z m-333 -16 c-26 -36 -78 -81 -94 -81 -10 0 100 108 111 110 2 0
-6 -13 -17 -29z m429 26 c0 -2 -48 -45 -107 -96 l-108 -93 100 96 c87 83 115
106 115 93z m2370 -105 c0 -4 -9 7 -20 23 -11 17 -20 35 -20 40 0 6 9 -5 20
-23 11 -18 20 -36 20 -40z m-3008 -14 c-53 -87 -62 -104 -62 -112 0 -6 7 -1
15 10 8 10 15 14 15 8 0 -15 -25 -36 -33 -27 -4 3 -7 2 -7 -3 0 -5 -10 -20
-21 -34 -11 -14 -1 13 22 60 36 74 73 130 87 130 2 0 -5 -15 -16 -32z m392
-10 c-101 -115 -172 -200 -201 -240 -39 -54 -51 -62 -29 -20 23 45 93 131 170
210 67 68 102 98 60 50z m901 8 c257 -14 262 -15 445 -61 102 -27 205 -58 230
-70 53 -27 157 -103 185 -137 l20 -23 -22 19 c-13 11 -23 16 -23 13 0 -4 -26
5 -57 19 -67 29 -210 71 -403 117 -123 29 -149 32 -295 31 -158 0 -319 -19
-309 -35 7 -12 57 -11 110 2 33 9 72 8 162 -2 l117 -13 -70 -7 c-43 -4 -98
-18 -141 -37 -40 -16 -103 -35 -142 -41 -108 -17 -112 -15 -69 20 26 22 35 35
28 42 -7 7 -14 7 -23 0 -12 -9 -104 -43 -117 -43 -3 0 21 24 54 54 80 72 61
80 -80 33 -101 -34 -130 -36 -82 -5 12 8 61 30 109 48 l88 33 202 -6 c248 -6
444 -30 511 -61 26 -13 47 -20 47 -15 0 18 -95 50 -191 64 -250 35 -555 40
-644 10 -11 -4 -5 3 13 15 17 12 32 28 32 36 0 17 -15 17 315 0z m1806 -109
c37 -73 27 -66 -30 22 -22 36 -41 74 -41 85 0 17 4 15 20 -12 11 -17 34 -60
51 -95z m-3029 10 c-37 -57 -69 -102 -71 -101 -9 8 61 132 95 167 20 20 38 37
40 37 2 0 -27 -47 -64 -103z m-146 41 c-14 -24 -26 -37 -26 -29 0 17 41 84 47
77 3 -2 -7 -24 -21 -48z m398 10 c-62 -69 -90 -101 -117 -133 -14 -16 -28 -27
-32 -24 -12 12 159 197 184 199 2 0 -14 -19 -35 -42z m-509 -4 c-100 -131
-120 -168 -294 -554 -10 -22 -11 -18 -8 26 7 97 178 410 291 532 40 42 45 41
11 -4z m24 -23 c-12 -27 -35 -62 -51 -78 -17 -15 -27 -21 -23 -13 20 36 87
140 90 140 2 0 -5 -22 -16 -49z m1021 14 c-25 -13 -55 -24 -68 -25 -12 0 -30
-4 -40 -10 -25 -14 -199 -89 -258 -111 -53 -19 -116 -51 -169 -84 l-30 -19 20
23 c11 13 40 34 65 48 25 14 74 43 110 64 67 39 125 61 290 110 117 34 139 35
80 4z m2203 -34 c10 -18 13 -32 8 -36 -9 -5 -51 62 -51 81 0 12 25 -14 43 -45z
m-2594 8 c-11 -11 -24 -18 -27 -14 -4 4 2 13 12 21 30 21 39 17 15 -7z m-29
-36 c0 -17 -104 -111 -116 -106 -8 3 -11 9 -8 14 9 15 -13 10 -26 -6 -7 -8
-17 -15 -23 -15 -6 0 0 11 12 24 13 14 28 23 35 20 6 -2 29 14 51 36 34 35 75
53 75 33z m340 4 c0 -2 -11 -18 -25 -37 -14 -19 -23 -41 -21 -49 3 -11 -17
-32 -56 -61 -34 -25 -66 -47 -72 -49 -15 -6 53 78 102 125 23 22 42 45 42 51
0 6 6 14 13 16 17 7 17 7 17 4z m784 -17 c108 -24 188 -51 281 -96 39 -19 61
-31 50 -27 -176 60 -353 115 -405 127 -36 7 -54 14 -40 15 14 0 65 -8 114 -19z
m-651 -38 c-55 -46 -131 -100 -163 -116 -8 -4 20 27 63 69 76 74 104 93 140
94 12 1 -2 -16 -40 -47z m-1049 -19 c-15 -32 -51 -123 -81 -203 -31 -80 -58
-147 -60 -150 -11 -11 10 89 32 152 24 66 98 221 117 246 20 24 18 11 -8 -45z
m1956 13 c52 -15 141 -43 197 -62 86 -30 106 -41 122 -68 11 -18 29 -41 41
-51 41 -37 18 -33 -53 10 -40 24 -142 75 -227 112 -173 77 -212 95 -190 90 8
-3 58 -16 110 -31z m1337 -116 c25 -52 61 -124 79 -160 37 -74 78 -190 70
-198 -3 -3 -22 30 -42 74 -19 43 -54 115 -76 159 -46 90 -118 252 -118 263 1
18 45 -52 87 -138z m-1469 96 c45 -15 82 -32 82 -39 0 -7 20 -28 45 -47 50
-40 59 -58 16 -36 -44 23 -249 83 -345 101 -51 10 -122 15 -171 13 -46 -2 -81
0 -77 4 51 47 310 49 450 4z m-1794 -85 c-30 -77 -43 -101 -57 -101 -22 0 -19
14 29 120 32 67 52 95 62 85 2 -2 -13 -49 -34 -104z m576 29 c-41 -27 -76 -47
-79 -45 -10 10 37 49 84 71 78 36 76 28 -5 -26z m496 24 c-15 -14 -31 -23 -34
-20 -9 9 30 46 47 46 11 -1 8 -8 -13 -26z m-1166 13 c0 -2 -16 -32 -35 -67
-24 -43 -33 -55 -29 -35 9 41 42 105 54 105 6 0 10 -1 10 -3z m1718 -23 c164
-34 359 -102 319 -111 -10 -3 -27 3 -37 12 -55 50 -314 68 -575 41 -88 -10
-180 -21 -203 -27 -80 -17 -153 -66 -167 -109 -3 -11 -13 -20 -20 -20 -8 0
-16 -4 -19 -9 -3 -4 16 -3 42 3 26 6 39 12 30 14 -25 5 -23 14 10 44 71 67
162 85 479 94 161 5 243 3 296 -6 73 -12 106 -24 97 -34 -3 -2 -88 -7 -190
-11 -102 -3 -248 -13 -325 -21 -116 -12 -146 -19 -177 -40 -21 -13 -40 -24
-43 -24 -3 0 -36 -23 -73 -51 l-67 -52 43 44 c42 45 57 87 26 75 -9 -3 -25 -6
-37 -6 -17 0 -19 -2 -8 -9 11 -7 9 -12 -10 -21 -13 -7 -26 -16 -29 -19 -3 -3
-50 -36 -105 -73 -55 -37 -114 -82 -131 -100 -17 -18 -46 -41 -63 -51 l-32
-18 40 58 c50 71 154 183 171 183 7 0 10 3 7 7 -10 9 38 70 101 128 46 42 66
52 135 71 45 12 96 27 112 34 76 31 261 33 403 4z m-1408 -79 c-44 -105 -49
-125 -24 -104 15 12 16 10 11 -16 -4 -17 -11 -59 -17 -95 -18 -114 -22 -122
-31 -65 -5 30 -4 68 3 95 6 25 10 74 9 110 -2 63 -1 68 39 118 23 29 43 52 45
52 2 0 -14 -43 -35 -95z m153 10 c-20 -41 -39 -73 -40 -71 -5 5 44 116 58 133
23 26 18 11 -18 -62z m466 28 c-25 -27 -57 -65 -73 -86 -31 -41 -49 -43 -23
-3 21 31 123 136 133 136 3 0 -13 -21 -37 -47z m2475 -19 c14 -29 26 -58 26
-65 -1 -18 -14 5 -47 79 -30 68 -15 58 21 -14z m-2149 50 c-37 -15 -105 -31
-105 -25 0 14 44 30 80 30 19 -1 31 -2 25 -5z m-1144 -65 c-11 -30 -20 -49
-20 -43 -1 15 30 106 35 101 2 -2 -5 -28 -15 -58z m315 -11 c-40 -93 -55 -119
-56 -97 0 26 39 131 57 151 31 34 31 18 -1 -54z m164 58 c0 -2 -19 -28 -43
-58 -43 -56 -104 -114 -112 -106 -12 12 37 78 90 120 58 47 65 52 65 44z
m2219 -241 c46 -117 92 -257 86 -263 -6 -7 -40 71 -81 183 -19 55 -59 147 -87
205 -68 137 -68 138 -8 50 28 -41 69 -120 90 -175z m-2149 175 c-23 -27 -44
-50 -46 -50 -13 0 22 60 49 82 47 39 46 26 -3 -32z m360 57 c0 -2 -36 -32 -80
-66 -44 -35 -95 -81 -115 -102 -46 -51 -45 -38 2 18 59 74 193 177 193 150z
m-200 -76 c-56 -64 -63 -70 -54 -46 4 8 3 15 0 15 -11 0 -95 -180 -102 -216
-3 -18 -12 -38 -20 -44 -10 -9 -8 5 6 52 30 105 48 147 77 185 29 37 134 126
141 118 2 -2 -19 -31 -48 -64z m1280 49 c22 -11 44 -29 50 -40 19 -36 -23 -23
-65 20 -44 45 -41 49 15 20z m-1377 -27 c-20 -44 -53 -91 -53 -76 0 15 30 85
42 101 21 25 27 11 11 -25z m1581 -31 c44 -21 95 -50 111 -65 28 -23 92 -124
83 -132 -3 -3 -203 150 -273 209 -43 36 -15 32 79 -12z m171 -8 c20 -15 46
-41 58 -58 12 -17 55 -70 95 -118 40 -49 68 -88 62 -88 -6 0 -8 -5 -5 -10 4
-6 10 -8 14 -5 5 2 17 -5 27 -18 l19 -22 -22 19 c-33 28 -28 11 10 -37 19 -23
61 -81 95 -128 l62 -86 1 -239 c1 -147 -3 -251 -9 -269 -8 -23 -11 20 -11 185
1 308 1 300 -15 300 -7 0 -30 33 -51 73 -21 39 -62 107 -93 151 -40 58 -51 81
-41 86 14 9 2 24 -138 174 -41 43 -76 76 -79 73 -3 -3 16 -33 41 -67 26 -33
45 -63 43 -66 -4 -4 -25 21 -118 143 l-39 51 29 -8 c16 -5 45 -21 65 -36z
m-2124 -75 c-17 -56 -31 -110 -31 -120 0 -9 -7 -22 -16 -30 -13 -11 -15 -9
-10 12 3 13 10 55 16 93 10 64 28 113 53 144 21 26 18 1 -12 -99z m-460 -5
c-11 -55 -33 -138 -50 -186 -51 -149 -80 -392 -56 -467 4 -15 2 -21 -8 -21
-33 0 -28 208 9 405 20 107 110 383 120 372 3 -3 -4 -49 -15 -103z m1028 39
c-35 -38 -81 -86 -102 -108 -21 -22 -59 -74 -85 -115 -33 -52 -48 -69 -50 -56
-4 21 88 161 145 221 50 52 136 125 147 125 5 0 -20 -30 -55 -67z m1900 -10
c11 -29 19 -53 16 -53 -6 0 -41 69 -50 100 -13 44 12 9 34 -47z m-2174 -5
c-12 -35 -34 -88 -49 -118 -14 -30 -26 -61 -26 -69 0 -8 -3 -12 -6 -9 -3 4 1
42 10 87 11 60 23 91 48 125 18 25 36 45 39 46 4 0 -4 -28 -16 -62z m335 14
c-19 -20 -47 -50 -62 -67 -15 -16 -37 -41 -50 -55 -46 -50 -178 -232 -178
-246 0 -21 18 -17 52 11 47 40 47 20 0 -25 l-42 -40 -20 20 -20 20 76 112 c73
109 260 325 272 313 3 -3 -10 -22 -28 -43z m1118 33 c50 -25 158 -192 138
-213 -4 -4 -14 2 -21 12 -8 10 -23 24 -33 30 -11 6 -66 39 -123 74 -57 34
-121 70 -141 79 -21 9 -38 20 -38 25 0 15 185 9 218 -7z m137 -12 c35 -39 31
-53 -5 -18 -27 26 -38 45 -25 45 2 0 16 -12 30 -27z m-2071 -1 c2 -4 -7 -32
-20 -62 l-25 -55 6 54 c3 30 8 58 11 63 6 10 21 10 28 0z m415 -38 c-6 -16
-13 -24 -16 -17 -5 13 16 58 23 50 3 -2 -1 -17 -7 -33z m1181 11 c75 -20 114
-38 60 -28 -44 8 -184 54 -150 49 14 -2 54 -11 90 -21z m-1850 -32 c-11 -17
-11 -17 -6 0 3 10 7 26 7 35 1 15 2 15 6 0 2 -10 -1 -25 -7 -35z m121 -65
c-11 -51 -23 -123 -27 -160 -4 -38 -11 -68 -15 -68 -11 0 -12 -7 7 108 20 126
46 240 51 225 2 -7 -5 -54 -16 -105z m503 48 c-14 -54 -56 -136 -70 -136 -4 0
-4 27 -2 60 4 54 8 65 43 100 21 22 40 38 41 37 2 -2 -4 -29 -12 -61z m1121
49 c28 -13 26 -13 -51 -14 -45 -1 -97 -4 -115 -7 -53 -10 -27 6 33 21 70 17
97 17 133 0z m-1415 -37 c-1 -34 -3 -39 -11 -26 -8 15 -3 68 7 68 2 0 4 -19 4
-42z m1169 37 c-3 -2 -33 -13 -67 -24 -69 -21 -86 -11 -19 12 40 15 96 22 86
12z m541 -15 c43 -22 54 -35 18 -21 -63 25 -91 40 -75 41 10 0 36 -9 57 -20z
m341 -134 c17 -32 29 -59 27 -61 -9 -9 -51 39 -68 80 -11 25 -30 60 -43 78
-43 58 -39 63 8 12 25 -27 59 -76 76 -109z m50 107 l34 -37 -42 33 c-24 18
-43 35 -43 37 0 13 20 0 51 -33z m-2170 -46 c-29 -95 -34 -168 -21 -299 7 -73
8 -124 2 -134 -15 -27 -37 135 -36 266 0 97 4 123 23 165 44 97 62 98 32 2z
m-376 -38 c-42 -160 -51 -184 -70 -187 -22 -5 -18 16 30 143 64 173 79 189 40
44z m1552 66 c-26 -13 -64 -36 -84 -50 -45 -30 -63 -33 -38 -5 10 11 22 17 26
14 5 -3 9 1 9 9 0 16 83 56 115 56 12 0 2 -9 -28 -24z m511 -22 c124 -61 212
-184 263 -369 18 -65 20 -92 14 -173 -8 -121 -25 -178 -90 -317 -62 -133 -129
-235 -149 -228 -8 3 -27 -12 -46 -36 -48 -60 -111 -93 -195 -102 -123 -12
-371 30 -465 79 -167 88 -220 158 -234 309 -3 31 -11 62 -17 70 -23 28 1 183
51 329 69 198 134 288 278 382 117 76 142 85 257 94 170 12 249 3 333 -38z
m-1799 -188 l-23 -80 -9 40 c-9 43 2 120 31 215 l17 55 3 -75 c2 -55 -3 -96
-19 -155z m369 205 c-7 -10 -14 -17 -17 -15 -4 4 18 35 25 35 2 0 -1 -9 -8
-20z m217 -16 c-8 -20 -15 -39 -15 -42 0 -3 -3 -3 -6 0 -6 7 22 78 31 78 3 0
-2 -16 -10 -36z m126 19 c-6 -10 -20 -29 -31 -43 l-21 -25 12 25 c11 25 39 60
46 60 2 0 -1 -8 -6 -17z m1371 -67 c15 -12 27 -24 27 -29 1 -6 -156 96 -169
111 -10 11 116 -61 142 -82z m768 -35 c0 -25 -16 1 -34 53 -9 27 -16 52 -15
55 1 11 49 -94 49 -108z m-357 -176 c14 -27 35 -72 47 -100 13 -27 40 -88 61
-134 68 -148 41 -111 -55 74 -60 117 -107 195 -134 223 -23 23 -42 49 -42 57
0 8 -6 18 -14 22 -13 8 -106 118 -106 126 0 2 49 -46 109 -107 64 -66 119
-131 134 -161z m-88 187 c-3 -4 -25 14 -48 38 l-42 43 48 -38 c26 -21 45 -40
42 -43z m-2238 -14 c3 -40 8 -79 13 -88 10 -20 0 -390 -11 -390 -5 0 -10 53
-11 118 -1 89 -3 104 -8 62 l-6 -55 -8 38 c-5 21 -5 87 -2 145 4 59 9 127 10
152 5 94 6 103 12 97 4 -4 9 -39 11 -79z m317 -39 c-19 -139 -34 -200 -45
-193 -15 9 -10 78 15 187 23 101 33 133 42 124 2 -2 -3 -55 -12 -118z m-588
93 c-7 -20 -71 -401 -81 -479 -4 -29 -11 -53 -16 -53 -6 0 -8 15 -5 33 3 17 8
66 11 107 2 41 11 111 19 155 14 82 63 255 72 255 3 0 3 -8 0 -18z m1114 3
c-7 -8 -18 -15 -24 -15 -6 0 -2 7 8 15 25 19 32 19 16 0z m-1377 -67 c-3 -35
-8 -72 -13 -83 -5 -11 -11 -40 -12 -65 -2 -35 -7 -46 -22 -48 -14 -3 -17 0
-12 13 3 10 13 59 22 109 20 122 23 136 32 136 5 0 7 -28 5 -62z m288 -74
c-11 -71 -25 -177 -32 -236 -9 -84 -15 -108 -27 -108 -29 0 2 249 54 425 8 31
18 55 20 52 2 -2 -5 -62 -15 -133z m198 26 c-12 -130 -17 -145 -18 -58 -1 61
16 174 24 166 2 -2 0 -51 -6 -108z m2951 69 c0 -10 9 -57 20 -105 37 -160 41
-209 23 -316 -10 -54 -20 -98 -24 -98 -3 0 -11 25 -18 55 -10 44 -10 59 -1 70
16 19 4 273 -16 363 -17 78 -17 77 1 62 8 -7 15 -21 15 -31z m-2000 -44 c-54
-68 -64 -77 -53 -47 19 51 87 130 102 116 2 -2 -20 -33 -49 -69z m-121 28
c-18 -21 -61 -65 -94 -98 -33 -33 -75 -83 -92 -110 -18 -27 -33 -44 -33 -38 0
26 88 139 163 208 89 82 110 96 56 38z m1127 1 c50 -33 74 -64 39 -51 -20 8
-28 -9 -15 -33 6 -12 10 -29 8 -38 -3 -10 -9 -2 -17 23 -8 22 -23 49 -36 60
-21 19 -50 75 -39 75 3 0 30 -16 60 -36z m513 -29 c-3 -2 -16 10 -29 28 l-23
32 29 -27 c15 -15 26 -30 23 -33z m77 3 c73 -77 121 -140 139 -181 26 -62 0
-41 -61 50 -33 47 -79 108 -102 135 -59 65 -40 61 24 -4z m-2344 20 c-7 -7
-12 -8 -12 -2 0 14 12 26 19 19 2 -3 -1 -11 -7 -17z m21 -104 l-17 -27 -7 27
c-8 30 -5 44 19 94 l17 33 3 -50 c2 -35 -2 -58 -15 -77z m2237 49 c0 -26 -20
-12 -40 27 -11 21 -20 43 -20 47 1 13 59 -61 60 -74z m-179 40 c13 -16 12 -17
-3 -4 -17 13 -22 21 -14 21 2 0 10 -8 17 -17z m-1968 -30 c-6 -43 -23 -69 -23
-35 0 19 19 72 26 72 1 0 0 -17 -3 -37z m128 10 c-12 -20 -14 -14 -5 12 4 9 9
14 11 11 3 -2 0 -13 -6 -23z m1430 10 c13 -16 12 -17 -3 -4 -10 7 -18 15 -18
17 0 8 8 3 21 -13z m352 -81 c3 -15 18 -62 35 -104 16 -42 32 -94 35 -115 4
-21 4 -31 0 -23 -3 8 -25 56 -48 105 -24 50 -54 124 -68 165 l-26 75 33 -38
c19 -21 36 -50 39 -65z m182 37 c14 -27 23 -49 20 -49 -9 0 -65 83 -65 97 0
24 19 4 45 -48z m-2705 -45 c-11 -49 -23 -127 -27 -174 -4 -47 -9 -77 -11 -67
-2 9 -10 17 -18 17 -12 0 -14 -9 -9 -47 17 -140 17 -139 3 -125 -23 23 -17
221 11 327 20 76 60 170 68 161 2 -1 -6 -43 -17 -92z m417 74 c-3 -8 -6 -5 -6
6 -1 11 2 17 5 13 3 -3 4 -12 1 -19z m2705 -85 c37 -78 53 -126 59 -178 5 -38
11 -82 15 -97 10 -46 -2 -32 -29 35 -14 34 -26 85 -28 112 -3 63 -7 75 -23 69
-9 -4 -19 15 -30 58 -8 35 -19 73 -22 86 -15 52 11 15 58 -85z m516 -42 c-6
-29 -28 -23 -28 7 0 16 -7 46 -15 65 -28 67 -14 73 16 7 16 -35 28 -71 27 -79z
m-335 49 l7 -45 -15 50 c-8 28 -14 57 -14 65 1 26 16 -22 22 -70z m-2618 -10
c-12 -68 -20 -73 -16 -10 2 29 21 93 26 88 2 -2 -2 -37 -10 -78z m459 8 c-32
-64 -64 -107 -64 -86 0 8 6 20 13 27 10 11 9 14 -1 18 -8 3 2 22 29 54 23 28
44 48 46 45 2 -2 -8 -28 -23 -58z m-417 30 c-3 -8 -6 -5 -6 6 -1 11 2 17 5 13
3 -3 4 -12 1 -19z m-519 -104 c-2 -50 -8 -76 -20 -88 -14 -13 -16 -27 -11 -64
8 -65 -3 -50 -16 21 -12 68 -2 136 35 232 7 19 8 18 12 -5 2 -13 2 -56 0 -96z
m548 24 c-3 -40 -6 -136 -7 -213 0 -123 3 -149 25 -212 14 -40 23 -73 21 -73
-3 0 -19 28 -37 63 l-33 62 0 175 c0 183 9 270 27 270 7 0 9 -23 4 -72z m1684
-31 c17 -51 54 -148 80 -217 54 -137 83 -240 78 -274 -4 -23 -48 93 -48 125 0
10 -4 19 -9 21 -4 2 -25 53 -46 113 -21 61 -57 159 -81 218 -24 59 -44 110
-44 112 0 2 9 1 19 -2 14 -3 28 -31 51 -96z m420 8 l22 -40 -46 50 c-25 28
-45 59 -46 70 0 17 4 16 24 -10 14 -16 34 -48 46 -70z m619 -78 c0 -112 -3
-153 -10 -132 -11 39 -10 307 2 299 5 -3 9 -78 8 -167z m-2953 101 c-19 -26
-21 -11 -4 29 9 22 12 24 15 11 3 -10 -3 -28 -11 -40z m191 30 c-3 -8 -6 -5
-6 6 -1 11 2 17 5 13 3 -3 4 -12 1 -19z m1821 -183 c8 -31 11 -59 9 -61 -4 -5
-98 252 -96 264 2 18 76 -153 87 -203z m-1490 176 c-7 -10 -28 -33 -46 -52
-18 -19 -51 -54 -74 -79 -30 -33 -36 -37 -23 -15 35 59 90 127 120 145 37 24
39 24 23 1z m1207 -36 l6 -40 -19 40 c-11 22 -17 44 -14 48 8 15 20 -7 27 -48z
m-1340 -12 c-33 -57 -45 -72 -45 -54 0 17 19 52 43 79 31 34 32 27 2 -25z
m1435 -8 c3 -49 0 -63 -10 -40 -12 27 -12 105 -1 85 5 -8 10 -28 11 -45z m406
-14 c25 -39 44 -75 42 -82 -4 -12 -6 -9 -72 94 -52 82 -25 71 30 -12z m763
-100 c1 -52 -2 -91 -5 -88 -4 4 -8 64 -10 134 -2 92 0 117 6 88 5 -22 9 -82 9
-134z m-3411 2 c-2 -76 0 -176 5 -223 l7 -85 -21 45 c-12 25 -24 65 -27 89 -6
54 18 311 30 311 5 0 7 -62 6 -137z m2557 7 c55 -135 98 -260 92 -266 -5 -5
-157 372 -157 389 0 26 22 -15 65 -123z m161 115 c15 -15 10 -40 -5 -30 -10 5
-22 45 -14 45 2 0 11 -7 19 -15z m711 -17 c-3 -7 -5 -2 -5 12 0 14 2 19 5 13
2 -7 2 -19 0 -25z m133 2 c0 -16 -2 -30 -4 -30 -2 0 -6 14 -8 30 -3 17 -1 30
4 30 4 0 8 -13 8 -30z m-3192 -77 c12 -54 29 -125 37 -158 13 -53 14 -55 10
-15 -7 61 7 35 34 -63 12 -43 30 -96 41 -117 26 -50 25 -54 -5 -34 -15 9 -27
30 -31 50 -3 19 -12 34 -19 34 -17 0 -72 126 -80 185 -3 28 -13 77 -21 109
-15 57 -13 106 4 106 5 0 18 -44 30 -97z m102 -123 c0 -59 -3 -80 -10 -70 -5
8 -10 32 -10 53 0 21 -4 36 -8 33 -5 -3 -16 32 -25 77 -15 76 -15 83 0 107
l17 25 18 -70 c10 -40 18 -106 18 -155z m2810 -43 c13 -120 26 -214 30 -210 4
4 2 58 -5 118 -7 61 -15 148 -19 195 -5 84 -5 84 9 45 9 -22 22 -53 29 -70 22
-47 31 -188 16 -251 -7 -30 -17 -54 -22 -54 -4 0 -8 -13 -8 -28 0 -29 -34
-154 -77 -280 -15 -48 -22 -84 -18 -103 4 -15 1 -36 -5 -46 -9 -15 -10 -12 -6
17 3 19 -12 -19 -34 -85 -22 -66 -52 -156 -67 -200 -30 -92 -116 -261 -169
-335 -20 -28 -38 -50 -40 -50 -2 0 14 33 36 72 57 109 212 477 253 603 19 61
44 151 56 200 11 50 25 113 32 140 15 64 12 131 -12 342 -20 186 -24 253 -10
218 5 -11 19 -118 31 -238z m-3141 121 c12 -64 21 -145 21 -180 1 -59 12 -172
25 -235 5 -28 5 -28 -6 -3 -20 47 -68 285 -69 350 -2 102 0 194 4 189 2 -2 14
-57 25 -121z m410 -42 c1 -66 -11 -50 -25 31 -8 48 -8 76 0 102 l11 36 6 -60
c4 -33 7 -82 8 -109z m1760 107 c11 -29 19 -53 16 -53 -5 0 -28 52 -40 91 -13
40 2 17 24 -38z m1220 -56 c-7 -39 -13 -75 -11 -79 1 -5 -2 -8 -8 -8 -14 0
-13 87 2 151 11 45 13 49 22 30 6 -14 5 -45 -5 -94z m-3890 -12 c-12 -136 -17
-152 -18 -58 -1 64 16 180 24 171 2 -2 -1 -53 -6 -113z m2987 -39 c56 -108 65
-132 56 -147 -7 -10 -12 -27 -12 -36 0 -10 -16 25 -34 77 -18 52 -46 124 -61
160 -39 94 -40 96 -27 85 5 -5 41 -68 78 -139z m-2126 103 c0 -16 -4 -28 -9
-25 -8 5 -3 56 5 56 2 0 4 -14 4 -31z m1785 -3 c11 -25 13 -56 8 -117 -4 -50
-9 -75 -13 -63 -8 21 -20 214 -13 214 2 0 10 -15 18 -34z m522 -36 l43 -64 -1
-100 c0 -81 -2 -96 -11 -76 -6 14 -12 45 -14 70 -4 59 -26 160 -35 160 -4 0
-9 -6 -11 -12 -6 -17 -23 16 -33 61 -11 50 12 36 62 -39z m-2228 -7 c-1 -56
-2 -63 -10 -38 -8 26 -2 105 7 105 2 0 4 -30 3 -67z m306 5 c-8 -29 -26 -93
-39 -143 -22 -84 -24 -88 -31 -57 -13 62 21 199 61 243 25 28 28 17 9 -43z
m35 17 c-16 -47 -23 -40 -9 9 6 21 13 36 16 33 3 -3 0 -22 -7 -42z m1269 -162
c-6 -35 -13 -63 -14 -63 -2 0 -3 42 -2 93 1 50 -1 110 -5 132 -4 22 1 9 12
-30 17 -60 18 -79 9 -132z m1256 80 c-9 -36 -12 -27 -18 52 l-6 70 15 -48 c9
-27 13 -60 9 -74z m-3723 -65 c2 -87 1 -158 -3 -158 -4 0 -12 38 -19 84 -9 66
-9 101 1 160 6 42 13 75 15 74 1 -2 4 -74 6 -160z m1008 135 c-24 -80 -33 -96
-42 -79 -6 11 -3 25 10 44 10 15 22 35 25 45 10 28 16 19 7 -10z m237 -60
c-27 -75 -47 -183 -48 -265 -1 -48 -2 -50 -10 -23 -17 52 8 219 44 304 38 90
48 79 14 -16z m1748 -51 c10 -54 1 -47 -32 26 -45 99 -49 125 -9 62 19 -30 37
-70 41 -88z m-3133 -27 c-8 -163 -21 -171 -21 -13 -1 75 2 145 6 155 14 36 21
-28 15 -142z m605 108 c-3 -10 -5 -2 -5 17 0 19 2 27 5 18 2 -10 2 -26 0 -35z
m2282 -58 c-1 -24 -3 -21 -15 20 -17 62 -17 79 1 40 8 -16 14 -43 14 -60z
m556 -3 c22 -104 31 -237 16 -246 -7 -5 -11 4 -11 26 0 18 -6 71 -14 118 -8
47 -18 110 -21 140 -10 79 10 53 30 -38z m531 30 c-12 -11 -17 7 -9 34 l8 29
3 -28 c2 -16 1 -31 -2 -35z m-3871 -307 c3 -49 11 -95 16 -101 5 -7 16 -45 25
-85 12 -62 49 -198 70 -259 3 -10 2 -12 -5 -5 -16 17 -60 161 -75 247 -8 44
-18 83 -24 87 -5 3 -17 33 -28 66 -15 46 -19 89 -19 185 1 69 5 143 10 165 8
34 10 22 16 -85 3 -69 10 -165 14 -215z m2690 224 c20 -60 34 -113 31 -116
-10 -10 -10 -10 -72 210 -3 9 -3 17 -1 17 3 0 22 -50 42 -111z m-2031 37 c6
-26 5 -28 -8 -17 -10 8 -16 28 -15 50 0 39 8 27 23 -33z m-294 24 c0 -22 55
-311 75 -395 27 -115 5 -77 -60 104 -32 90 -35 107 -35 210 0 72 4 110 10 106
6 -3 10 -14 10 -25z m164 -120 c7 -63 12 -117 10 -118 -9 -11 -25 87 -29 173
-5 118 1 102 19 -55z m587 117 c-8 -8 -11 -7 -11 4 0 9 3 19 7 23 4 4 9 2 11
-4 3 -7 -1 -17 -7 -23z m1755 -69 c21 -63 34 -171 18 -155 -8 7 -31 99 -59
237 -9 43 14 -2 41 -82z m408 -33 c5 -63 3 -94 -2 -85 -5 8 -12 60 -14 114 -3
54 -2 93 2 85 5 -8 11 -59 14 -114z m-705 45 c1 -26 -2 -31 -9 -20 -5 8 -9 33
-9 55 0 31 2 36 9 20 5 -11 9 -36 9 -55z m78 -45 c-5 -47 -46 -200 -52 -193
-2 3 7 112 22 258 l6 55 14 -35 c10 -23 13 -53 10 -85z m-1577 0 c5 -50 13
-108 16 -130 9 -59 -11 -32 -25 33 -11 51 -16 200 -7 191 3 -3 10 -45 16 -94z
m-171 -20 l0 -30 -14 25 c-8 14 -14 45 -14 70 l1 45 13 -40 c8 -22 14 -53 14
-70z m2405 35 c10 -70 -11 -398 -29 -450 l-15 -45 5 45 c16 147 26 337 23 421
-3 99 4 112 16 29z m-467 -50 c21 -119 27 -190 15 -190 -12 0 -28 72 -37 165
-3 33 -8 78 -11 100 -9 70 18 10 33 -75z m617 -68 c-8 -63 -18 -60 -20 6 0 26
-4 76 -8 112 l-6 65 20 -65 c15 -48 19 -79 14 -118z m-667 146 c-3 -8 -6 -5
-6 6 -1 11 2 17 5 13 3 -3 4 -12 1 -19z m743 -372 c-62 -225 -121 -419 -131
-436 -8 -12 -9 -11 -5 5 3 11 8 34 12 50 3 17 21 80 40 140 65 215 75 268 81
460 l7 180 19 -124 19 -124 -42 -151z m337 267 c-10 -233 -39 -419 -85 -553
-26 -75 -94 -231 -99 -226 -2 2 17 59 42 127 25 68 44 132 41 142 -2 10 9 53
25 97 31 87 55 241 65 423 3 64 8 117 11 117 3 0 3 -57 0 -127z m-2852 -101
c-8 -9 -45 115 -50 166 -4 50 -1 43 24 -53 16 -60 28 -111 26 -113z m2814 186
c0 -18 -4 -42 -9 -53 -6 -15 -9 -6 -9 33 -1 28 4 52 9 52 6 0 10 -15 9 -32z
m-2797 -50 c2 -20 1 -35 -3 -33 -10 7 -19 77 -11 89 7 12 8 6 14 -56z m2085
-238 c1 -129 1 -230 -2 -225 -2 6 -9 118 -14 251 -6 133 -13 250 -16 260 -3
10 2 3 12 -16 14 -29 17 -75 20 -270z m-3028 103 c20 -144 33 -196 87 -358 35
-104 81 -237 103 -295 22 -57 39 -106 37 -107 -6 -6 -95 195 -131 297 -21 58
-54 152 -75 210 -21 58 -43 143 -49 189 -13 97 -15 231 -3 231 4 0 18 -75 31
-167z m760 72 c15 -61 29 -99 40 -104 9 -5 27 -41 39 -80 18 -55 35 -84 76
-129 47 -50 76 -103 58 -102 -13 1 -93 109 -142 190 -81 135 -144 320 -108
320 10 0 21 -30 37 -95z m1690 9 c1 -32 -68 -186 -90 -199 -9 -6 -10 -3 -4 11
4 10 21 71 37 134 37 147 39 153 48 115 4 -16 8 -44 9 -61z m1241 -40 c0 -127
-12 -158 -23 -62 -8 62 2 188 14 188 5 0 9 -57 9 -126z m-3225 106 c3 -5 1
-10 -4 -10 -6 0 -11 5 -11 10 0 6 2 10 4 10 3 0 8 -4 11 -10z m3174 -92 c0
-57 -4 -123 -8 -148 l-8 -45 -7 38 c-5 22 -3 70 4 117 7 44 10 94 6 110 -3 17
-1 30 4 30 6 0 10 -42 9 -102z m-311 -53 c-3 -41 -4 -37 -34 125 -2 14 5 0 16
-30 12 -31 19 -72 18 -95z m-2810 37 c5 -46 5 -69 -1 -63 -11 11 -26 149 -17
157 6 7 7 0 18 -94z m76 82 c3 -8 2 -12 -4 -9 -6 3 -10 10 -10 16 0 14 7 11
14 -7z m513 -16 c-3 -7 -5 -2 -5 12 0 14 2 19 5 13 2 -7 2 -19 0 -25z m1487 1
c3 -17 6 -43 6 -56 0 -24 -70 -177 -90 -197 -14 -14 2 36 22 69 10 17 18 45
18 64 0 44 22 151 31 151 3 0 9 -14 13 -31z m260 -48 c27 -66 31 -96 19 -127
-4 -11 -15 19 -29 82 -33 142 -32 147 10 45z m543 37 c-3 -7 -5 -2 -5 12 0 14
2 19 5 13 2 -7 2 -19 0 -25z m27 -88 c-7 -118 -27 -232 -60 -341 -48 -159 -58
-156 -23 7 12 55 23 113 26 129 13 95 27 162 35 172 6 7 7 20 4 29 -3 8 -3 40
0 71 11 88 24 39 18 -67z m-3298 80 c10 0 14 -12 14 -37 0 -21 7 -78 15 -128
17 -104 18 -130 4 -95 -19 46 -59 229 -58 262 1 18 3 25 6 16 2 -10 11 -18 19
-18z m294 -80 c7 -52 20 -126 30 -165 16 -63 18 -87 6 -74 -8 8 -54 234 -60
294 -11 97 10 50 24 -55z m-579 -48 c6 -57 9 -106 6 -108 -9 -9 -39 81 -44
133 -3 28 -2 68 2 90 7 36 8 37 16 14 6 -14 14 -71 20 -129z m715 21 c-5 -5
-26 92 -25 115 1 9 7 -12 15 -47 8 -35 12 -66 10 -68z m-477 35 c7 -46 14 -96
17 -113 9 -57 -14 -3 -35 82 -25 96 -26 113 -7 113 10 0 17 -24 25 -82z m571
20 c33 -59 38 -77 14 -58 -18 16 -33 43 -44 81 -12 42 -4 36 30 -23z m439 -63
c11 -55 18 -101 16 -103 -6 -6 -47 113 -52 150 -5 36 5 84 13 63 2 -6 13 -55
23 -110z m2628 63 c-3 -7 -5 -2 -5 12 0 14 2 19 5 13 2 -7 2 -19 0 -25z
m-3340 -137 c-4 -20 -47 113 -46 143 1 11 12 -12 25 -53 14 -41 23 -82 21 -90z
m2683 141 c0 -10 4 -22 9 -27 6 -6 7 -57 2 -125 l-7 -115 -7 110 c-4 61 -9
125 -12 143 -2 17 0 32 6 32 5 0 9 -8 9 -18z m108 -122 c1 -113 -18 -242 -35
-248 -17 -5 -16 29 2 148 8 52 15 129 16 170 2 110 17 49 17 -70z m62 -68 c-8
-13 -10 6 -6 73 9 142 10 146 13 42 2 -59 -1 -104 -7 -115z m-2995 118 c15
-36 29 -72 33 -80 5 -13 3 -13 -11 -2 -9 8 -20 11 -26 8 -8 -5 -31 95 -31 134
0 20 6 11 35 -60z m728 34 c5 -30 -8 -20 -18 15 -4 15 -3 21 3 17 5 -3 12 -17
15 -32z m1871 -1 c25 -151 16 -252 -33 -365 l-19 -43 5 65 c3 36 9 70 13 75
14 19 21 187 9 201 -12 15 -4 104 10 104 5 0 11 -17 15 -37z m-2574 3 c0 -11
50 -142 89 -229 28 -66 26 -71 -8 -17 -23 37 -111 246 -111 264 0 3 7 3 15 0
8 -4 15 -11 15 -18z m425 -170 c36 -71 63 -131 61 -133 -18 -18 -160 226 -172
297 l-7 35 26 -35 c14 -19 56 -93 92 -164z m1786 118 c-5 -61 -10 -75 -31 -92
-14 -11 -26 -19 -28 -17 -5 4 35 141 48 165 6 12 13 20 14 18 1 -1 0 -35 -3
-74z m-2396 -61 c38 -119 71 -280 61 -291 -3 -3 -20 25 -36 62 -29 63 -59 182
-75 299 -13 85 12 51 50 -70z m2280 73 c-19 -63 -75 -164 -59 -106 9 33 62
150 67 150 3 0 -1 -20 -8 -44z m1020 -21 c-3 -30 -11 -55 -16 -55 -12 0 -11 8
2 70 14 66 23 57 14 -15z m-438 33 c-3 -8 -6 -5 -6 6 -1 11 2 17 5 13 3 -3 4
-12 1 -19z m-2737 -87 c48 -216 131 -422 206 -509 30 -35 34 -46 23 -53 -12
-7 -10 -16 10 -51 30 -55 23 -48 -45 43 -31 41 -52 79 -49 88 3 8 -24 68 -60
133 -41 74 -70 139 -76 171 -5 29 -13 72 -18 97 -12 59 -25 187 -17 180 3 -3
14 -48 26 -99z m2787 -13 c-10 -180 -44 -419 -62 -437 -13 -14 -15 -14 -15 3
0 10 9 53 20 96 22 88 38 220 41 358 2 50 7 92 12 92 6 0 8 -43 4 -112z
m-2512 1 c9 -40 20 -77 25 -83 5 -6 19 -42 31 -79 13 -39 27 -67 35 -67 18 0
17 8 -1 60 -19 53 -19 60 1 35 22 -28 116 -215 108 -215 -3 0 -35 23 -70 50
-68 55 -104 103 -104 141 0 13 -11 58 -24 99 -27 86 -43 175 -26 149 5 -10 17
-50 25 -90z m3255 -14 c-6 -38 -26 -115 -43 -170 -26 -82 -33 -94 -35 -68 -2
18 10 74 26 125 16 51 35 125 43 163 18 90 26 47 9 -50z m-2864 37 c-6 -6 -26
43 -25 61 0 7 7 -3 15 -22 8 -18 13 -36 10 -39z m298 -28 c8 -38 18 -80 22
-92 7 -23 6 -24 -22 -9 -16 8 -44 18 -62 22 -42 9 -58 35 -67 108 -7 66 -2 73
16 20 16 -50 66 -123 84 -123 14 0 14 23 0 140 -7 55 12 14 29 -66z m-474 55
c6 -10 7 -19 2 -19 -5 0 -14 12 -20 26 -14 29 2 24 18 -7z m2266 -94 c-7 -129
-28 -270 -41 -283 -8 -8 -4 42 22 266 9 78 18 142 21 142 3 0 2 -56 -2 -125z
m345 28 c-10 -81 -54 -235 -80 -280 -13 -23 -14 -7 -1 37 6 19 20 91 31 160
11 69 23 136 26 150 l7 25 7 -25 c7 -25 7 -24 8 4 1 16 4 27 7 23 3 -3 1 -45
-5 -94z m-591 1 c0 -27 -47 -165 -61 -179 -14 -12 -3 88 12 116 5 10 12 46 16
81 6 62 7 63 19 33 7 -16 13 -39 14 -51z m217 14 c-2 -13 -4 -3 -4 22 0 25 2
35 4 23 2 -13 2 -33 0 -45z m-2007 -17 c16 -34 27 -61 25 -61 -5 0 -42 70 -56
108 -17 44 1 18 31 -47z m20 24 c0 -5 -5 -3 -10 5 -5 8 -10 20 -10 25 0 6 5 3
10 -5 5 -8 10 -19 10 -25z m1456 -26 c-18 -61 -28 -77 -109 -183 -66 -86 -89
-103 -107 -81 -11 13 -5 24 31 64 24 27 49 50 54 51 13 2 93 114 119 167 11
23 22 40 24 38 2 -1 -4 -27 -12 -56z m-2252 -47 c15 -51 53 -155 86 -230 33
-75 52 -128 44 -117 -19 23 -107 208 -135 280 -18 46 -39 177 -27 165 3 -3 18
-47 32 -98z m2426 59 c-11 -22 -24 -42 -29 -46 -6 -3 2 15 15 40 31 55 42 60
14 6z m-1966 -45 c26 -68 29 -99 6 -56 -12 22 -40 109 -40 124 0 18 8 1 34
-68z m-753 -76 c36 -160 89 -331 130 -420 62 -133 182 -338 201 -343 10 -3 23
-18 30 -34 13 -30 58 -79 70 -75 14 4 98 -102 86 -109 -31 -19 -280 297 -362
458 -83 164 -153 374 -186 558 -6 33 -13 71 -15 85 l-5 25 14 -25 c8 -14 25
-68 37 -120z m953 23 c25 -39 43 -78 40 -86 -3 -9 23 -40 73 -87 l78 -72 -80
43 c-102 54 -105 56 -105 87 0 14 -14 50 -31 81 -26 45 -28 52 -10 37 30 -27
26 -16 -14 44 -37 54 -49 90 -16 49 10 -13 39 -56 65 -96z m-18 74 c14 -30 14
-31 -1 -12 -25 30 -39 59 -26 51 6 -4 18 -22 27 -39z m-449 -152 c74 -153 94
-186 179 -312 45 -68 78 -123 74 -123 -19 0 -60 24 -60 34 0 6 -40 70 -88 142
-112 165 -212 369 -212 429 0 26 49 -51 107 -170z m3183 65 c-11 -51 -19 -95
-16 -97 3 -3 12 31 22 76 10 45 21 81 26 81 12 0 11 -8 -17 -116 -30 -116 -56
-197 -61 -192 -2 2 3 28 11 58 26 97 15 88 -14 -10 -28 -96 -59 -174 -60 -154
-1 6 7 35 17 65 10 30 38 135 63 234 45 183 67 224 29 55z m90 47 c0 -34 -9
-95 -19 -136 -21 -79 -61 -184 -68 -178 -2 3 5 41 16 85 12 44 21 89 21 100 0
11 7 22 15 26 12 4 15 24 15 91 0 55 4 84 10 80 6 -3 10 -34 10 -68z m-3204
-35 c39 -103 54 -152 45 -152 -8 0 -74 175 -85 225 -9 44 9 11 40 -73z m569
68 c9 -17 42 -61 73 -98 78 -91 116 -142 106 -142 -37 0 -124 84 -124 119 0 7
-11 27 -25 43 -33 39 -68 108 -55 108 5 0 16 -14 25 -30z m2666 -60 l-10 -25
0 26 c-1 15 2 42 7 60 l7 34 3 -35 c2 -20 -1 -47 -7 -60z m-3754 48 c-3 -7 -5
-2 -5 12 0 14 2 19 5 13 2 -7 2 -19 0 -25z m3576 0 c-22 -122 -78 -311 -128
-436 -23 -55 -30 -49 -10 9 9 24 34 107 56 184 68 238 80 275 84 275 3 0 2
-15 -2 -32z m216 -30 c-7 -29 -14 -47 -17 -40 -5 15 18 105 26 98 2 -3 -1 -29
-9 -58z m-1112 11 c-8 -19 -34 -68 -58 -109 -24 -41 -53 -92 -64 -112 -10 -21
-21 -36 -23 -34 -4 5 68 151 116 233 38 67 52 77 29 22z m-2003 -12 c5 -21 4
-21 -14 3 -23 29 -26 48 -6 31 8 -6 16 -22 20 -34z m351 16 c10 -16 38 -46 62
-69 23 -22 43 -47 43 -54 0 -8 -31 19 -70 59 -38 41 -70 78 -70 82 0 18 18 8
35 -18z m1690 -31 c-39 -87 -89 -181 -127 -239 -41 -63 -53 -78 -40 -45 22 54
178 339 180 331 2 -5 -4 -26 -13 -47z m75 -138 c-23 -47 -43 -84 -45 -82 -2 2
15 59 38 127 39 117 42 122 45 83 2 -33 -6 -61 -38 -128z m317 4 c-3 -84 -9
-169 -12 -188 -9 -51 -34 -133 -45 -150 -16 -25 -12 5 11 72 11 34 16 65 12
69 -5 5 -1 67 8 142 10 72 18 149 18 170 1 20 4 37 7 37 4 0 4 -69 1 -152z
m309 -67 c-41 -204 -43 -226 -20 -217 12 5 15 2 9 -11 -4 -10 -12 -31 -17 -48
-17 -49 -26 -50 -21 -2 4 29 1 47 -7 52 -9 5 -10 2 -6 -13 9 -28 -32 -162 -49
-162 -8 0 -23 -14 -35 -31 -40 -56 -33 -21 14 65 25 47 46 97 46 110 0 13 8
39 18 56 12 23 14 34 5 37 -9 3 -8 15 3 46 9 23 29 98 45 167 16 69 32 136 36
150 7 25 7 25 11 2 2 -13 -13 -103 -32 -201z m-813 194 c-3 -9 -8 -14 -10 -11
-3 3 -2 9 2 15 9 16 15 13 8 -4z m-87 -74 c-20 -39 -36 -77 -36 -85 0 -8 -23
-31 -52 -51 -28 -21 -73 -58 -100 -83 -27 -25 -50 -43 -53 -40 -7 7 56 69 108
106 26 18 52 42 58 54 9 16 0 12 -31 -15 -24 -20 -46 -35 -48 -32 -3 2 37 54
88 115 51 61 95 108 97 106 2 -2 -12 -36 -31 -75z m361 9 c-6 -34 -15 -60 -22
-60 -6 0 -24 -27 -40 -61 -44 -91 -50 -82 -9 13 20 46 41 101 46 122 11 46 17
58 27 52 4 -3 3 -32 -2 -66z m139 18 c-3 -29 -10 -111 -16 -183 -13 -157 -24
-197 -61 -224 l-27 -20 19 67 c36 122 77 335 79 405 0 4 3 7 6 7 3 0 3 -24 0
-52z m373 -84 c-41 -164 -67 -241 -85 -248 -11 -4 -9 4 6 34 13 25 18 49 14
64 -3 13 1 37 10 54 8 16 29 73 47 126 17 53 33 95 35 93 2 -1 -10 -57 -27
-123z m-1999 21 c19 -18 51 -42 70 -54 44 -26 30 -27 -53 -1 -50 16 -73 30
-105 64 -22 24 -45 54 -52 66 -12 22 -9 21 46 -9 33 -18 75 -48 94 -66z m972
68 c-11 -16 -30 -37 -43 -48 l-24 -20 20 25 c52 67 85 96 47 43z m807 -53 c0
-25 -4 -52 -9 -60 -7 -10 -10 10 -9 65 0 85 17 80 18 -5z m26 -38 c-11 -72
-17 -40 -8 44 6 60 9 69 11 39 2 -22 1 -60 -3 -83z m-3171 92 c10 -25 -1 -29
-14 -5 -6 12 -7 21 -1 21 5 0 12 -7 15 -16z m3295 -45 c-14 -68 -30 -88 -18
-22 11 60 20 86 25 80 2 -2 -1 -28 -7 -58z m-2563 -20 c19 -39 33 -73 30 -76
-4 -5 -76 129 -76 142 0 17 14 -3 46 -66z m2 46 c-3 -3 -9 2 -12 12 -6 14 -5
15 5 6 7 -7 10 -15 7 -18z m316 -84 c37 -45 65 -85 63 -88 -6 -5 -157 180
-157 193 0 11 16 -6 94 -105z m-31 -95 c75 -38 119 -67 126 -82 10 -22 8 -22
-41 7 -51 30 -182 79 -212 79 -9 0 -16 6 -16 13 0 6 -25 43 -55 80 -77 95 -69
112 14 30 54 -53 94 -81 184 -127z m-883 95 c17 -46 29 -86 27 -88 -6 -5 -67
144 -67 163 0 27 7 14 40 -75z m2811 -44 c-20 -97 -59 -233 -61 -212 -1 22 75
348 78 332 2 -10 -6 -64 -17 -120z m-2328 21 c16 -28 11 -24 -32 21 -28 29
-51 61 -51 70 1 19 56 -40 83 -91z m-110 -174 c37 -56 67 -105 67 -110 0 -16
-74 63 -111 119 -35 54 -88 170 -103 227 -4 14 13 -11 37 -55 24 -44 74 -126
110 -181z m-257 191 c-5 -20 13 -57 84 -170 131 -209 160 -251 182 -262 29
-15 123 -112 115 -120 -15 -14 -54 17 -139 112 -51 57 -106 130 -123 162 -16
32 -49 88 -72 125 -40 64 -54 101 -67 178 -5 33 -5 34 10 15 8 -11 13 -29 10
-40z m256 -12 c49 -75 71 -113 64 -113 -2 0 -26 35 -53 78 -61 96 -65 102 -60
102 2 0 24 -30 49 -67z m327 -36 c11 -15 11 -21 1 -27 -8 -5 -8 -9 4 -13 9 -4
16 -12 16 -18 0 -6 20 -40 46 -75 46 -65 44 -77 -10 -52 -20 8 -23 14 -15 24
8 10 0 29 -33 76 -39 55 -98 167 -98 185 0 7 64 -66 89 -100z m1850 57 c-18
-22 -22 -11 -7 22 10 21 14 24 16 10 2 -9 -2 -24 -9 -32z m991 -95 c-18 -44
-34 -78 -36 -76 -2 2 11 45 29 95 17 51 34 85 35 76 2 -8 -11 -51 -28 -95z
m-3014 -34 c4 -11 23 -47 42 -80 34 -57 61 -93 132 -177 l31 -38 -28 0 c-24 0
-37 13 -88 82 -80 111 -174 255 -186 285 -21 56 -8 57 41 3 27 -30 52 -64 56
-75z m1822 80 c-12 -25 -26 -45 -30 -45 -5 0 -31 -18 -59 -40 -28 -22 -56 -40
-62 -40 -16 0 62 79 95 96 15 8 35 27 45 44 27 46 35 35 11 -15z m-1284 11
c29 -14 56 -32 59 -40 4 -9 27 -29 52 -45 35 -22 42 -30 28 -33 -10 -2 10 -10
45 -17 34 -6 82 -19 105 -28 23 -8 170 -41 327 -73 276 -55 283 -57 229 -65
-31 -4 -66 -4 -78 0 -13 4 -21 2 -21 -6 0 -9 25 -10 103 -4 56 4 122 7 147 6
27 -1 40 2 32 7 -9 6 -2 12 22 19 31 9 35 8 39 -9 4 -14 11 -18 24 -14 10 3
36 8 58 11 l40 6 -30 -26 c-16 -14 -52 -38 -79 -52 -49 -25 -53 -25 -248 -24
-332 3 -535 44 -747 151 -53 26 -109 63 -126 80 -30 33 -30 33 -5 26 14 -4 39
-11 56 -15 17 -5 50 -20 75 -34 124 -73 531 -179 674 -175 22 0 -14 8 -80 18
-147 21 -226 37 -274 56 -22 9 -26 12 -11 10 87 -16 265 -37 288 -33 23 3 22
4 -8 6 -19 0 -98 11 -175 22 -77 12 -150 21 -163 20 -14 0 -20 3 -17 9 4 7 -2
9 -17 5 -27 -7 -175 49 -232 87 -33 23 -166 161 -166 173 0 10 23 4 74 -19z
m1623 -33 c-16 -54 -66 -157 -72 -151 -3 2 10 42 28 89 18 46 36 93 40 103 15
39 18 6 4 -41z m-1309 2 c220 -56 519 -125 539 -125 37 0 -10 18 -83 31 -41 7
-74 17 -74 21 0 7 71 13 112 9 9 -1 58 12 109 29 50 17 94 29 96 26 3 -2 -9
-14 -26 -27 -17 -13 -31 -28 -32 -33 0 -6 -19 -27 -41 -46 -41 -34 -43 -35
-127 -34 -83 2 -198 24 -321 64 -30 9 -101 30 -157 45 -69 19 -110 36 -125 52
-12 12 -18 23 -14 23 4 0 69 -16 144 -35z m2077 -66 c-15 -52 -37 -113 -50
-135 -14 -23 -22 -44 -20 -46 3 -3 -15 -48 -40 -102 -54 -118 -148 -267 -153
-244 -5 28 61 157 126 249 61 86 76 113 47 89 -21 -17 -19 -13 18 66 19 38 46
104 62 147 15 42 30 76 32 73 2 -2 -8 -46 -22 -97z m-2248 63 c-10 -2 -26 -1
-35 3 -14 5 -14 8 -2 15 8 5 22 4 34 -3 19 -10 20 -11 3 -15z m1267 4 c-3 -9
-10 -16 -15 -16 -5 0 -4 9 3 20 14 22 21 20 12 -4z m42 -14 c-16 -31 -36 -50
-36 -35 0 14 41 76 46 70 3 -3 -2 -19 -10 -35z m538 -49 c-16 -44 -30 -70 -32
-60 -4 19 48 151 56 143 2 -3 -8 -40 -24 -83z m-338 -47 c-43 -130 -105 -264
-135 -291 l-22 -19 9 24 c6 14 32 72 59 130 27 58 64 144 83 192 19 48 36 84
38 79 1 -4 -13 -56 -32 -115z m280 39 c-11 -31 -15 -35 -15 -16 -1 13 5 42 12
65 10 35 12 37 15 16 1 -14 -4 -43 -12 -65z m568 -41 c-27 -74 -97 -210 -119
-232 -45 -47 5 98 65 188 40 59 70 114 70 127 0 4 -12 -11 -26 -34 -41 -70
-41 -56 2 42 l17 40 9 -31 c6 -24 2 -48 -18 -100z m-3448 49 c15 -38 38 -83
51 -101 13 -17 41 -78 62 -135 21 -56 50 -126 65 -155 15 -30 25 -57 21 -60
-3 -3 -8 4 -12 16 -3 12 -12 22 -20 22 -18 0 -94 161 -157 330 -43 117 -52
150 -42 150 2 0 16 -30 32 -67z m547 -32 c20 -19 37 -39 37 -44 0 -4 -27 7
-60 26 -44 24 -66 45 -80 72 -11 22 -20 41 -20 43 0 6 82 -59 123 -97z m2463
82 c-3 -10 -12 -45 -22 -78 -22 -79 -82 -204 -138 -288 -25 -37 -46 -73 -46
-81 0 -7 -9 -21 -21 -32 l-21 -19 14 30 c7 17 32 70 55 118 24 48 43 92 43 97
0 20 101 255 113 262 20 13 29 9 23 -9z m-2665 -118 c92 -135 95 -140 82 -132
-12 8 -143 199 -163 237 -21 41 3 11 81 -105z m2085 88 c-7 -21 -56 -91 -56
-80 0 15 51 109 57 104 2 -3 2 -14 -1 -24z m-2432 -198 c57 -118 113 -227 123
-242 11 -15 30 -46 43 -68 l24 -39 -36 27 c-48 37 -195 307 -237 436 -52 157
-41 142 83 -114z m1129 199 c9 -3 17 -1 17 5 0 6 7 11 16 11 10 0 13 -6 10
-18 -5 -15 0 -17 39 -14 33 3 85 -8 193 -42 154 -47 237 -64 338 -67 34 -1 69
-8 79 -16 17 -12 16 -13 -11 -13 -17 0 -55 4 -85 9 -30 5 -115 17 -189 26
-212 26 -332 51 -401 84 -87 41 -104 54 -59 46 19 -4 43 -9 53 -11z m-455 -5
c23 -8 31 -18 36 -43 8 -43 20 -53 221 -186 195 -129 206 -138 145 -115 -105
40 -249 117 -297 159 -57 51 -143 160 -143 182 0 17 -1 17 38 3z m216 -5 c5
-12 2 -15 -10 -10 -8 3 -18 6 -20 6 -3 0 -2 5 1 10 9 15 22 12 29 -6z m1121
-3 c-3 -6 -11 -11 -17 -11 -6 0 -6 6 2 15 14 17 26 13 15 -4z m-1069 -19 c-9
-9 -37 8 -31 18 5 8 11 7 21 -1 8 -6 12 -14 10 -17z m1532 -21 c-12 -22 -24
-38 -26 -36 -5 4 37 75 44 75 3 0 -6 -18 -18 -39z m-2652 -98 c-5 -5 -46 103
-46 120 1 7 12 -17 26 -52 13 -35 22 -66 20 -68z m64 20 c68 -168 97 -224 145
-283 25 -30 43 -60 41 -65 -4 -10 9 -38 47 -110 9 -16 14 -31 11 -34 -13 -14
-158 185 -149 207 3 7 -3 26 -14 40 -34 49 -78 146 -110 241 -33 102 -35 111
-23 111 5 0 28 -48 52 -107z m915 79 c17 -8 24 -17 18 -19 -15 -5 -17 -39 -3
-48 6 -3 10 -11 10 -16 0 -15 -59 22 -81 50 -10 13 -19 32 -19 43 0 21 19 19
75 -10z m1515 -4 c-12 -22 -76 -88 -86 -88 -9 0 14 35 51 78 39 45 55 50 35
10z m930 -13 c-16 -47 -23 -40 -9 9 6 21 13 36 16 33 3 -3 0 -22 -7 -42z
m-1116 -41 c-21 -31 -46 -59 -56 -62 -10 -2 -15 -8 -12 -13 3 -5 -1 -6 -9 -4
-7 3 -39 -1 -70 -9 -51 -13 -68 -13 -150 0 -167 28 -422 76 -426 80 -8 7 27 4
161 -16 206 -30 257 -34 281 -22 12 6 73 23 135 38 62 15 127 37 145 50 17 12
34 20 35 19 2 -2 -13 -29 -34 -61z m-175 27 c-13 -11 -28 -20 -34 -20 -5 0 3
11 20 24 16 13 31 22 34 20 2 -3 -7 -13 -20 -24z m506 -62 c-32 -75 -94 -159
-118 -159 -9 0 27 54 55 82 10 10 18 23 18 30 0 15 71 141 76 135 3 -2 -11
-42 -31 -88z m171 59 c-15 -79 -47 -164 -66 -176 -23 -14 -24 -12 -10 20 5 13
23 60 40 106 33 85 47 105 36 50z m-2052 -39 c47 -23 100 -42 117 -44 18 -1
52 -19 81 -41 28 -21 72 -52 97 -67 25 -16 39 -27 31 -24 -50 17 -48 14 10
-13 36 -17 124 -51 195 -75 72 -24 153 -56 180 -71 28 -16 106 -50 175 -76 69
-26 118 -47 109 -48 -28 0 -362 87 -472 124 -193 64 -405 183 -454 255 -28 40
-43 51 -43 31 0 -18 83 -101 127 -127 49 -28 52 -33 21 -26 -63 12 174 -93
330 -148 210 -74 538 -153 742 -179 52 -7 142 -13 200 -12 l105 0 -45 -39
c-81 -71 -144 -117 -217 -158 -66 -37 -79 -41 -144 -41 -104 0 -300 42 -529
115 -139 44 -214 76 -409 176 -107 54 -200 99 -208 99 -20 0 -113 49 -113 59
0 5 -36 51 -80 102 -81 95 -94 117 -62 104 9 -4 47 -18 84 -30 88 -31 92 -33
122 -77 27 -41 20 -48 -19 -22 -14 9 -25 12 -25 6 0 -6 29 -24 64 -41 35 -17
67 -35 71 -41 10 -16 -1 -12 -65 20 -33 17 -63 30 -67 30 -15 0 53 -42 138
-84 48 -24 106 -57 130 -73 111 -74 214 -118 444 -188 317 -96 616 -131 650
-74 8 11 -12 39 -27 39 -6 0 -5 -6 1 -14 46 -55 -219 -44 -471 19 -164 41
-364 111 -476 166 -57 28 -101 53 -99 56 3 2 38 -7 78 -21 41 -14 146 -43 234
-65 88 -22 223 -58 300 -81 143 -41 214 -53 115 -19 l-55 19 90 -6 c50 -3 131
-9 180 -14 121 -13 155 -10 75 5 l-65 13 50 2 c28 1 61 6 75 11 18 6 9 7 -29
3 -140 -14 -326 -1 -523 36 -61 12 -327 109 -404 148 -79 40 -281 175 -268
179 9 3 118 -40 491 -196 233 -96 370 -132 533 -136 l125 -4 -115 9 c-185 13
-352 59 -585 160 -66 29 -185 79 -264 111 -94 39 -150 68 -163 84 -11 14 -41
48 -66 77 -77 84 -125 158 -103 158 5 0 48 -19 95 -41z m317 15 c23 -14 38
-28 35 -31 -5 -5 -96 44 -96 52 0 11 23 3 61 -21z m1283 -41 c-10 -15 -18 -29
-18 -30 -1 -1 -14 -5 -30 -9 -29 -7 -29 -7 -13 16 15 21 68 60 75 55 2 -2 -4
-16 -14 -32z m577 -6 c-8 -8 -11 -5 -11 9 0 27 14 41 18 19 2 -9 -1 -22 -7
-28z m69 -17 c-18 -33 -24 -16 -9 27 11 31 14 34 17 16 2 -12 -2 -32 -8 -43z
m503 35 c-3 -9 -8 -14 -10 -11 -3 3 -2 9 2 15 9 16 15 13 8 -4z m-2393 -31
c25 -14 90 -45 145 -69 55 -24 141 -62 190 -85 84 -39 280 -118 333 -135 44
-13 14 -16 -54 -5 -280 46 -334 63 -466 148 -65 41 -118 79 -118 84 0 5 -8 11
-17 15 -26 9 -93 57 -93 66 0 15 36 6 80 -19z m1694 -28 c-3 -15 -8 -25 -11
-23 -2 3 -1 17 3 31 3 15 8 25 11 23 2 -3 1 -17 -3 -31z m-2600 -185 c-7 -8
-33 32 -69 106 -56 116 -39 118 19 3 30 -58 52 -107 50 -109z m2457 155 c-11
-25 -27 -46 -35 -46 -8 0 -23 -3 -33 -7 -16 -6 -16 -5 -4 10 7 9 17 14 22 11
5 -3 21 15 36 40 34 56 41 52 14 -8z m-223 2 c-20 -24 -51 -52 -69 -62 l-34
-19 35 34 c19 19 45 47 57 62 13 15 28 27 34 27 6 0 -4 -19 -23 -42z m70 -29
c-23 -45 -41 -65 -65 -75 -18 -8 -35 -14 -39 -14 -5 0 127 148 134 150 2 0
-12 -28 -30 -61z m362 -5 c-31 -49 -36 -35 -9 23 15 33 23 43 26 30 3 -9 -5
-33 -17 -53z m-1424 -9 c79 -24 217 -62 307 -84 89 -22 180 -44 202 -49 32 -8
35 -10 13 -11 -115 -4 -448 75 -606 145 -54 24 -114 62 -79 50 10 -3 83 -26
163 -51z m2016 -46 c-24 -59 -65 -131 -106 -189 -70 -97 -117 -153 -81 -95 46
73 106 178 159 278 32 60 60 106 62 104 3 -2 -13 -47 -34 -98z m129 67 c-14
-36 -22 -33 -9 5 6 16 12 28 14 26 3 -2 0 -16 -5 -31z m-2910 -28 c6 -12 6
-18 0 -18 -6 0 -18 15 -27 33 -16 30 -16 31 0 18 9 -8 22 -23 27 -33z m2500
15 c-12 -20 -14 -14 -5 12 4 9 9 14 11 11 3 -2 0 -13 -6 -23z m313 -140 c-43
-87 -78 -163 -77 -170 1 -18 -122 -168 -178 -216 -27 -23 -49 -47 -49 -53 0
-6 -21 -26 -47 -45 -62 -46 -77 -54 -69 -40 13 20 -2 12 -73 -41 -38 -29 -98
-68 -133 -86 -58 -31 -61 -32 -33 -7 17 14 71 52 120 84 50 33 99 69 110 82
21 25 14 21 -50 -28 -52 -39 -95 -67 -95 -60 0 4 49 42 150 116 20 15 29 19
21 8 -19 -24 -2 -21 28 6 14 12 19 14 12 4 -8 -9 -11 -21 -7 -25 8 -7 52 41
64 70 7 16 161 177 199 208 11 8 13 11 6 6 -8 -5 -15 -7 -18 -5 -4 5 124 256
164 322 13 21 26 36 29 33 2 -3 -31 -76 -74 -163z m-1168 122 c-22 -19 -44
-35 -49 -35 -6 0 7 16 29 35 21 19 44 34 49 34 6 0 -8 -15 -29 -34z m116 2
c-30 -31 -92 -74 -92 -63 0 6 110 96 118 96 3 0 -8 -15 -26 -33z m-1952 -185
c0 -15 -4 -21 -12 -17 -7 3 -2 -2 12 -12 14 -10 69 -52 123 -93 100 -76 184
-133 301 -204 104 -64 117 -80 29 -37 -105 52 -316 173 -427 246 l-87 57 -54
111 c-80 168 -79 172 23 66 60 -62 91 -102 92 -117z m2489 116 c-28 -62 -68
-134 -58 -103 21 60 84 195 87 186 2 -6 -11 -44 -29 -83z m-239 49 c0 -2 -10
-12 -22 -23 l-23 -19 19 23 c18 21 26 27 26 19z m68 -31 c-7 -14 -48 -64 -91
-111 -43 -47 -74 -85 -69 -85 6 0 51 44 101 98 50 53 91 92 91 86 0 -15 -116
-149 -148 -170 -15 -9 -52 -38 -82 -63 l-55 -45 45 47 c24 26 40 47 34 47 -6
0 -26 -16 -45 -36 -35 -37 -89 -79 -89 -70 0 2 34 34 76 70 42 36 88 82 102
103 34 51 134 165 139 159 3 -2 -1 -16 -9 -30z m-228 15 c0 -5 -34 -46 -76
-90 -59 -63 -98 -94 -173 -136 l-98 -55 -169 -7 -169 -6 -150 51 c-154 51
-261 96 -215 88 14 -2 72 -13 130 -25 138 -27 357 -40 500 -29 63 5 116 11
119 13 10 11 -7 12 -74 4 -87 -10 -214 -10 -239 0 -24 9 301 36 349 28 40 -7
65 -1 65 15 0 11 -85 8 -314 -13 -66 -6 -138 -8 -160 -5 -43 7 -350 116 -343
122 2 2 39 -5 83 -16 112 -29 190 -40 349 -51 77 -5 170 -12 208 -15 57 -5 67
-4 67 10 0 13 13 16 85 16 47 0 85 4 85 9 0 6 -9 8 -20 6 -11 -2 -100 -5 -197
-6 -178 -3 -178 -3 -357 39 -188 44 -232 60 -131 47 33 -5 135 -9 227 -9 160
-1 203 -7 159 -21 -34 -11 -24 -32 18 -39 60 -9 221 5 273 24 31 12 50 14 57
7 6 -6 25 0 57 22 52 34 54 35 54 22z m-1990 -115 c0 -16 -41 27 -72 74 l-30
45 51 -55 c27 -30 50 -59 51 -64z m2355 64 c-10 -22 -20 -38 -23 -35 -3 3 3
23 13 45 10 22 20 38 23 35 3 -3 -3 -23 -13 -45z m-745 20 c-33 -26 -52 -25
-21 0 13 11 28 20 35 20 6 0 0 -9 -14 -20z m871 -52 c-36 -74 -216 -295 -281
-347 -47 -37 -45 -33 32 59 25 30 87 114 138 185 99 139 131 178 138 170 3 -2
-9 -33 -27 -67z m-2248 13 c34 -27 86 -63 115 -81 61 -37 67 -47 15 -24 -21 8
-67 27 -103 41 -64 25 -112 61 -131 96 -8 14 -5 17 16 17 15 0 50 -19 88 -49z
m1485 37 c-3 -7 -20 -14 -39 -16 l-34 -2 25 15 c31 18 53 19 48 3z m552 -58
c-44 -68 -48 -63 -8 10 18 33 34 56 36 50 2 -6 -11 -33 -28 -60z m-280 31
c-40 -77 -95 -130 -193 -191 -56 -35 -103 -67 -105 -72 -2 -4 -22 -8 -45 -7
l-42 0 24 17 c13 9 66 40 119 69 67 36 117 73 169 124 40 40 73 77 73 82 0 6
3 8 6 5 3 -4 1 -16 -6 -27z m527 -58 c-14 -26 -34 -59 -46 -72 -11 -13 -18
-28 -15 -33 15 -23 -127 -196 -299 -366 -93 -92 -125 -117 -175 -137 -86 -35
-89 -31 -7 10 77 38 187 129 179 149 -2 7 14 27 36 45 23 18 74 74 114 124 40
51 80 98 89 106 9 7 14 17 11 22 -3 5 0 8 6 7 6 -2 19 8 28 22 l16 25 -23 -20
c-23 -19 -23 -18 5 30 34 60 96 146 102 141 2 -2 -8 -26 -21 -53z m393 -14
c-16 -30 -30 -51 -30 -47 0 14 55 119 58 110 1 -4 -11 -33 -28 -63z m-1243 25
c-3 -3 -12 -4 -19 -1 -8 3 -5 6 6 6 11 1 17 -2 13 -5z m388 -31 c-36 -49 -156
-165 -163 -158 -5 5 177 195 186 195 3 0 -8 -17 -23 -37z m500 10 c-9 -16 -30
-44 -46 -63 -39 -45 -20 -2 23 53 35 44 46 48 23 10z m-1545 -12 c58 -12 149
-25 203 -31 121 -12 170 -34 57 -25 -135 11 -380 61 -398 80 -4 4 2 5 13 2 11
-3 67 -15 125 -26z m970 15 c0 -2 -8 -10 -17 -17 -16 -13 -17 -12 -4 4 13 16
21 21 21 13z m270 -89 c-38 -77 -131 -190 -144 -176 -5 4 99 167 151 237 41
54 38 29 -7 -61z m-1832 2 c155 -60 235 -96 182 -84 -14 4 -88 27 -165 52 -98
32 -152 55 -175 76 -22 18 -27 27 -15 22 11 -4 89 -34 173 -66z m2125 10 c-48
-97 -99 -162 -231 -293 -146 -144 -247 -221 -125 -95 96 100 296 332 341 396
20 28 38 50 39 49 2 -1 -9 -27 -24 -57z m-2570 21 c9 0 17 5 17 10 0 26 96
-13 390 -159 232 -115 423 -195 565 -236 138 -40 329 -76 424 -80 76 -3 79 -3
26 4 -94 12 -256 43 -252 48 3 2 44 -1 93 -7 49 -6 169 -9 266 -7 97 2 175 0
173 -3 -10 -16 -143 -119 -175 -135 -29 -15 -50 -17 -145 -11 -203 12 -376 53
-655 153 -129 46 -179 70 -295 143 -165 103 -165 103 -165 95 0 -3 42 -32 93
-65 50 -33 89 -60 84 -60 -15 0 -194 94 -247 130 -123 85 -150 127 -35 55 28
-18 61 -37 75 -44 75 -36 -48 41 -214 135 -38 21 -72 46 -74 54 -4 12 -1 11
15 -2 11 -10 27 -18 36 -18z m2597 -57 c-47 -89 -67 -119 -75 -111 -3 3 19 45
50 93 30 48 55 93 55 98 0 6 3 8 6 4 3 -3 -13 -41 -36 -84z m-2734 -7 c3 -12
20 -36 38 -55 33 -36 22 -34 -31 7 -18 13 -33 31 -33 40 0 8 -10 31 -22 51
l-21 36 31 -29 c18 -16 35 -39 38 -50z m2949 7 c-33 -60 -192 -240 -203 -229
-2 3 24 37 58 78 33 40 85 106 116 146 30 39 57 72 60 72 3 0 -11 -30 -31 -67z
m-471 -5 c-88 -123 -209 -258 -231 -258 -21 0 -16 10 33 64 26 28 58 63 71 79
14 15 31 27 38 27 7 0 22 15 32 33 21 34 82 107 90 107 3 0 -12 -24 -33 -52z
m-2504 -59 c0 -8 24 -22 109 -68 139 -75 215 -127 137 -95 -14 5 -17 4 -12 -5
4 -7 -14 -3 -46 9 -29 11 -54 20 -55 20 -2 0 -3 7 -3 16 0 13 8 11 47 -10 25
-15 48 -24 50 -22 9 8 -107 68 -137 71 -3 0 -15 10 -27 22 -26 26 -75 41 -81
25 -7 -22 -34 2 -53 45 -27 64 -24 68 26 32 25 -18 45 -36 45 -40z m195 -29
c309 -195 741 -392 975 -444 95 -22 200 -35 200 -25 0 4 -15 10 -32 12 -18 2
-1 3 37 3 39 0 113 3 165 8 87 8 94 8 82 -7 -23 -28 -4 -40 52 -33 28 3 80 9
116 12 l65 7 -20 -22 c-35 -40 -108 -88 -172 -114 -62 -25 -64 -25 -155 -12
-51 8 -120 23 -153 34 l-60 20 80 -7 c139 -12 302 -9 317 7 11 11 7 12 -22 5
-118 -26 -437 12 -595 71 -89 33 -162 66 -114 52 27 -9 440 -76 517 -85 39 -5
72 -5 72 -1 0 3 -33 10 -72 13 -96 10 -455 71 -566 97 -48 11 -127 36 -177 56
-79 31 -133 58 -360 177 -110 59 -224 130 -215 136 5 3 -13 25 -40 48 -28 24
-55 53 -61 65 l-12 21 29 -19 c16 -10 70 -44 119 -75z m2647 46 l22 6 -22 -33
c-12 -19 -27 -34 -34 -34 -7 0 -19 -4 -26 -9 -25 -15 -23 1 5 59 25 51 28 54
31 31 3 -22 7 -26 24 -20z m-788 -12 c-35 -42 -227 -189 -336 -257 -81 -50
-73 -24 9 30 43 28 112 83 153 122 56 54 80 70 96 67 15 -4 32 7 64 39 24 25
46 45 48 45 2 0 -14 -21 -34 -46z m-67 11 c-25 -22 -47 -32 -47 -21 0 5 63 46
70 46 3 -1 -8 -12 -23 -25z m543 -42 c-44 -63 -111 -137 -150 -168 l-25 -20
21 25 c117 139 187 220 191 220 2 0 -14 -26 -37 -57z m-1033 21 c-3 -3 -12 -4
-19 -1 -8 3 -5 6 6 6 11 1 17 -2 13 -5z m286 -13 c-4 -16 -13 -18 -62 -16
-143 6 -165 35 -27 35 87 0 94 -1 89 -19z m357 -25 c0 -3 -101 -75 -129 -91
-10 -6 -12 -4 -6 4 4 7 35 31 69 52 62 40 66 42 66 35z m25 -37 c-41 -42 -122
-95 -131 -86 -5 4 154 126 166 127 2 0 -14 -18 -35 -41z m-2105 1 c0 -14 -14
-12 -28 2 -19 19 -14 30 8 18 11 -6 20 -15 20 -20z m182 -118 c240 -102 494
-206 671 -272 92 -34 166 -64 164 -66 -7 -8 -192 37 -317 76 -148 46 -236 83
-314 132 -97 60 -186 106 -190 99 -3 -4 12 -16 32 -25 20 -10 69 -37 107 -61
162 -101 425 -194 665 -236 69 -12 177 -39 240 -61 73 -25 142 -42 188 -45 40
-3 70 -8 68 -11 -11 -10 -405 -11 -476 -1 -138 19 -244 50 -360 104 -63 29
-162 74 -220 99 -105 46 -175 89 -259 156 -73 60 -251 223 -251 231 0 4 25 -7
55 -25 30 -18 118 -61 197 -94z m2538 115 c0 -2 -12 -14 -27 -28 l-28 -24 24
28 c23 25 31 32 31 24z m-127 -23 c-3 -9 -1 -19 6 -23 8 -5 5 -13 -9 -26 -20
-18 -20 -18 -17 11 3 29 14 54 22 54 3 0 2 -7 -2 -16z m-710 -32 c-42 -36
-143 -98 -143 -88 0 10 161 126 173 126 7 -1 -7 -18 -30 -38z m316 -29 c-40
-47 -82 -84 -87 -78 -10 10 94 111 117 115 1 0 -12 -17 -30 -37z m349 7 c-11
-32 -97 -112 -189 -176 -30 -22 -55 -43 -56 -49 0 -5 -15 -19 -33 -29 -32 -19
-33 -19 -22 -1 11 20 292 283 304 284 4 1 2 -13 -4 -29z m-424 -2 c-13 -24
-37 -48 -47 -48 -6 0 2 14 18 30 31 32 41 38 29 18z m-44 -12 c0 -2 -8 -10
-17 -17 -16 -13 -17 -12 -4 4 13 16 21 21 21 13z m155 -74 c-111 -106 -262
-229 -271 -220 -4 5 93 92 189 168 31 25 56 50 57 55 0 9 78 65 90 65 3 0 -27
-31 -65 -68z m379 59 c6 -9 -85 -74 -92 -66 -4 4 70 74 80 75 4 0 9 -4 12 -9z
m-2542 -107 c29 -41 133 -124 155 -124 4 0 57 -29 117 -65 60 -36 134 -76 164
-90 30 -14 53 -28 49 -31 -10 -11 -154 57 -287 136 -108 64 -153 99 -227 173
-51 50 -93 95 -93 100 0 18 91 -56 122 -99z m263 65 c76 -44 74 -45 -27 -4
-38 15 -65 31 -62 36 8 13 13 12 89 -32z m1595 -9 c-63 -50 -90 -61 -90 -37 0
14 116 86 139 87 7 0 -15 -22 -49 -50z m-1300 -4 c105 -53 295 -156 289 -156
-14 0 -173 70 -244 108 -136 73 -173 113 -45 48z m485 -6 c33 -11 44 -17 25
-13 -19 3 -60 14 -90 24 -30 10 -41 16 -25 13 17 -2 57 -13 90 -24z m725 15
c0 -16 -70 -45 -110 -45 -36 1 -42 3 -27 11 10 6 25 8 32 5 8 -3 34 4 57 14
48 22 48 22 48 15z m194 -50 c-9 -14 -17 -25 -19 -25 -1 0 -20 -7 -41 -15 -38
-15 -38 -15 -16 2 13 10 35 28 50 40 36 30 46 29 26 -2z m-794 5 c20 -6 21 -8
5 -8 -11 0 -31 4 -45 8 -20 6 -21 8 -5 8 11 0 31 -4 45 -8z m-160 -122 c41
-11 129 -31 195 -44 l120 -24 -125 4 c-124 5 -280 31 -280 48 0 4 -47 31 -105
58 -58 27 -105 51 -105 53 0 3 51 -13 113 -35 61 -22 146 -49 187 -60z m833
75 c-37 -30 -225 -125 -232 -117 -3 3 1 9 9 14 8 5 42 29 74 54 33 25 64 42
68 40 5 -3 20 4 34 15 14 11 37 20 51 19 l25 -3 -29 -22z m207 23 c0 -2 -8
-10 -17 -17 -16 -13 -17 -12 -4 4 13 16 21 21 21 13z m324 -32 c-29 -50 -104
-102 -249 -175 -77 -38 -147 -74 -155 -79 -21 -12 -151 -70 -158 -70 -12 0
134 86 218 129 87 44 334 203 345 222 16 24 14 -1 -1 -27z m-2219 -52 c-4 -5
-75 37 -75 44 0 3 18 -5 40 -17 22 -12 38 -25 35 -27z m1785 34 c0 -2 -40 -35
-90 -72 -49 -38 -86 -72 -81 -77 11 -11 60 14 91 48 14 15 39 36 55 47 17 11
-4 -13 -45 -53 -87 -84 -194 -157 -242 -165 l-33 -5 30 17 c48 27 125 96 125
111 0 15 -18 24 -55 27 -26 1 -36 16 -10 16 8 0 15 4 15 9 0 10 43 27 90 35
19 4 58 19 85 35 49 29 65 35 65 27z m-100 -26 c-8 -5 -19 -10 -25 -10 -5 0
-3 5 5 10 8 5 20 10 25 10 6 0 3 -5 -5 -10z m319 -24 c-39 -33 -137 -97 -164
-106 -21 -7 -32 -16 -28 -23 4 -7 0 -8 -11 -4 -10 4 -15 3 -11 -3 4 -6 -28
-26 -71 -47 -43 -19 -94 -46 -114 -58 -42 -27 -80 -40 -80 -27 0 15 70 56 138
81 66 25 80 42 17 21 -46 -15 -54 -8 -18 18 70 49 386 187 342 148z m231 -23
c0 -10 -60 -47 -155 -98 -47 -25 -62 -30 -45 -15 14 12 60 40 102 61 42 21 79
43 83 49 7 12 15 13 15 3z m-255 -28 c-29 -23 -45 -31 -45 -20 0 6 62 45 70
45 3 0 -8 -11 -25 -25z m-1767 -44 c53 -27 101 -49 105 -49 17 -1 117 -46 117
-53 0 -9 185 -69 212 -69 19 0 22 -8 10 -27 -12 -19 -158 23 -202 58 -19 16
-66 42 -105 59 -123 55 -137 62 -194 96 -79 48 -57 42 57 -15z m1217 20 c-3
-6 -18 -11 -33 -10 l-27 1 30 13 c32 14 41 13 30 -4z m630 -21 c-3 -5 -12 -10
-18 -10 -7 0 -6 4 3 10 19 12 23 12 15 0z m-65 -44 c0 -2 -16 -14 -35 -26 -19
-12 -32 -27 -29 -32 4 -6 2 -8 -4 -4 -6 3 -44 -7 -84 -22 -40 -16 -91 -32
-113 -36 -38 -7 -39 -7 -18 9 12 8 51 24 87 35 36 12 94 34 128 50 67 32 68
32 68 26z m-475 -95 c-3 -5 -22 -15 -43 -22 -20 -7 -47 -18 -59 -26 -12 -8
-48 -16 -80 -19 l-58 -4 50 13 c28 7 61 19 74 26 22 12 95 38 114 40 5 1 6 -3
2 -8z m95 -39 c0 -13 -12 -22 -22 -16 -10 6 -1 24 13 24 5 0 9 -4 9 -8z m47
-18 c-3 -3 -12 -4 -19 -1 -8 3 -5 6 6 6 11 1 17 -2 13 -5z m-530 -10 c-7 -7
-138 -6 -145 1 -3 3 30 5 73 5 43 0 75 -3 72 -6z m76 -1 c-7 -2 -19 -2 -25 0
-7 3 -2 5 12 5 14 0 19 -2 13 -5z m-353 -12 c43 -6 44 -7 22 -19 -18 -11 -39
-10 -112 4 -50 9 -90 18 -90 20 0 6 131 3 180 -5z m586 -13 c5 -6 -125 -29
-153 -27 -10 1 7 9 37 19 50 17 103 20 116 8z m-237 -34 c2 -2 -45 -3 -105 -2
-82 1 -98 3 -64 8 42 7 160 2 169 -6z"/>
<path d="M1790 3739 c-99 -25 -382 -119 -397 -132 -7 -5 -13 -7 -13 -3 0 3 -8
-2 -18 -11 -10 -10 -27 -23 -38 -29 -10 -7 -16 -15 -12 -19 4 -4 13 -3 20 3
68 56 396 174 490 176 31 0 51 4 46 7 -16 10 74 16 229 15 77 -1 139 2 136 7
-2 4 -86 7 -186 6 -145 -1 -197 -5 -257 -20z"/>
<path d="M3480 3315 c0 -2 10 -15 23 -27 12 -13 44 -47 70 -76 58 -63 71 -68
26 -9 -61 79 -119 134 -119 112z"/>
<path d="M3580 2998 c0 -8 10 -23 22 -34 l21 -19 -18 30 c-26 41 -25 40 -25
23z"/>
<path d="M3632 2920 c102 -173 122 -221 112 -269 l-4 -26 10 24 c6 14 8 39 4
55 -8 40 -78 172 -111 211 -21 24 -23 25 -11 5z"/>
<path d="M3771 2650 c-2 -16 27 -92 32 -84 3 5 -3 28 -13 49 -10 22 -19 38
-19 35z"/>
<path d="M2455 3500 c27 -12 43 -12 25 0 -8 5 -22 9 -30 9 -10 0 -8 -3 5 -9z"/>
<path d="M1963 3453 c9 -2 25 -2 35 0 9 3 1 5 -18 5 -19 0 -27 -2 -17 -5z"/>
<path d="M1600 3310 c-16 -6 -6 -7 30 -3 30 3 57 7 59 9 8 7 -64 2 -89 -6z"/>
<path d="M1526 3291 c-4 -5 3 -7 14 -4 23 6 26 13 6 13 -8 0 -17 -4 -20 -9z"/>
<path d="M2188 3303 c6 -2 18 -2 25 0 6 3 1 5 -13 5 -14 0 -19 -2 -12 -5z"/>
<path d="M1985 2156 c-38 -38 -42 -73 -12 -104 37 -37 79 -34 122 8 25 24 35
43 35 65 0 43 -16 55 -72 55 -38 0 -54 -5 -73 -24z m119 -18 c8 -14 5 -23 -19
-48 -35 -37 -58 -45 -85 -30 -27 15 -23 52 8 65 12 5 22 16 22 23 0 19 60 11
74 -10z"/>
<path d="M733 2405 c0 -33 2 -45 4 -27 2 18 2 45 0 60 -2 15 -4 0 -4 -33z"/>
<path d="M922 2045 c0 -11 3 -29 8 -40 11 -25 11 1 0 35 -6 20 -8 21 -8 5z"/>
<path d="M1070 1665 c0 -5 12 -23 26 -40 14 -16 21 -21 15 -10 -14 30 -40 61
-41 50z"/>
<path d="M1478 1393 c6 -2 18 -2 25 0 6 3 1 5 -13 5 -14 0 -19 -2 -12 -5z"/>
<path d="M2253 1153 c15 -2 39 -2 55 0 15 2 2 4 -28 4 -30 0 -43 -2 -27 -4z"/>
<path d="M3366 544 c-9 -9 -14 -19 -11 -22 3 -3 13 2 22 11 9 9 14 19 11 22
-3 3 -13 -2 -22 -11z"/>
<path d="M962 873 c2 -10 12 -22 23 -28 11 -5 72 -40 136 -77 326 -188 476
-245 793 -304 174 -32 202 -35 321 -31 128 5 175 12 175 27 0 4 -30 1 -67 -6
-123 -24 -224 -17 -498 36 -169 33 -281 69 -442 145 -144 68 -380 202 -411
232 -27 27 -35 29 -30 6z"/>
<path d="M2389 253 c-12 -15 -12 -16 4 -10 10 4 23 7 28 7 5 0 9 5 9 10 0 16
-26 12 -41 -7z"/>
<path d="M868 573 c48 -39 237 -137 394 -205 274 -118 481 -180 591 -177 29 1
39 4 22 5 -162 19 -354 74 -566 165 -130 55 -329 150 -354 168 -27 20 -107 60
-87 44z"/>
<path d="M3004 424 c-18 -14 -18 -15 4 -4 12 6 22 13 22 15 0 8 -5 6 -26 -11z"/>
<path d="M2700 270 c-8 -5 -10 -10 -5 -10 6 0 17 5 25 10 8 5 11 10 5 10 -5 0
-17 -5 -25 -10z"/>
</g>
</svg>
