<?xml version="1.0" standalone="no"?>
<svg version="1.0" xmlns="http://www.w3.org/2000/svg"
 width="350px" viewBox="0 0 826.000000 826.000000"
 preserveAspectRatio="xMidYMid meet">

<g transform="translate(0.000000,826.000000) scale(0.100000,-0.100000)"
fill="#1e90ff" stroke="#87c3ff">
<path d="M2602 7790 c-24 -11 -57 -29 -73 -40 -23 -17 -37 -20 -73 -15 -162
25 -354 -193 -380 -430 -4 -39 -4 -43 3 -18 11 44 57 132 85 164 12 14 41 36
64 49 23 13 42 27 42 32 0 4 5 8 10 8 6 0 1 -19 -11 -42 -27 -52 -69 -164 -68
-181 0 -6 10 15 22 48 13 33 40 87 61 119 26 41 34 61 26 66 -7 5 -3 9 12 13
36 10 39 8 28 -12 -21 -39 -9 -38 33 4 37 37 122 95 140 95 4 0 -9 -21 -29
-47 -34 -44 -74 -114 -74 -130 0 -4 14 15 31 43 59 94 119 144 181 151 22 3
72 20 111 38 113 52 144 59 207 45 30 -6 63 -12 72 -13 9 -1 14 -5 12 -9 -3
-4 -1 -8 4 -8 5 0 37 -16 71 -37 60 -35 73 -54 49 -70 -7 -4 -22 -24 -32 -43
-11 -19 -52 -72 -90 -116 -39 -45 -83 -100 -98 -122 -18 -27 -43 -48 -75 -62
-59 -26 -82 -46 -77 -68 3 -12 -11 -24 -53 -44 -32 -15 -49 -28 -38 -28 11 0
35 9 53 20 17 11 32 16 32 11 0 -5 -3 -11 -7 -13 -5 -1 -25 -28 -46 -58 -35
-53 -52 -68 -107 -97 l-25 -13 33 0 c17 0 32 -5 32 -11 0 -6 -7 -8 -16 -5 -9
4 -1 -11 18 -32 20 -22 38 -45 41 -53 5 -12 7 -12 16 1 14 19 31 78 31 107 0
12 8 24 18 27 48 16 112 105 127 176 4 19 22 51 40 70 18 19 52 64 75 100 54
81 145 170 214 209 64 37 88 62 77 80 -5 7 -48 24 -96 37 -49 14 -125 43 -169
65 -84 41 -135 49 -193 28 -25 -8 -36 -7 -64 10 -44 27 -119 27 -177 1z"/>
<path d="M3777 7731 c2 -10 10 -18 18 -18 16 0 9 23 -10 30 -8 4 -11 -1 -8
-12z"/>
<path d="M2878 7656 c-31 -25 -60 -51 -64 -58 -4 -7 14 5 41 28 28 23 64 48
80 57 17 9 23 16 15 17 -8 0 -40 -20 -72 -44z"/>
<path d="M3666 7689 c4 -8 9 -20 11 -28 2 -17 24 -32 35 -25 4 3 8 0 8 -7 0
-7 3 -10 6 -6 8 8 -19 45 -47 65 -17 12 -20 12 -13 1z"/>
<path d="M3940 7615 c-6 -8 -9 -23 -5 -35 10 -31 59 -24 63 9 6 37 -34 55 -58
26z"/>
<path d="M3566 7588 c5 -7 9 -21 9 -30 2 -22 5 -26 30 -28 37 -4 56 0 50 10
-4 6 -11 7 -17 4 -6 -4 -8 -2 -4 4 3 5 -9 20 -28 31 -38 24 -51 27 -40 9z"/>
<path d="M3038 7573 c6 -2 18 -2 25 0 6 3 1 5 -13 5 -14 0 -19 -2 -12 -5z"/>
<path d="M5472 7512 c-26 -26 -63 -78 -82 -115 -38 -76 -145 -215 -185 -241
-15 -10 -23 -22 -19 -29 4 -7 4 -9 -1 -5 -7 7 -65 -17 -65 -27 0 -2 41 7 91
21 50 13 93 24 95 24 3 0 3 4 0 9 -3 4 5 6 17 4 28 -4 223 80 220 95 -2 6 3 9
11 6 33 -13 166 129 166 177 0 11 -2 11 -10 -1 -8 -12 -10 -11 -10 8 0 12 -6
22 -12 22 -7 1 -44 16 -83 35 l-69 33 -41 -19 -40 -19 40 35 c22 19 36 34 32
35 -4 0 -29 -21 -55 -48z"/>
<path d="M4251 7443 c1 -83 -4 -113 -30 -194 -17 -53 -31 -101 -31 -107 0 -5
-16 -33 -35 -62 -28 -41 -35 -62 -35 -99 0 -37 -5 -52 -24 -70 -59 -56 -67
-120 -25 -203 22 -43 32 -49 23 -14 -3 13 0 51 7 83 12 58 12 58 22 26 5 -17
23 -47 39 -65 l29 -33 -22 32 c-27 40 -42 113 -23 113 9 0 14 11 14 29 0 16 9
48 20 72 l19 44 12 -33 c16 -46 19 -36 8 22 -6 35 -6 52 2 57 6 3 12 41 13 85
1 44 10 106 19 139 53 182 58 195 80 191 41 -8 130 -60 160 -92 29 -32 37 -50
47 -114 7 -41 19 -90 27 -108 15 -32 15 -109 -1 -157 -3 -11 5 3 18 30 l24 50
7 -37 c4 -20 4 -47 0 -60 -19 -67 -19 -64 -1 -49 37 31 31 0 -21 -101 -22 -45
-6 -32 23 17 14 25 27 45 29 45 2 0 1 -30 -1 -67 -4 -47 -13 -82 -30 -112 -13
-24 -22 -46 -20 -48 5 -5 96 106 96 117 0 13 69 33 88 24 14 -6 87 -21 130
-26 14 -2 17 -28 2 -28 -5 0 -10 -5 -10 -11 0 -5 4 -8 9 -5 20 13 145 25 157
15 7 -5 23 -12 35 -14 13 -3 25 -9 27 -15 2 -5 12 -10 21 -10 21 0 51 -30 51
-51 0 -11 18 -14 85 -14 98 0 117 -10 91 -50 -15 -22 -32 -37 -112 -93 -11 -7
4 -1 31 14 57 31 115 82 115 102 0 7 29 -12 64 -44 35 -31 67 -57 72 -56 13 0
65 -60 98 -113 l29 -47 -59 -59 c-32 -32 -55 -59 -50 -59 4 0 1 -7 -8 -15 -8
-8 -17 -15 -21 -15 -3 0 -18 -11 -33 -25 -50 -46 -91 -59 -196 -63 -78 -3
-105 -8 -125 -23 -22 -16 -31 -17 -66 -8 -47 13 -112 44 -140 68 -19 15 -19
15 -6 -2 8 -10 42 -34 75 -53 78 -46 79 -47 31 -39 -60 11 -137 48 -186 91
l-44 38 39 -42 c22 -22 68 -56 104 -75 63 -34 64 -34 33 -40 -16 -4 -51 0 -76
7 -46 14 -61 5 -29 -18 19 -15 10 -41 -16 -43 -11 -1 -18 2 -15 7 3 6 -1 7 -9
4 -20 -8 -90 30 -144 79 l-47 41 40 -43 c22 -24 57 -56 77 -71 l38 -28 -54 -6
c-41 -6 -62 -3 -85 8 -16 9 -38 16 -47 16 -10 0 -27 7 -38 16 -12 9 5 -9 37
-40 70 -68 141 -106 212 -113 67 -7 118 10 169 57 38 34 47 38 114 42 85 6
135 35 171 98 20 35 27 40 59 40 48 0 90 27 171 108 44 45 95 83 152 114 124
68 126 83 16 146 -68 39 -95 60 -242 182 -33 28 -76 56 -95 62 -22 6 -46 26
-65 52 -43 58 -94 81 -180 81 -64 0 -74 3 -108 31 -41 33 -96 54 -143 54 -25
-1 -91 -20 -147 -45 -16 -7 -17 -3 -11 33 10 64 -4 129 -35 165 -21 24 -29 46
-34 91 -7 67 -28 104 -74 126 -21 10 -37 30 -51 62 -17 40 -28 51 -78 76 -33
17 -85 51 -118 76 -32 25 -64 46 -72 46 -10 0 -13 -22 -13 -97z"/>
<path d="M5963 7498 c-22 -24 -64 -78 -93 -122 -28 -43 -83 -111 -121 -150
-38 -40 -65 -77 -61 -81 4 -5 2 -5 -5 -1 -14 7 -110 -62 -105 -76 1 -5 -2 -7
-8 -3 -5 3 -18 1 -27 -4 -16 -9 -15 -10 7 -11 41 0 182 27 306 59 154 41 288
105 359 171 55 53 96 120 94 156 -1 10 -5 3 -11 -16 -5 -20 -20 -49 -34 -65
l-24 -30 17 32 c29 52 11 83 -64 109 -34 11 -68 26 -75 31 -7 6 -37 14 -66 18
-28 4 -49 11 -46 16 11 19 -3 7 -43 -33z m37 19 c0 -2 -15 -16 -32 -33 l-33
-29 29 33 c28 30 36 37 36 29z"/>
<path d="M3888 7499 c-39 -22 -5 -79 34 -58 21 11 24 39 6 57 -14 14 -18 14
-40 1z"/>
<path d="M4003 7494 c-8 -22 10 -49 32 -49 10 0 22 7 28 16 15 24 1 49 -28 49
-15 0 -28 -7 -32 -16z"/>
<path d="M1834 7486 c-11 -28 1 -51 25 -51 32 0 49 28 32 49 -17 20 -50 21
-57 2z"/>
<path d="M5722 7475 c0 -16 2 -22 5 -12 2 9 2 23 0 30 -3 6 -5 -1 -5 -18z"/>
<path d="M1408 7443 c7 -3 16 -2 19 1 4 3 -2 6 -13 5 -11 0 -14 -3 -6 -6z"/>
<path d="M2767 7399 c7 -7 15 -10 18 -7 3 3 -2 9 -12 12 -14 6 -15 5 -6 -5z"/>
<path d="M1751 7376 c-16 -20 3 -56 29 -56 26 0 45 36 29 56 -6 8 -19 14 -29
14 -10 0 -23 -6 -29 -14z"/>
<path d="M2813 7383 c9 -2 23 -2 30 0 6 3 -1 5 -18 5 -16 0 -22 -2 -12 -5z"/>
<path d="M1886 7364 c-10 -9 -15 -23 -12 -31 3 -8 6 -17 6 -19 0 -2 11 -4 25
-4 29 0 43 25 28 48 -14 23 -29 25 -47 6z"/>
<path d="M3952 7358 c-36 -36 7 -91 54 -69 42 19 26 81 -21 81 -12 0 -26 -5
-33 -12z"/>
<path d="M5075 7347 c-8 -13 -26 -52 -41 -86 -30 -76 -48 -105 -88 -149 l-31
-33 68 30 c154 69 227 137 233 219 2 35 1 40 -4 17 -5 -20 -10 -26 -15 -17 -5
7 -13 10 -18 7 -5 -4 -9 -1 -9 6 0 7 -3 10 -6 7 -3 -4 -21 0 -40 8 -32 13 -34
13 -49 -9z m25 3 c0 -5 -5 -10 -11 -10 -5 0 -7 5 -4 10 3 6 8 10 11 10 2 0 4
-4 4 -10z"/>
<path d="M1377 7325 c12 -8 29 -12 38 -9 22 9 0 24 -35 24 l-24 0 21 -15z"/>
<path d="M3282 7328 c-18 -18 -15 -43 8 -63 17 -15 24 -16 45 -7 43 20 28 82
-20 82 -12 0 -26 -5 -33 -12z"/>
<path d="M6385 7222 c-27 -9 -59 -24 -70 -32 -87 -64 -143 -114 -138 -123 3
-6 1 -7 -5 -3 -5 3 -44 -12 -85 -34 -41 -22 -107 -48 -147 -59 l-73 -18 79
-12 c391 -60 664 18 664 189 0 35 -5 52 -22 68 -49 45 -118 53 -203 24z"/>
<path d="M1306 7222 c6 -4 16 -17 23 -30 10 -18 19 -22 50 -20 46 3 44 11 -9
38 -37 19 -89 29 -64 12z"/>
<path d="M2181 7214 c0 -11 3 -14 6 -6 3 7 2 16 -1 19 -3 4 -6 -2 -5 -13z"/>
<path d="M3720 7201 c-73 -39 -78 -41 -83 -29 -3 7 -6 -5 -6 -27 -2 -117 74
-208 189 -229 32 -5 34 -5 16 9 -11 8 -15 15 -9 15 17 0 26 52 11 62 -10 7 -9
11 5 19 23 13 22 55 -4 104 -36 70 -79 97 -119 76z"/>
<path d="M1919 7133 c13 -25 0 -69 -27 -90 -13 -10 -9 -9 18 1 30 13 35 19 33
47 0 17 -9 39 -18 48 -16 15 -17 15 -6 -6z"/>
<path d="M3105 7105 c-16 -100 30 -190 121 -235 59 -29 141 -32 192 -6 31 16
45 30 20 21 -8 -3 -26 21 -46 60 -22 42 -46 72 -68 86 -19 11 -34 28 -35 37 0
11 -3 12 -6 5 -3 -10 -8 -9 -20 2 -8 8 -23 15 -34 15 -11 0 -33 7 -50 15 -16
9 -34 13 -39 10 -6 -4 -14 4 -19 17 -7 20 -10 16 -16 -27z"/>
<path d="M2603 7123 c15 -2 37 -2 50 0 12 2 0 4 -28 4 -27 0 -38 -2 -22 -4z"/>
<path d="M5254 6995 c20 -25 42 -68 50 -95 19 -64 32 -87 57 -101 16 -8 19 -8
15 0 -4 6 1 14 11 17 10 3 30 12 45 20 24 13 27 13 31 -3 3 -10 5 -5 6 12 1
32 -19 68 -54 97 -24 21 -140 83 -173 93 -21 6 -20 3 12 -40z"/>
<path d="M1792 6975 c-22 -19 -41 -32 -44 -29 -3 3 -37 -15 -74 -39 -99 -63
-138 -125 -168 -267 -9 -41 -29 -129 -45 -195 -16 -66 -28 -121 -26 -123 2 -2
25 24 52 59 118 151 212 229 367 304 140 67 241 88 395 82 69 -2 137 -8 151
-11 15 -4 12 -1 -9 8 -18 9 -43 16 -55 17 -11 0 -15 3 -8 6 25 10 11 31 -25
37 -48 8 -218 8 -258 0 -140 -28 -346 -148 -482 -282 -46 -44 -83 -77 -83 -72
0 4 17 51 38 102 55 138 122 240 227 346 96 95 113 117 47 57z"/>
<path d="M5592 6951 c6 -11 16 -17 22 -14 5 3 6 2 3 -4 -4 -6 2 -29 13 -51 11
-23 20 -49 20 -59 0 -21 36 -103 45 -103 3 0 4 4 0 9 -3 5 -1 12 5 16 5 3 10
1 10 -5 0 -8 15 -9 47 -4 42 6 46 5 40 -12 -7 -18 -6 -18 8 0 19 25 19 40 -2
83 -18 39 -91 97 -171 137 -47 24 -51 24 -40 7z"/>
<path d="M3020 6912 c-23 -11 -51 -42 -81 -87 -26 -38 -69 -91 -97 -117 -28
-27 -47 -48 -41 -48 5 0 43 7 84 15 130 27 193 62 225 125 26 51 25 76 -5 105
-29 30 -39 30 -85 7z"/>
<path d="M4509 6893 c-13 -16 -12 -17 4 -4 9 7 17 15 17 17 0 8 -8 3 -21 -13z"/>
<path d="M5888 6887 c7 -7 19 -29 27 -48 11 -23 14 -26 11 -10 -5 23 -3 22 24
-8 35 -38 37 -51 10 -58 -14 -4 -20 -13 -19 -32 0 -23 1 -24 9 -6 10 25 16 11
23 -53 7 -59 37 -90 91 -94 46 -3 51 -17 15 -35 -14 -7 -18 -13 -9 -13 51 0
75 75 46 144 -17 42 -85 118 -97 110 -5 -3 -8 0 -7 7 2 6 -24 34 -57 60 -56
46 -90 65 -67 36z m203 -220 c-16 -16 -26 0 -10 19 9 11 15 12 17 4 2 -6 -1
-17 -7 -23z"/>
<path d="M6605 6860 c-16 -4 -64 -21 -105 -36 -61 -23 -92 -28 -170 -28 -52
-1 -106 3 -120 7 -49 17 136 -105 225 -148 180 -87 305 -81 365 17 53 87 -8
181 -122 193 -24 2 -56 0 -73 -5z"/>
<path d="M1367 6790 c-37 -36 -61 -129 -62 -235 0 -96 17 -185 37 -185 4 0 8
-6 8 -14 0 -11 -10 -13 -39 -9 -74 10 -238 -55 -297 -119 -17 -18 -41 -51 -53
-72 -25 -44 -29 -46 65 27 105 80 267 136 361 123 l41 -5 -24 42 c-55 100 -67
259 -29 401 8 32 14 60 13 61 -2 1 -11 -5 -21 -15z"/>
<path d="M5931 6784 c0 -11 3 -14 6 -6 3 7 2 16 -1 19 -3 4 -6 -2 -5 -13z"/>
<path d="M704 6766 c-45 -20 -59 -69 -28 -100 23 -24 58 -19 95 11 31 26 32
26 60 10 16 -9 29 -14 29 -11 0 16 -33 65 -56 83 -31 24 -56 26 -100 7z"/>
<path d="M4534 6728 l-19 -23 23 19 c21 18 27 26 19 26 -2 0 -12 -10 -23 -22z"/>
<path d="M6179 6733 c18 -35 13 -164 -8 -234 -29 -99 -31 -113 -20 -153 15
-56 50 -86 97 -86 73 0 120 66 110 154 -6 50 -47 148 -59 140 -5 -3 -6 1 -3 9
7 18 -75 139 -88 131 -6 -4 -8 -3 -5 2 3 5 -4 21 -14 34 -18 22 -19 22 -10 3z
m28 -125 c-3 -8 -6 -5 -6 6 -1 11 2 17 5 13 3 -3 4 -12 1 -19z m77 -74 c4 -10
1 -14 -6 -12 -15 5 -23 28 -10 28 5 0 13 -7 16 -16z m32 -23 c-4 -5 0 -12 6
-14 8 -3 6 -6 -4 -6 -18 -1 -24 10 -11 22 9 10 15 8 9 -2z m14 -76 c-7 -8 -20
-15 -29 -15 -12 0 -10 6 9 24 26 24 41 17 20 -9z m17 -37 c-3 -7 -5 -2 -5 12
0 14 2 19 5 13 2 -7 2 -19 0 -25z"/>
<path d="M4941 6665 c-23 -30 -40 -55 -37 -55 8 0 88 101 84 106 -3 2 -24 -20
-47 -51z"/>
<path d="M5086 6679 c-8 -20 -28 -52 -43 -70 l-27 -34 28 25 c35 32 69 87 63
103 -3 6 -12 -4 -21 -24z"/>
<path d="M724 6609 c-42 -12 -57 -33 -52 -70 4 -27 0 -32 -31 -49 -113 -58
-146 -197 -66 -277 53 -53 125 -39 125 23 0 30 -17 23 -30 -12 -20 -51 -70 -9
-70 58 0 29 8 47 33 74 44 48 95 63 184 57 64 -5 78 -3 127 21 30 15 57 34 60
43 9 22 -14 53 -62 87 -75 51 -146 66 -218 45z"/>
<path d="M6400 6559 c11 -25 26 -82 34 -125 8 -44 15 -72 16 -64 1 16 60 68
60 53 0 -4 -8 -13 -18 -19 -26 -17 -39 -71 -52 -214 -12 -135 -6 -190 30 -259
24 -48 59 -71 107 -71 48 0 78 20 104 71 27 54 34 126 20 197 -14 66 -73 188
-90 185 -5 -2 -8 3 -6 10 6 15 -72 119 -159 212 l-66 70 20 -46z m85 -109 c3
-5 2 -10 -4 -10 -5 0 -13 5 -16 10 -3 6 -2 10 4 10 5 0 13 -4 16 -10z"/>
<path d="M4864 6568 l-19 -23 23 19 c12 11 22 21 22 23 0 8 -8 2 -26 -19z"/>
<path d="M2998 6570 c29 -4 63 -15 77 -24 13 -9 32 -16 41 -16 9 0 43 -14 74
-32 66 -36 106 -92 94 -131 -10 -33 -50 -69 -79 -71 -23 -1 -24 -2 -8 -14 50
-36 122 -34 153 6 36 46 17 135 -42 188 -59 54 -219 106 -320 103 l-43 -1 53
-8z"/>
<path d="M3772 6544 c-28 -19 -28 -49 -1 -67 27 -19 58 -10 65 19 11 43 -29
73 -64 48z"/>
<path d="M5435 6530 c-3 -11 -25 -31 -48 -45 -23 -14 -37 -25 -30 -25 6 0 31
15 54 33 42 32 60 57 41 57 -6 0 -13 -9 -17 -20z"/>
<path d="M1972 6525 c137 -35 177 -66 552 -440 39 -39 91 -85 116 -101 47 -32
110 -58 118 -49 3 3 0 5 -6 5 -19 0 -64 109 -68 165 -2 27 -9 52 -15 54 -5 1
-22 13 -37 26 -23 20 -24 25 -13 39 11 13 11 19 1 31 -7 8 -18 15 -25 15 -7 0
-20 18 -29 40 -10 25 -26 44 -40 50 -13 5 -25 13 -27 18 -2 6 -41 33 -87 62
-58 35 -100 54 -140 61 -31 5 -78 14 -103 20 -26 6 -73 9 -105 9 -33 -1 -79 1
-104 4 -40 5 -39 4 12 -9z"/>
<path d="M5210 6465 c-14 -8 -20 -14 -14 -15 5 0 19 7 30 15 24 18 16 19 -16
0z"/>
<path d="M5053 6383 c9 -2 23 -2 30 0 6 3 -1 5 -18 5 -16 0 -22 -2 -12 -5z"/>
<path d="M7007 6367 c-3 -9 -12 -15 -19 -12 -23 8 -61 -30 -63 -64 -1 -17 3
-31 9 -31 6 0 2 -7 -8 -15 -11 -8 -15 -15 -10 -15 27 0 110 117 101 143 -2 6
-6 4 -10 -6z"/>
<path d="M5495 6320 c27 -12 43 -12 25 0 -8 5 -22 9 -30 9 -10 0 -8 -3 5 -9z"/>
<path d="M5927 6306 c-8 -20 1 -43 19 -50 26 -10 45 5 42 33 -2 20 -9 27 -29
29 -17 2 -29 -3 -32 -12z"/>
<path d="M1875 6300 c-91 -19 -153 -59 -207 -135 -45 -64 -60 -109 -61 -195
-1 -63 3 -77 42 -154 23 -46 49 -87 57 -90 8 -3 14 -12 14 -21 0 -8 6 -15 13
-15 8 0 19 -10 26 -22 9 -18 10 -19 5 -3 -42 137 -44 265 -3 265 14 0 23 -16
40 -72 27 -96 27 -96 28 -76 1 9 -8 45 -19 80 -18 59 -19 64 -3 76 15 10 20 8
40 -15 12 -16 37 -56 55 -90 18 -34 34 -60 36 -58 5 5 -48 107 -75 143 -25 33
-24 52 4 52 8 0 61 -46 118 -103 77 -76 104 -111 107 -133 2 -21 8 -29 23 -29
26 0 32 33 7 43 -10 4 -46 39 -79 77 -33 39 -83 88 -111 110 -89 70 -63 92 48
41 41 -18 104 -42 140 -51 36 -10 72 -24 81 -32 25 -21 51 -17 47 10 -3 19 -8
22 -38 19 -40 -3 -141 26 -233 67 -70 31 -80 40 -68 59 6 10 19 10 57 2 27 -6
88 -10 136 -9 48 2 90 0 94 -4 4 -4 16 -7 26 -7 13 0 18 7 18 25 0 18 -5 25
-19 25 -11 0 -21 -5 -23 -12 -6 -16 -153 -22 -221 -8 -49 10 -57 15 -57 34 0
20 7 24 73 33 39 7 85 9 100 6 26 -5 28 -3 25 17 -4 29 -21 36 -41 15 -15 -15
-97 -35 -142 -35 -30 0 -41 38 -17 57 27 20 119 53 175 61 l52 8 -30 16 c-25
13 -169 41 -193 37 -4 -1 -25 -5 -47 -9z"/>
<path d="M1350 6244 c-112 -90 -123 -99 -139 -108 -28 -16 -146 -118 -150
-130 -2 -6 -12 -20 -22 -31 -44 -49 -61 -117 -84 -340 l-4 -40 9 44 c25 117
78 233 158 346 56 79 169 201 179 192 3 -4 1 -12 -4 -19 -11 -15 -52 -148 -80
-258 -31 -126 -18 -440 18 -440 5 0 9 -18 9 -40 0 -22 4 -40 10 -40 5 0 17
-14 25 -30 9 -17 20 -28 25 -25 6 4 10 -3 10 -14 0 -22 48 -61 68 -54 6 3 10
-1 9 -9 -2 -7 -2 -10 0 -6 2 4 18 -7 35 -25 l30 -32 -30 40 c-202 266 -224
646 -57 959 31 58 53 106 48 105 -4 0 -33 -20 -63 -45z"/>
<path d="M5804 6266 c-11 -28 1 -51 25 -51 32 0 49 28 32 49 -17 20 -50 21
-57 2z"/>
<path d="M7140 6244 c0 -5 -10 -14 -22 -19 -11 -6 -33 -25 -47 -44 l-26 -35
32 19 c34 20 78 73 69 82 -3 4 -6 2 -6 -3z"/>
<path d="M2645 6211 c-3 -5 -1 -12 5 -16 5 -3 10 1 10 9 0 18 -6 21 -15 7z"/>
<path d="M3045 6194 c-80 -21 -80 -20 -82 -76 -1 -29 2 -45 6 -35 6 16 8 16
26 3 11 -9 36 -16 55 -16 26 0 31 -3 20 -10 -11 -7 -8 -10 16 -10 19 0 34 -6
38 -15 3 -8 12 -15 21 -15 8 0 15 -4 15 -10 0 -5 -4 -10 -10 -10 -5 0 -10 -6
-10 -14 0 -10 20 -15 79 -17 57 -3 84 -9 98 -22 11 -9 25 -17 31 -17 13 0 27
-11 85 -64 26 -23 34 -39 31 -53 -5 -16 1 -21 26 -27 18 -3 46 -6 62 -6 33 0
126 -28 133 -41 12 -18 -67 -78 -142 -108 -43 -16 -73 -30 -66 -31 28 -1 175
64 202 89 l30 28 19 -21 c10 -12 40 -51 67 -88 28 -37 59 -71 71 -76 14 -7 26
-30 38 -78 10 -38 25 -79 32 -91 13 -20 12 -23 -9 -34 -79 -42 -95 -53 -135
-89 -30 -26 -135 -78 -184 -90 -35 -9 -62 -9 -115 0 -109 20 -161 23 -194 11
-28 -10 -39 -7 -91 21 -34 18 -84 58 -120 96 -33 36 -56 57 -50 46 19 -35 85
-106 135 -145 60 -48 38 -51 -44 -8 -54 29 -128 98 -172 159 -12 17 -11 12 3
-15 26 -50 76 -103 136 -147 33 -23 41 -34 30 -36 -20 -4 -145 35 -165 51 -19
15 -9 -2 28 -52 22 -29 23 -34 7 -28 -10 4 -25 2 -32 -4 -20 -17 -93 30 -148
94 -24 28 -54 63 -66 77 -12 14 -18 18 -14 10 12 -24 84 -122 110 -150 l24
-26 -33 -2 c-44 -4 -112 18 -144 45 -14 13 -32 23 -38 23 -7 0 -20 10 -29 23
-9 12 -4 -2 11 -32 15 -29 50 -77 79 -105 129 -131 268 -157 391 -72 45 31 50
32 83 20 87 -31 180 -11 254 56 46 42 55 46 89 42 63 -7 104 7 188 64 105 71
137 87 244 119 106 32 135 48 135 76 0 13 -38 56 -102 117 -55 53 -131 138
-169 188 -75 101 -120 148 -161 165 -17 7 -29 21 -33 39 -19 85 -114 157 -220
168 -64 7 -66 8 -103 56 -21 29 -56 60 -82 73 -44 23 -144 37 -185 27z"/>
<path d="M5906 6184 c-10 -9 -15 -23 -12 -31 3 -8 6 -17 6 -19 0 -2 11 -4 25
-4 29 0 43 25 28 48 -14 23 -29 25 -47 6z"/>
<path d="M4610 6177 c0 -2 15 -16 33 -33 l32 -29 -29 33 c-28 30 -36 37 -36
29z"/>
<path d="M7171 6073 c-13 -28 -1 -30 22 -5 21 23 21 29 3 29 -8 0 -19 -11 -25
-24z"/>
<path d="M4452 6044 c26 -28 39 -54 46 -89 6 -27 14 -61 18 -75 5 -19 0 -15
-24 17 -39 52 -61 67 -28 18 14 -20 28 -45 31 -56 4 -10 11 -19 16 -19 5 0 9
-7 9 -17 0 -14 -3 -14 -22 3 -21 19 -21 19 -13 -1 5 -11 10 -42 12 -70 l3 -50
-20 38 c-11 20 -22 37 -24 37 -1 0 6 -26 17 -57 15 -46 17 -64 9 -88 -6 -16
-12 -59 -13 -95 -2 -42 -9 -76 -21 -95 -10 -16 -21 -37 -24 -46 -5 -14 -106
-79 -122 -79 -7 0 -39 60 -93 174 -21 46 -33 89 -35 125 -2 31 -8 57 -14 59
-5 2 -11 22 -11 45 -2 42 -2 42 -8 8 l-6 -34 -22 43 c-13 23 -23 55 -23 71 0
20 -5 29 -16 29 -14 0 -16 8 -11 47 5 47 5 48 -10 19 -15 -28 -15 -28 -30 -7
-16 23 -20 70 -9 92 4 8 0 5 -8 -6 -49 -60 -40 -155 19 -202 22 -18 35 -37 35
-51 0 -33 28 -89 55 -110 12 -10 26 -29 30 -42 4 -14 17 -43 30 -65 36 -65 56
-127 63 -200 4 -38 12 -70 19 -72 6 -2 31 17 55 42 24 25 64 59 90 76 44 28
78 78 78 113 0 8 13 22 29 30 34 18 51 60 51 127 0 30 8 64 21 89 49 94 -17
261 -134 341 l-32 22 37 -39z"/>
<path d="M2584 5947 c5 -15 2 -17 -14 -12 -11 3 -28 2 -37 -4 -10 -6 -15 -11
-10 -11 4 0 -2 -17 -13 -37 -11 -21 -20 -43 -20 -49 0 -15 -49 -117 -76 -160
-31 -48 -116 -154 -125 -154 -4 0 -22 -12 -39 -27 -26 -22 -31 -32 -28 -59 2
-19 -1 -36 -7 -39 -5 -3 15 -3 45 0 221 23 390 253 350 476 -7 35 -16 71 -22
79 -8 12 -8 12 -4 -3z"/>
<path d="M3155 5884 l-60 -55 67 48 c62 44 80 63 61 63 -5 0 -35 -25 -68 -56z"/>
<path d="M3350 5900 c0 -6 -19 -32 -42 -58 -44 -48 -29 -42 30 12 31 29 42 56
22 56 -5 0 -10 -5 -10 -10z"/>
<path d="M4420 5816 c0 -2 8 -10 18 -17 15 -13 16 -12 3 4 -13 16 -21 21 -21
13z"/>
<path d="M1814 5746 c-8 -21 3 -36 27 -36 15 0 20 6 17 22 -4 27 -35 37 -44
14z"/>
<path d="M1947 5740 c4 -14 6 -40 5 -57 -2 -27 2 -33 18 -33 29 0 38 30 15 47
-11 7 -25 26 -32 41 -12 25 -12 25 -6 2z"/>
<path d="M2858 5733 c6 -2 18 -2 25 0 6 3 1 5 -13 5 -14 0 -19 -2 -12 -5z"/>
<path d="M1459 5684 c17 -26 28 -51 25 -55 -3 -5 0 -9 5 -9 6 0 11 -6 11 -14
0 -8 20 -44 44 -80 24 -35 46 -72 49 -81 4 -8 15 -18 24 -22 10 -4 26 -17 36
-29 25 -32 141 -106 214 -137 33 -14 89 -31 123 -38 54 -10 67 -10 94 3 45 23
180 46 208 35 21 -7 21 -6 -6 22 -34 36 -141 93 -222 120 -33 10 -108 40 -169
66 -60 26 -137 55 -170 64 -90 26 -161 69 -232 139 l-64 64 30 -48z"/>
<path d="M612 5668 c-30 -30 3 -77 40 -57 30 16 16 69 -17 69 -6 0 -16 -5 -23
-12z"/>
<path d="M3719 5623 c-8 -9 -27 -25 -44 -36 -16 -10 -21 -16 -10 -13 27 9 85
49 85 59 0 13 -17 8 -31 -10z"/>
<path d="M3415 5590 c-13 -5 -14 -9 -5 -9 8 0 24 4 35 9 13 5 14 9 5 9 -8 0
-24 -4 -35 -9z"/>
<path d="M494 5576 c-11 -28 4 -48 33 -44 22 2 28 8 28 28 0 20 -6 26 -28 28
-18 2 -29 -2 -33 -12z"/>
<path d="M941 5563 c0 -13 -5 -23 -11 -23 -5 0 -10 -6 -10 -14 0 -9 -13 -16
-32 -19 -28 -3 -27 -4 10 -5 47 -2 56 8 49 55 -3 22 -4 23 -6 6z"/>
<path d="M3333 5573 c9 -2 25 -2 35 0 9 3 1 5 -18 5 -19 0 -27 -2 -17 -5z"/>
<path d="M3618 5563 c7 -3 16 -2 19 1 4 3 -2 6 -13 5 -11 0 -14 -3 -6 -6z"/>
<path d="M3538 5553 c12 -2 32 -2 45 0 12 2 2 4 -23 4 -25 0 -35 -2 -22 -4z"/>
<path d="M613 5524 c-6 -17 6 -45 23 -51 21 -7 47 23 40 45 -9 27 -53 30 -63
6z"/>
<path d="M3729 5361 c13 -12 28 -21 35 -21 12 0 -5 14 -39 31 -16 8 -15 6 4
-10z"/>
<path d="M3550 5356 c0 -2 8 -10 18 -17 15 -13 16 -12 3 4 -13 16 -21 21 -21
13z"/>
<path d="M676 5228 c-82 -125 -107 -311 -57 -423 19 -42 67 -95 87 -95 6 0 18
-28 28 -62 23 -81 85 -148 138 -148 30 0 38 -5 48 -30 20 -48 63 -77 141 -94
39 -9 102 -32 140 -51 38 -19 80 -35 95 -35 30 0 30 -6 -6 125 -19 71 -21 93
-14 190 4 61 8 130 9 155 0 25 8 61 17 81 36 77 35 83 -24 119 -29 18 -48 26
-42 19 14 -17 10 -43 -12 -84 -16 -30 -16 -34 6 -99 15 -47 20 -78 15 -103 -3
-20 -6 -77 -6 -127 0 -109 -19 -203 -40 -198 -8 2 -41 8 -74 13 -55 9 -125 38
-150 63 -20 20 -75 105 -75 115 0 26 -53 119 -65 115 -17 -7 -38 111 -31 174
4 34 3 40 -3 22 -5 -14 -9 -44 -10 -67 -2 -81 -41 -33 -47 57 -2 25 -4 54 -4
65 -1 13 -5 7 -12 -15 -8 -28 -11 -31 -19 -18 -6 10 -4 45 6 94 8 43 13 79 11
81 -2 3 -12 -27 -22 -66 l-18 -71 -17 85 c-17 93 -13 150 14 203 20 37 15 43
-7 10z"/>
<path d="M736 5105 c-9 -26 -7 -32 5 -12 6 10 9 21 6 23 -2 3 -7 -2 -11 -11z"/>
<path d="M2545 5101 c6 -9 21 -39 34 -67 20 -44 23 -64 20 -142 -2 -50 -8 -94
-12 -99 -5 -4 -17 3 -27 17 l-18 24 9 -48 c6 -35 5 -60 -4 -88 l-14 -39 -17
62 c-9 34 -19 59 -22 57 -2 -3 0 -17 6 -32 12 -33 13 -166 1 -166 -8 0 -23
-37 -57 -144 -19 -61 -77 -132 -97 -119 -5 3 -7 1 -3 -5 4 -6 -20 -19 -65 -33
-82 -26 -82 -26 -100 61 -6 30 -20 96 -31 145 -15 68 -18 107 -13 157 6 58 5
69 -9 74 -20 8 -49 72 -42 91 3 7 1 13 -4 13 -6 0 -8 21 -4 54 l7 54 -60 4
c-69 3 -70 -1 -22 -64 22 -28 27 -43 23 -66 -8 -37 11 -97 42 -139 13 -17 24
-41 24 -52 0 -12 12 -65 26 -118 23 -87 25 -110 20 -205 -7 -128 -3 -132 85
-69 30 21 84 52 120 68 66 30 105 67 115 110 4 12 13 23 21 23 52 0 105 71
118 160 4 26 17 56 30 70 89 95 63 305 -53 427 -20 22 -32 32 -27 24z"/>
<path d="M2450 5065 c13 -14 26 -25 28 -25 3 0 -5 11 -18 25 -13 14 -26 25
-28 25 -3 0 5 -11 18 -25z"/>
<path d="M1168 5017 c18 -21 35 -52 39 -68 7 -34 23 -49 23 -21 0 21 -46 88
-76 112 -10 8 -4 -2 14 -23z"/>
<path d="M1686 4950 c13 -38 24 -79 24 -90 0 -33 -72 -96 -131 -115 -76 -24
-99 -41 -99 -71 0 -19 8 -28 35 -40 49 -20 62 -18 69 12 4 14 29 49 55 78 27
28 46 57 44 64 -3 7 1 10 11 6 12 -5 16 0 16 22 0 47 17 14 35 -68 16 -74 16
-78 -3 -120 -10 -24 -26 -49 -35 -57 -20 -16 -22 -30 -4 -27 23 3 38 18 33 32
-3 8 1 17 9 20 7 3 11 12 9 19 -3 7 -1 16 4 19 12 7 18 -25 33 -172 l12 -114
-29 -41 c-40 -57 -137 -120 -234 -152 -130 -42 -180 -80 -180 -139 0 -45 51
-68 135 -63 141 8 214 72 293 257 9 21 11 15 11 -40 1 -139 -109 -278 -293
-369 -162 -80 -237 -181 -175 -237 16 -14 35 -19 77 -18 122 2 249 98 317 239
20 41 39 91 42 110 3 20 10 38 16 42 6 4 8 -36 5 -113 -4 -109 -7 -124 -36
-181 -42 -83 -138 -183 -226 -237 -39 -24 -70 -49 -68 -55 1 -7 -3 -9 -9 -6
-13 8 -94 -67 -115 -107 -20 -39 -17 -82 7 -104 34 -31 129 -25 202 11 67 33
146 113 182 185 21 42 57 163 68 230 5 36 13 11 27 -90 11 -77 10 -90 -7 -141
-17 -51 -17 -55 -1 -56 11 -1 19 8 23 28 l7 30 18 -38 c9 -21 34 -73 54 -115
41 -87 42 -102 20 -179 -22 -76 -56 -131 -134 -214 -62 -68 -110 -145 -110
-180 0 -30 38 -55 83 -53 l42 1 -45 7 c-33 5 -37 7 -16 8 16 1 27 5 23 8 -3 4
7 26 23 50 17 23 30 47 30 53 0 5 15 31 33 57 48 68 81 139 80 172 0 9 6 26
13 37 8 11 14 39 14 62 0 24 3 43 8 42 4 0 22 -19 40 -42 19 -23 53 -62 76
-87 58 -61 66 -79 66 -146 0 -43 -8 -75 -35 -134 -19 -43 -35 -86 -35 -97 0
-50 73 -60 118 -15 15 15 24 24 19 20 -15 -10 -47 62 -41 89 8 31 -19 31 -42
1 -17 -24 -15 -12 8 34 13 28 28 37 28 18 0 -5 7 -10 15 -10 9 0 15 10 15 26
0 18 -4 25 -14 21 -14 -6 -26 12 -26 36 0 7 4 6 10 -3 17 -27 22 -2 6 31 -9
18 -15 33 -13 35 1 2 47 -33 102 -76 55 -44 106 -77 113 -75 7 3 10 1 7 -4 -7
-13 69 -64 160 -107 115 -55 233 -56 243 -1 10 49 -69 83 -219 97 -164 15
-199 26 -285 94 -81 64 -96 88 -34 56 46 -24 119 -26 159 -5 40 20 81 72 81
101 0 16 -8 28 -25 36 -21 9 -37 5 -117 -36 -71 -35 -104 -46 -140 -46 -45 0
-49 2 -107 68 -55 61 -115 142 -107 142 2 0 22 -7 46 -15 23 -8 78 -17 123
-21 45 -3 89 -8 97 -11 8 -3 26 -5 40 -4 22 3 23 1 10 -15 -14 -16 -13 -16 5
-7 29 16 62 54 74 86 9 23 7 31 -10 48 -23 23 -45 21 -139 -13 -115 -41 -189
-46 -255 -16 -35 16 -135 221 -135 277 0 19 3 18 29 -9 17 -15 40 -32 53 -35
13 -4 35 -16 49 -26 15 -10 55 -23 90 -28 35 -5 77 -16 93 -25 16 -8 34 -12
40 -9 6 4 5 -1 -3 -10 -12 -15 -11 -16 18 -6 43 15 91 73 91 110 0 51 -61 61
-201 34 -121 -23 -257 11 -279 69 -8 22 -21 109 -34 229 -6 51 8 65 19 18 11
-52 61 -119 107 -142 74 -38 172 -27 198 22 26 47 -20 82 -125 94 -71 8 -139
36 -178 73 -27 26 -28 30 -26 120 2 51 6 95 10 97 3 3 12 -14 18 -38 14 -55
48 -110 63 -101 7 4 8 3 4 -4 -10 -17 47 -42 94 -42 38 0 80 25 80 49 0 27
-46 63 -103 79 -48 13 -73 28 -111 64 l-49 47 5 76 c3 41 8 78 12 82 9 9 35
-29 29 -44 -3 -7 6 -17 21 -23 25 -9 49 -47 39 -62 -9 -16 45 -7 67 10 32 26
17 47 -50 71 -85 31 -110 65 -110 147 0 35 2 64 5 64 2 0 16 -12 30 -26 20
-20 33 -25 63 -22 32 3 37 6 37 28 0 20 -8 27 -49 41 -68 25 -86 44 -86 92 0
115 -65 404 -119 530 -31 72 -43 56 -15 -23z m-22 -1578 c-3 -15 -15 -39 -25
-54 -10 -15 -19 -32 -19 -37 0 -6 -10 -16 -22 -22 -13 -7 -25 -15 -28 -18 -12
-15 -102 -52 -117 -49 -29 5 -27 37 4 67 15 16 41 43 56 60 16 17 34 31 40 31
7 0 27 16 45 35 27 30 35 34 52 25 15 -8 19 -17 14 -38z"/>
<path d="M2540 4928 c17 -35 30 -71 30 -80 0 -10 5 -18 10 -18 16 0 12 17 -25
90 -44 87 -55 92 -15 8z"/>
<path d="M2169 4863 c-13 -16 -12 -17 4 -4 16 13 21 21 13 21 -2 0 -10 -8 -17
-17z"/>
<path d="M2125 4793 c-9 -20 -12 -40 -7 -45 4 -4 12 13 18 37 13 55 9 57 -11
8z"/>
<path d="M1130 4746 c0 -2 8 -10 18 -17 15 -13 16 -12 3 4 -13 16 -21 21 -21
13z"/>
<path d="M2955 4691 c3 -5 -4 -12 -15 -16 -11 -3 -20 -14 -20 -23 0 -13 -2
-13 -15 4 -14 18 -15 17 -4 -8 7 -15 16 -25 22 -21 6 3 7 1 3 -5 -8 -13 28
-73 75 -127 64 -73 162 -109 233 -85 42 13 56 35 56 84 0 66 -63 116 -189 150
-35 10 -83 26 -108 37 -24 10 -41 15 -38 10z"/>
<path d="M2821 4663 c-11 -12 -15 -13 -22 -1 -7 11 -9 11 -9 -1 0 -7 -16 -48
-35 -91 -40 -89 -44 -136 -14 -174 27 -35 54 -33 94 7 43 43 53 101 31 187
-21 83 -27 92 -45 73z"/>
<path d="M1012 4550 c0 -14 2 -19 5 -12 2 6 2 18 0 25 -3 6 -5 1 -5 -13z"/>
<path d="M2195 4559 c-4 -6 -5 -12 -2 -15 2 -3 7 2 10 11 7 17 1 20 -8 4z"/>
<path d="M1655 4520 c-11 -11 -61 -37 -110 -58 -50 -22 -89 -44 -88 -50 2 -6
-3 -9 -11 -6 -16 6 -46 -32 -46 -58 0 -17 36 -48 55 -48 5 1 -2 8 -17 16 -19
10 -28 22 -27 37 1 15 3 17 6 6 5 -22 39 -30 53 -13 7 7 48 34 93 60 112 65
147 93 147 116 0 18 -2 19 -17 7 -11 -10 -14 -10 -9 -1 11 19 -7 14 -29 -8z"/>
<path d="M1024 4495 c4 -16 12 -34 17 -40 5 -5 4 6 -2 25 -15 45 -24 54 -15
15z"/>
<path d="M2352 4385 c0 -16 2 -22 5 -12 2 9 2 23 0 30 -3 6 -5 -1 -5 -18z"/>
<path d="M3027 4343 c-22 -21 0 -63 33 -63 18 0 32 40 19 56 -12 15 -41 19
-52 7z"/>
<path d="M920 4330 c0 -7 6 -10 14 -7 10 4 12 0 9 -14 -4 -13 0 -19 11 -19 9
0 16 -7 16 -15 0 -9 6 -18 14 -21 8 -3 36 -33 63 -67 52 -67 52 -67 102 -156
19 -34 40 -61 47 -61 7 0 15 -8 18 -17 3 -10 4 10 2 44 -7 112 -79 232 -180
299 -56 37 -116 55 -116 34z"/>
<path d="M737 4258 c-35 -74 -40 -108 -22 -142 8 -15 15 -36 15 -46 0 -10 9
-20 20 -23 12 -3 20 -14 20 -26 0 -14 6 -21 18 -21 10 0 23 -5 28 -10 6 -6 19
-12 30 -14 10 -3 39 -12 63 -20 62 -23 61 -21 -6 23 -102 66 -149 156 -140
267 2 35 3 64 2 64 -2 0 -15 -24 -28 -52z"/>
<path d="M1498 4293 c7 -3 16 -2 19 1 4 3 -2 6 -13 5 -11 0 -14 -3 -6 -6z"/>
<path d="M3090 4225 c-18 -22 -1 -50 31 -50 20 0 24 5 24 30 0 23 -5 31 -21
33 -11 2 -27 -4 -34 -13z"/>
<path d="M2964 4216 c-11 -28 1 -51 25 -51 32 0 49 28 32 49 -17 20 -50 21
-57 2z"/>
<path d="M790 4185 c0 -10 7 -15 18 -13 21 4 19 22 -2 26 -10 2 -16 -3 -16
-13z"/>
<path d="M874 4179 c-10 -17 13 -36 27 -22 12 12 4 33 -11 33 -5 0 -12 -5 -16
-11z"/>
<path d="M950 4125 c0 -8 7 -15 15 -15 8 0 15 7 15 15 0 8 -7 15 -15 15 -8 0
-15 -7 -15 -15z"/>
<path d="M827 4124 c-13 -13 -7 -24 14 -24 11 0 19 5 17 12 -5 14 -22 21 -31
12z"/>
<path d="M992 4054 c4 -21 22 -23 26 -1 2 10 -3 17 -13 17 -10 0 -15 -6 -13
-16z"/>
<path d="M890 4045 c0 -8 7 -15 15 -15 8 0 15 7 15 15 0 8 -7 15 -15 15 -8 0
-15 -7 -15 -15z"/>
<path d="M996 3993 c-12 -12 -6 -33 9 -33 8 0 15 6 15 14 0 17 -14 28 -24 19z"/>
<path d="M1035 3910 c-4 -6 -25 -20 -48 -32 -44 -22 -134 -30 -192 -16 l-30 8
30 -14 c17 -8 39 -18 50 -22 32 -11 144 -14 150 -4 9 14 97 52 122 52 32 1 19
15 -25 28 -46 12 -49 12 -57 0z"/>
<path d="M930 3484 c-98 -32 -150 -81 -182 -171 -27 -78 -20 -152 21 -236 l32
-62 -7 62 c-15 156 57 305 180 369 43 22 52 30 38 36 -20 8 -60 9 -82 2z"/>
<path d="M924 3365 c-7 -18 3 -35 21 -35 21 0 28 19 15 35 -16 19 -29 19 -36
0z"/>
<path d="M1183 3333 c0 -14 -5 -28 -11 -32 -5 -3 -17 -40 -27 -81 -26 -114
-53 -195 -100 -305 -24 -55 -46 -115 -48 -133 l-5 -32 30 17 c115 67 220 303
203 455 -9 88 -38 165 -42 111z"/>
<path d="M873 3274 c-8 -21 13 -42 28 -27 13 13 5 43 -11 43 -6 0 -13 -7 -17
-16z"/>
<path d="M967 3266 c-8 -20 20 -43 35 -28 14 14 3 42 -16 42 -7 0 -16 -6 -19
-14z"/>
<path d="M581 3180 c-1 -8 9 -60 21 -115 21 -93 26 -103 68 -145 33 -33 58
-49 96 -58 48 -12 83 -39 97 -73 3 -8 6 1 6 19 1 40 -34 112 -55 112 -27 0
-89 38 -131 80 -43 42 -80 108 -94 164 -4 17 -7 24 -8 16z"/>
<path d="M845 3160 c-4 -7 -3 -16 3 -22 14 -14 45 -2 40 15 -6 16 -34 21 -43
7z"/>
<path d="M974 3155 c-7 -18 3 -35 21 -35 15 0 24 19 18 38 -6 17 -32 15 -39
-3z"/>
<path d="M925 3060 c-4 -7 -3 -16 3 -22 14 -14 45 -2 40 15 -6 16 -34 21 -43
7z"/>
<path d="M852 2998 c2 -12 10 -23 18 -23 22 0 19 39 -3 43 -15 3 -18 -1 -15
-20z"/>
<path d="M1460 2918 c-45 -73 -35 -122 25 -134 23 -4 41 -2 48 5 9 9 9 11 -3
7 -8 -3 -28 -2 -45 3 -29 9 -29 9 13 10 36 1 42 4 42 22 0 30 -24 49 -62 49
-25 0 -29 3 -18 10 8 5 11 10 6 10 -4 0 -1 11 8 25 9 14 14 25 11 25 -3 0 -14
-15 -25 -32z"/>
<path d="M1558 2793 c7 -3 16 -2 19 1 4 3 -2 6 -13 5 -11 0 -14 -3 -6 -6z"/>
<path d="M986 2669 c-53 -42 -72 -121 -40 -167 14 -21 42 -33 29 -13 -3 6 8
20 24 32 37 28 46 64 28 117 -13 37 -13 41 2 45 15 4 15 5 0 6 -9 0 -28 -8
-43 -20z"/>
<path d="M1830 2570 c-8 -5 -10 -10 -5 -10 6 0 17 5 25 10 8 5 11 10 5 10 -5
0 -17 -5 -25 -10z"/>
<path d="M780 2495 c-18 -22 -1 -50 31 -50 20 0 24 5 24 30 0 23 -5 31 -21 33
-11 2 -27 -4 -34 -13z"/>
<path d="M655 2454 c-9 -9 -14 -21 -12 -27 6 -18 33 -31 51 -24 21 8 21 53 0
61 -21 8 -20 8 -39 -10z"/>
<path d="M1215 2389 c-16 -11 -66 -38 -110 -61 -132 -66 -175 -122 -182 -238
-4 -54 0 -73 19 -109 31 -59 69 -86 122 -86 105 0 183 115 256 376 l19 69 -43
35 c-24 19 -45 35 -47 34 -2 0 -17 -9 -34 -20z"/>
<path d="M745 2359 c-5 -13 -2 -27 8 -36 24 -24 59 -8 55 25 -4 36 -53 45 -63
11z"/>
<path d="M2470 2323 c-8 -13 -13 -14 -16 -6 -4 9 -17 4 -45 -14 -48 -32 -49
-36 -4 -17 40 16 108 18 136 4 14 -8 27 -7 49 5 31 16 42 32 15 21 -8 -3 -33
1 -56 9 -54 19 -66 19 -79 -2z"/>
<path d="M2673 2268 c-6 -13 -18 -51 -27 -86 -9 -35 -34 -99 -56 -143 -22 -43
-36 -79 -30 -79 21 0 83 66 107 114 28 55 41 155 26 194 l-9 23 -11 -23z"/>
<path d="M2054 2258 l-19 -23 23 19 c12 11 22 21 22 23 0 8 -8 2 -26 -19z"/>
<path d="M2475 2231 c-3 -6 -15 -11 -25 -11 -23 0 -67 -56 -80 -101 -14 -46
-4 -90 29 -127 34 -40 46 -41 26 -2 -31 60 -12 156 42 212 15 15 24 30 21 34
-3 3 -9 1 -13 -5z"/>
<path d="M2530 2230 c0 -5 5 -10 10 -10 6 0 10 5 10 10 0 6 -4 10 -10 10 -5 0
-10 -4 -10 -10z"/>
<path d="M2550 2174 c0 -8 5 -12 10 -9 6 3 10 10 10 16 0 5 -4 9 -10 9 -5 0
-10 -7 -10 -16z"/>
<path d="M2475 2160 c4 -6 11 -8 16 -5 14 9 11 15 -7 15 -8 0 -12 -5 -9 -10z"/>
<path d="M2003 2090 c-28 -48 -29 -77 -3 -85 11 -3 20 -10 20 -15 0 -4 8 -7
18 -6 10 0 16 -6 16 -16 -2 -23 26 -8 55 28 35 45 27 95 -20 119 -44 23 -62
18 -86 -25z"/>
<path d="M2530 2120 c0 -5 7 -10 15 -10 8 0 15 5 15 10 0 6 -7 10 -15 10 -8 0
-15 -4 -15 -10z"/>
<path d="M2446 2111 c-4 -5 -2 -12 3 -15 5 -4 12 -2 15 3 4 5 2 12 -3 15 -5 4
-12 2 -15 -3z"/>
<path d="M2490 2070 c0 -5 5 -10 10 -10 6 0 10 5 10 10 0 6 -4 10 -10 10 -5 0
-10 -4 -10 -10z"/>
<path d="M2436 2051 c-4 -5 -2 -12 3 -15 5 -4 12 -2 15 3 4 5 2 12 -3 15 -5 4
-12 2 -15 -3z"/>
<path d="M2214 1833 c14 -17 17 -32 13 -60 -5 -26 -3 -33 3 -23 17 26 11 66
-12 86 l-23 19 19 -22z"/>
<path d="M2165 1609 c-22 -4 -71 -14 -110 -23 -38 -8 -80 -16 -92 -16 -19 0
-23 -6 -23 -31 0 -21 -4 -28 -12 -24 -7 4 -4 -1 7 -10 37 -32 147 -78 196 -83
72 -7 114 5 154 43 31 29 36 39 33 71 -5 60 -65 89 -153 73z"/>
<path d="M1384 1375 c-20 -82 59 -196 136 -195 25 1 86 29 63 30 -7 0 -13 6
-13 14 0 7 -7 19 -15 26 -8 7 -15 24 -15 39 0 39 -17 51 -72 51 -26 0 -48 5
-48 10 0 6 -7 10 -16 10 -11 0 -14 6 -9 20 3 11 4 20 1 20 -3 0 -8 -11 -12
-25z"/>
<path d="M2067 1236 c5 -16 3 -18 -15 -14 -22 6 -22 4 -22 -96 0 -118 16 -159
72 -190 34 -19 37 -19 61 -3 53 34 42 117 -28 220 -50 74 -77 107 -68 83z"/>
<path d="M2540 1053 c0 -7 -11 -15 -25 -19 -40 -10 -50 -30 -31 -59 9 -14 14
-30 11 -35 -4 -6 10 -10 33 -10 41 0 72 23 72 53 0 19 -59 88 -60 70z"/>
<path d="M1817 999 c7 -7 15 -10 18 -7 3 3 -2 9 -12 12 -14 6 -15 5 -6 -5z"/>
<path d="M1863 983 c9 -2 23 -2 30 0 6 3 -1 5 -18 5 -16 0 -22 -2 -12 -5z"/>
</g>
</svg>
