<?xml version="1.0" standalone="no"?>
<!DOCTYPE svg PUBLIC "-//W3C//DTD SVG 20010904//EN"
 "http://www.w3.org/TR/2001/REC-SVG-20010904/DTD/svg10.dtd">
<svg version="1.0" xmlns="http://www.w3.org/2000/svg"
 width="1280.000000pt" height="600.000000pt" viewBox="0 0 1280.000000 600.000000"
 preserveAspectRatio="xMidYMid meet">
<metadata>
Created by potrace 1.15, written by Peter Selinger 2001-2017
</metadata>
<g transform="translate(0.000000,600.000000) scale(0.100000,-0.100000)"
fill="#444444" stroke="none">
<path d="M0 5805 c0 -107 2 -195 4 -195 3 0 15 17 26 38 12 20 18 28 15 17
-31 -99 -60 -415 -38 -415 5 0 18 6 28 14 18 13 23 11 53 -16 30 -26 41 -29
87 -27 49 2 55 0 80 -30 38 -44 71 -59 162 -73 l77 -11 -39 -12 c-157 -47
-232 -161 -153 -235 26 -24 86 -27 127 -6 33 18 104 93 125 135 9 17 18 31 20
31 1 0 -4 -30 -11 -67 -22 -106 2 -199 58 -228 41 -22 65 -18 101 14 31 28 33
33 33 98 0 56 -6 80 -33 137 l-32 69 50 -47 c93 -87 184 -109 240 -58 94 84
-7 200 -175 203 l-70 1 40 13 c77 25 130 53 160 85 26 27 30 39 30 88 1 51 5
63 45 118 25 34 51 70 57 80 10 16 11 14 2 -11 -20 -57 -23 -217 -5 -272 19
-58 65 -106 119 -123 45 -14 73 -9 112 21 86 68 84 226 -5 389 l-30 55 59 -61
c32 -34 70 -69 84 -79 37 -24 117 -43 157 -37 19 2 33 2 30 -1 -11 -12 -139
-55 -145 -49 -4 4 -5 3 -4 -3 2 -5 -9 -23 -24 -39 -38 -41 -52 -97 -33 -135
18 -35 72 -56 119 -47 38 7 98 54 136 106 l26 36 -4 -78 c-2 -48 2 -90 9 -109
17 -39 65 -79 97 -79 15 0 33 -10 45 -25 34 -43 98 -24 143 42 l25 38 0 -61
c0 -69 25 -114 63 -114 64 1 84 80 41 162 l-14 28 37 -25 c20 -14 47 -28 59
-31 23 -6 23 -6 -7 -31 -62 -53 -76 -117 -33 -160 22 -22 32 -25 69 -21 57 7
99 38 148 112 22 34 37 52 33 42 -4 -11 -9 -46 -13 -78 -7 -65 13 -132 48
-164 32 -29 87 -24 116 11 22 25 25 36 21 90 -2 42 -13 79 -31 114 l-27 53 39
-31 c59 -47 127 -74 169 -67 47 7 82 41 82 81 0 66 -65 110 -183 124 -39 5
-63 9 -52 10 11 1 47 16 80 34 62 33 105 83 105 122 0 15 13 31 40 49 22 14
53 44 69 66 l29 40 1 -76 c2 -81 16 -123 53 -148 35 -25 76 -20 109 13 25 25
29 37 29 83 0 54 -25 124 -58 163 -9 11 2 3 25 -17 54 -48 92 -67 146 -74 39
-6 48 -3 76 22 17 16 34 43 37 61 5 26 1 37 -27 68 -34 36 -72 51 -152 62
l-38 5 48 23 c63 29 123 97 123 140 0 36 -33 85 -56 85 -10 0 -12 5 -8 13 6 8
3 8 -9 -1 -9 -8 -20 -11 -25 -8 -5 3 -25 -3 -44 -13 l-35 -17 -12 31 c-25 69
-111 113 -226 116 -43 0 -42 1 35 33 31 13 -6 14 -371 15 l-407 1 -1 -77 c-1
-42 4 -92 10 -112 13 -42 51 -96 82 -116 29 -19 109 -37 100 -22 -4 6 2 8 15
5 12 -4 20 -2 16 3 -9 16 5 10 26 -11 47 -47 127 -33 195 34 23 24 51 60 60
80 10 20 20 35 22 32 8 -8 -18 -79 -38 -105 -11 -13 -19 -32 -19 -43 0 -28 27
-76 51 -88 12 -7 18 -18 15 -26 -3 -9 -2 -12 5 -9 6 4 19 -1 29 -10 22 -20 67
-22 99 -6 12 7 25 11 27 8 3 -2 -14 -12 -37 -21 -77 -31 -129 -86 -129 -138 0
-20 -8 -32 -30 -43 -26 -14 -82 -76 -117 -131 -10 -15 -10 -12 -2 16 10 40 12
104 3 147 -15 75 -99 121 -149 81 -13 -10 -30 -37 -36 -58 -10 -34 -9 -47 11
-102 12 -35 29 -72 36 -83 25 -35 15 -40 -18 -8 -18 17 -43 36 -55 42 -16 8
-23 21 -23 40 0 15 -8 35 -18 44 -21 19 -63 22 -79 6 -8 -8 -15 -3 -27 19 -21
40 -103 79 -184 88 l-64 7 52 18 c108 38 170 100 170 170 0 46 -45 89 -91 89
-57 0 -148 -67 -196 -146 -10 -15 -10 -12 -2 16 6 19 7 68 4 108 -6 62 -11 79
-36 107 -16 18 -40 35 -54 37 -54 11 -115 -46 -115 -107 0 -30 5 -29 -67 -10
-31 8 -75 15 -98 15 -68 0 -74 15 -14 35 79 26 126 52 174 96 40 37 75 92 75
118 0 8 -54 11 -186 9 l-186 -3 -39 -64 c-39 -65 -46 -72 -30 -29 4 13 11 40
15 61 l7 37 -131 0 c-71 0 -130 -3 -130 -7 0 -5 18 -40 39 -79 l39 -71 -61 61
c-33 34 -60 65 -58 69 1 5 -2 6 -7 3 -5 -3 -18 1 -28 9 -26 20 -719 22 -727 3
-4 -10 -6 -10 -6 0 -1 8 -25 12 -85 12 l-85 0 -1 -195z m2479 115 l36 -1 -52
-18 c-28 -11 -56 -22 -61 -25 -6 -3 -12 8 -14 25 -5 30 -4 31 25 25 16 -3 46
-6 66 -6z m-1991 -40 c22 -22 40 -30 65 -30 26 0 39 -6 51 -25 47 -72 111
-100 263 -119 65 -7 108 -14 96 -15 -39 -2 -156 -50 -209 -87 -28 -19 -62 -50
-76 -70 -22 -30 -27 -33 -38 -19 -11 13 -9 19 10 40 31 33 37 99 15 150 -10
22 -17 44 -16 48 1 5 -3 6 -8 3 -5 -4 -30 8 -56 25 -65 44 -124 59 -234 60
l-96 0 84 25 c46 14 91 29 100 34 9 5 17 10 18 10 1 0 15 -13 31 -30z m2307
-138 c10 -26 27 -57 38 -69 11 -13 16 -23 10 -23 -14 0 -39 31 -48 60 -4 14
-17 43 -28 65 -14 29 -16 36 -5 27 9 -7 23 -34 33 -60z m189 -37 c-4 -8 -8
-15 -10 -15 -2 0 -4 7 -4 15 0 8 4 15 10 15 5 0 7 -7 4 -15z m-2612 -149 c24
-13 62 -30 86 -37 37 -11 41 -15 35 -33 -19 -50 -9 -130 25 -200 l32 -69 -44
41 c-54 50 -114 81 -161 84 l-35 3 0 51 c0 67 -23 143 -71 233 l-40 74 65 -61
c36 -33 85 -72 108 -86z m338 -245 c0 -3 -10 -19 -21 -36 -20 -28 -21 -29 -15
-5 3 14 6 33 6 42 0 11 5 15 15 12 8 -4 15 -9 15 -13z m1120 -6 c18 -19 20
-25 8 -25 -8 0 -20 11 -26 25 -6 14 -10 25 -9 25 2 0 14 -11 27 -25z m100
-169 c0 -2 -13 -9 -30 -15 -24 -8 -30 -7 -30 5 0 9 10 14 30 14 17 0 30 -2 30
-4z m365 -76 c-28 -12 -37 -12 -30 0 3 6 16 10 28 9 21 0 21 -1 2 -9z"/>
<path d="M1670 5969 c0 -23 10 -42 39 -70 35 -35 44 -39 90 -39 28 0 68 7 88
15 43 18 119 78 133 106 10 18 5 19 -170 19 l-180 0 0 -31z"/>
<path d="M3275 5990 c4 -6 1 -19 -6 -28 -7 -9 -9 -14 -4 -9 4 4 18 -10 29 -30
43 -76 134 -116 301 -132 l70 -7 -66 -22 c-37 -13 -93 -39 -125 -59 -33 -19
-65 -36 -72 -36 -6 0 -10 -2 -8 -5 3 -2 -9 -25 -25 -50 -21 -33 -29 -59 -29
-89 0 -89 49 -133 150 -133 44 0 50 -3 50 -20 0 -12 10 -40 21 -63 l21 -42
-23 21 c-60 54 -125 68 -159 34 -53 -53 9 -120 112 -120 l43 0 -52 -24 c-28
-14 -59 -36 -68 -50 -35 -53 -13 -106 44 -106 16 0 40 16 72 49 l47 48 -2 -52
c-1 -61 18 -103 52 -112 31 -7 53 5 70 41 14 28 9 54 -23 130 -7 16 -2 15 28
-8 47 -36 110 -45 137 -21 57 52 -10 123 -119 126 -23 0 -20 3 18 20 44 19 44
19 65 0 31 -29 76 -43 113 -36 29 5 37 1 63 -29 17 -19 51 -42 76 -52 44 -17
44 -17 27 -38 -18 -21 -18 -21 3 -3 14 11 37 17 70 17 l49 0 -56 -23 c-102
-43 -149 -93 -149 -162 0 -77 78 -113 155 -72 35 18 94 72 115 105 14 22 15
18 12 -50 -5 -90 9 -139 49 -172 34 -29 67 -33 108 -12 56 29 67 121 27 218
l-24 58 37 -29 c101 -79 193 -87 243 -21 11 16 25 27 29 24 14 -8 -20 79 -39
99 -30 33 -94 59 -160 65 l-63 5 51 18 c29 10 69 31 89 46 20 15 40 27 44 25
5 -1 6 2 2 7 -3 6 2 22 11 36 12 18 15 37 11 68 -5 37 -2 47 32 92 21 27 46
61 56 75 13 19 16 20 10 5 -3 -11 -11 -58 -17 -105 -10 -77 -9 -92 12 -157 23
-77 64 -126 116 -139 66 -17 156 48 170 122 14 73 -1 165 -39 244 -20 41 -44
86 -54 100 -10 14 16 -11 57 -54 79 -83 131 -115 190 -116 61 -1 66 -15 13
-37 -94 -39 -152 -111 -138 -173 13 -58 84 -86 146 -56 38 18 106 78 131 116
16 24 16 24 7 -19 -11 -48 -4 -118 16 -168 15 -37 55 -66 90 -65 15 0 31 -10
40 -24 26 -39 93 -26 132 25 6 9 18 25 26 35 12 17 13 13 10 -35 -7 -95 54
-152 109 -102 17 15 18 14 18 -19 0 -63 63 -95 133 -69 31 12 94 76 116 118
16 32 16 32 16 -67 0 -84 3 -102 21 -127 42 -56 110 -56 145 0 28 44 20 119
-19 192 -33 60 -29 70 9 29 32 -36 116 -74 161 -74 78 0 122 86 73 141 -30 33
-114 69 -165 70 l-45 1 44 15 c58 21 128 90 136 137 7 37 46 72 68 60 7 -4 9
-4 5 0 -5 6 25 52 66 103 0 1 0 -27 -2 -62 -5 -85 22 -150 72 -170 65 -28 116
14 116 95 0 47 -24 133 -44 160 -8 11 -4 10 14 -3 82 -56 115 -71 162 -71 42
-1 53 3 74 27 36 42 32 82 -13 124 -47 45 -74 55 -153 56 l-65 0 41 13 c149
44 220 170 129 230 -30 20 -97 14 -124 -10 -23 -21 -30 -20 -24 4 7 27 -36 83
-81 104 -20 9 -66 23 -103 30 l-68 13 40 11 c22 7 51 19 65 27 22 13 -24 14
-397 15 l-422 0 -6 -55 c-9 -66 11 -165 40 -209 42 -62 129 -95 174 -67 10 7
24 2 44 -15 40 -34 88 -32 149 7 26 17 48 34 48 38 1 3 15 22 32 41 l30 35 -7
-30 c-3 -16 -13 -37 -21 -46 -8 -8 -14 -32 -14 -52 0 -30 8 -44 52 -87 29 -28
65 -54 80 -57 l29 -6 -33 -22 c-43 -30 -78 -78 -78 -108 0 -17 -12 -32 -41
-51 -22 -15 -52 -46 -67 -70 l-28 -43 4 63 c5 71 -18 146 -52 170 -34 23 -89
18 -117 -12 -20 -21 -24 -35 -23 -82 2 -79 8 -121 17 -119 4 1 17 -14 30 -33
l22 -35 -57 45 c-40 31 -58 52 -58 67 0 38 -36 66 -77 60 -30 -5 -39 -2 -59
23 -40 47 -108 74 -186 74 -37 0 -62 4 -55 8 6 4 21 8 32 8 31 1 107 38 138
68 47 44 59 76 47 122 -26 96 -137 93 -231 -7 -20 -21 -42 -47 -48 -58 -11
-18 -11 -18 -5 5 14 47 8 154 -11 193 -31 67 -111 88 -155 42 -12 -13 -26 -23
-29 -21 -3 2 -7 -14 -8 -37 -2 -22 -4 -41 -6 -43 -2 -2 -25 3 -52 11 -26 8
-82 15 -124 15 l-76 0 80 28 c128 43 245 134 245 192 0 8 10 -3 23 -25 31 -55
89 -87 145 -81 68 9 153 62 201 126 l22 30 -375 0 -374 0 -37 -57 c-21 -32
-35 -50 -31 -40 3 10 9 36 12 58 l7 39 -142 0 -142 0 18 -32 c9 -18 26 -51 36
-73 l18 -40 -33 31 c-18 18 -60 50 -92 73 l-59 41 -439 0 c-241 0 -438 -4
-438 -8 0 -4 6 -14 13 -22 6 -8 0 -5 -14 8 -24 21 -32 22 -238 22 -145 0 -210
-3 -206 -10z m2932 -80 l48 -1 -60 -28 c-33 -15 -60 -28 -61 -27 -1 1 -4 18
-7 39 -5 34 -4 36 13 27 10 -5 40 -10 67 -10z m-1902 -70 c25 0 35 -5 40 -20
9 -28 85 -87 135 -105 24 -9 91 -18 149 -22 58 -3 101 -8 96 -9 -73 -19 -184
-58 -210 -74 -18 -11 -51 -40 -74 -65 -49 -53 -72 -51 -36 3 33 48 33 107 2
153 -47 70 -188 128 -314 130 l-58 0 40 13 c22 8 60 23 84 34 l45 21 33 -30
c23 -20 44 -29 68 -29z m2225 -78 c0 -8 12 -37 26 -65 23 -46 23 -49 5 -33
-12 11 -21 24 -21 30 0 6 -12 36 -26 65 -23 50 -23 53 -4 36 11 -10 20 -25 20
-33z m195 -82 c-16 -32 -28 -40 -20 -15 3 8 7 22 10 30 2 8 9 15 15 15 6 0 4
-12 -5 -30z m-2950 -86 c-9 -32 -17 -92 -19 -132 -3 -65 -7 -75 -31 -94 -15
-12 -36 -35 -46 -52 l-19 -31 6 52 c5 36 2 60 -9 82 -16 32 -16 32 33 92 26
33 58 80 71 104 13 24 25 43 26 41 2 -2 -4 -30 -12 -62z m319 -35 c33 -22 79
-45 103 -52 37 -10 42 -14 36 -32 -17 -44 -7 -139 18 -192 l26 -52 -34 29
c-42 38 -98 66 -146 75 -36 7 -37 8 -37 55 0 51 -22 123 -64 209 -14 30 -26
56 -26 58 0 2 15 -10 33 -27 17 -17 59 -49 91 -71z m2406 -49 c-8 -5 -19 -10
-25 -10 -5 0 -3 5 5 10 8 5 20 10 25 10 6 0 3 -5 -5 -10z m-2062 -235 c-14
-31 -18 -28 -11 7 3 15 9 25 14 23 4 -3 3 -17 -3 -30z m1148 4 c19 -22 19 -22
-3 -10 -13 6 -23 16 -23 21 0 15 5 12 26 -11z m54 -171 c-25 -9 -36 -5 -26 10
3 6 16 8 28 4 l22 -5 -24 -9z m258 -91 l30 -12 -39 -42 -39 -42 0 35 c0 19 -9
53 -21 76 l-21 41 30 -22 c17 -12 44 -27 60 -34z m139 27 c-3 -3 -12 -4 -19
-1 -8 3 -5 6 6 6 11 1 17 -2 13 -5z"/>
<path d="M7023 5960 c8 -59 46 -102 124 -141 63 -31 76 -34 183 -38 l115 -4
-75 -23 c-45 -14 -89 -22 -110 -19 -27 3 -29 3 -10 -3 l24 -8 -30 -12 c-16 -7
-42 -24 -57 -38 -15 -14 -32 -22 -37 -19 -6 4 -9 3 -8 -2 1 -4 -11 -28 -27
-52 -25 -37 -30 -55 -31 -107 0 -35 2 -62 5 -61 3 1 23 -11 45 -28 32 -24 47
-29 92 -29 47 1 54 -1 54 -18 0 -10 7 -32 15 -48 l15 -29 -32 18 c-79 45 -148
32 -148 -29 0 -38 33 -69 82 -77 50 -7 56 -19 19 -37 -63 -33 -89 -97 -53
-129 34 -31 72 -21 121 31 l46 47 -3 -60 c-3 -44 -10 -67 -25 -85 l-22 -25 28
24 c15 14 27 19 27 13 0 -6 11 -19 25 -28 37 -24 73 -11 91 32 14 33 13 40 -6
92 -20 51 -20 55 -3 41 27 -24 83 -49 110 -49 12 0 32 9 43 20 53 53 -8 130
-103 130 l-32 0 35 18 35 18 34 -29 c29 -25 40 -28 87 -25 47 3 55 0 66 -20
20 -39 75 -65 181 -87 27 -6 26 -7 -32 -36 -78 -39 -121 -92 -121 -148 0 -54
34 -91 83 -91 52 0 133 46 169 96 17 24 32 44 34 44 1 0 0 -26 -3 -57 -13
-141 69 -240 158 -193 59 32 64 147 11 250 l-31 61 47 -42 c26 -22 65 -50 86
-61 110 -56 223 9 182 106 -23 55 -80 84 -201 101 l-50 8 57 19 c106 36 182
129 158 194 -8 20 -4 30 19 56 16 18 43 56 61 83 18 28 29 41 25 30 -14 -39
-27 -171 -22 -227 13 -148 138 -235 234 -162 52 39 67 77 67 169 1 69 -4 91
-32 157 -18 42 -40 82 -48 89 -8 6 -14 15 -14 18 0 4 33 -25 73 -65 59 -59 82
-75 126 -88 30 -9 68 -16 85 -16 29 -1 27 -2 -17 -20 -61 -24 -113 -63 -132
-100 -38 -73 -2 -150 70 -150 69 0 135 42 185 119 14 21 15 16 12 -61 -3 -72
-1 -89 18 -121 23 -38 64 -67 97 -67 10 0 24 -9 31 -20 24 -39 109 -17 152 40
15 20 15 19 12 -18 -6 -60 34 -122 78 -122 6 0 22 11 35 24 l24 24 -6 -29
c-11 -57 48 -107 110 -93 37 8 101 65 139 124 17 25 27 37 24 27 -27 -82 -13
-191 29 -233 33 -33 87 -33 120 1 37 37 35 122 -5 201 -16 32 -30 61 -30 63 0
1 16 -11 35 -28 84 -74 183 -94 230 -46 46 45 24 114 -48 152 -18 9 -66 19
-107 23 l-75 5 40 14 c65 21 134 72 153 113 11 25 26 39 43 43 15 3 45 22 68
41 l41 36 0 -39 c0 -49 25 -94 74 -132 48 -38 76 -39 118 -3 32 26 36 27 118
22 l85 -5 -63 -18 c-227 -63 -340 -227 -226 -326 88 -78 237 -6 338 163 40 67
41 66 21 -19 -18 -73 -19 -174 -3 -228 7 -22 29 -58 49 -79 30 -32 42 -38 78
-38 90 0 141 61 141 167 0 66 -35 174 -74 234 -36 54 -33 55 17 6 146 -146
312 -181 385 -81 l19 27 7 -35 c17 -89 116 -83 116 7 0 20 -9 54 -20 76 l-21
40 42 -31 c49 -35 106 -41 132 -12 20 22 21 41 3 64 -17 22 -77 48 -113 48
-26 0 -25 2 13 19 79 36 108 105 58 138 -22 14 -31 15 -57 5 -23 -9 -34 -9
-46 1 -14 10 -14 10 -3 -5 16 -20 6 -42 -15 -34 -8 3 -12 2 -9 -2 2 -4 1 -14
-5 -22 -6 -10 -9 0 -9 33 0 42 2 47 23 47 67 1 152 70 229 188 22 34 42 62 43
62 1 0 -4 -24 -12 -52 -8 -29 -15 -91 -16 -138 -2 -73 2 -92 23 -135 43 -87
119 -117 187 -75 63 38 86 126 59 229 -15 59 -13 111 4 111 13 0 30 -26 22
-35 -4 -5 -2 -5 4 -2 5 3 36 -7 69 -24 32 -16 51 -29 43 -29 -9 0 -21 -7 -28
-15 -7 -8 -15 -13 -19 -11 -11 7 -10 -58 1 -86 17 -44 69 -70 156 -77 l77 -7
-54 -18 c-32 -11 -70 -35 -97 -60 -36 -35 -44 -49 -44 -79 0 -49 28 -77 78
-77 61 0 109 39 168 136 9 15 9 7 2 -33 -22 -113 19 -203 92 -203 83 0 105 93
50 208 l-30 63 44 -35 c73 -60 161 -80 203 -45 10 9 13 98 13 470 l0 459 -76
0 -76 0 7 -47 c7 -53 29 -104 71 -173 l28 -45 -59 53 c-70 62 -123 95 -182
112 -42 13 -42 13 -28 41 32 61 39 60 -227 57 l-242 -3 -39 -55 c-33 -47 -37
-51 -32 -25 4 17 8 36 11 43 2 6 1 19 -2 27 -5 12 -30 15 -136 15 l-129 0 7
-22 c10 -34 44 -100 63 -123 9 -11 -18 12 -59 51 -50 48 -89 76 -115 83 -27 8
-122 11 -290 9 -243 -3 -248 -3 -185 -17 l65 -14 -43 -15 c-93 -31 -164 -140
-127 -196 38 -57 112 -57 176 1 34 31 41 34 57 22 15 -13 16 -12 4 3 -11 14
-11 21 3 42 10 14 18 26 19 26 0 0 1 -37 1 -83 0 -93 13 -124 68 -157 52 -32
112 3 123 72 7 38 21 47 41 27 6 -6 52 -14 102 -17 l91 -5 -72 -24 c-39 -13
-94 -40 -123 -59 -52 -34 -105 -97 -105 -125 -1 -7 -7 0 -14 16 -35 79 -131
109 -213 66 -55 -27 -131 -107 -170 -178 -34 -61 -44 -58 -17 5 11 26 16 65
15 132 -1 115 -4 149 -12 145 -3 -2 -22 16 -42 40 -42 49 -90 66 -134 46 -21
-9 -27 -9 -37 3 -17 23 -87 49 -125 47 -18 -1 -46 -8 -62 -16 -27 -14 -28 -14
-39 19 -13 41 -42 69 -98 94 l-43 19 35 23 c20 12 41 30 46 41 10 19 1 19
-444 19 l-456 0 -6 -26 c-4 -14 -3 -64 0 -112 4 -48 7 -105 8 -127 0 -28 2
-32 5 -13 4 27 4 27 53 -24 l49 -51 58 5 c46 4 63 1 83 -13 20 -15 46 -20 122
-21 54 -2 98 -7 98 -11 0 -4 22 -30 50 -57 48 -49 59 -53 125 -51 29 1 29 0
-12 -20 -58 -29 -113 -91 -113 -128 0 -20 -6 -32 -19 -36 -10 -3 -42 -31 -71
-61 l-52 -55 6 43 c12 82 -31 174 -91 192 -33 10 -82 -20 -100 -61 -18 -43
-12 -86 23 -163 l25 -55 -28 26 c-15 15 -38 32 -51 39 -13 6 -22 17 -19 23 15
40 -42 85 -86 68 -20 -8 -26 -5 -40 19 -19 32 -108 80 -148 80 -58 0 -62 12
-12 35 66 30 110 69 121 108 10 33 24 121 16 100 -3 -7 -14 -2 -29 13 -18 18
-35 24 -65 24 -55 0 -88 -19 -146 -83 l-49 -53 0 80 c0 93 -20 138 -73 169
-57 33 -123 -5 -137 -79 -7 -39 -1 -38 -90 -15 -22 6 -65 11 -95 11 l-55 0 65
24 c36 12 80 30 99 40 53 28 122 97 141 141 l17 40 7 -32 c4 -18 23 -46 42
-63 31 -27 42 -30 97 -30 52 0 71 5 108 29 24 15 57 42 73 59 16 17 34 29 39
25 6 -3 7 -1 3 5 -3 6 -2 13 4 17 35 21 -18 25 -359 25 l-369 0 -39 -59 c-21
-32 -43 -67 -50 -77 -7 -10 -10 -12 -8 -4 3 8 11 43 19 78 l14 62 -139 0
c-160 0 -159 1 -110 -86 l28 -51 -46 34 c-25 20 -48 39 -51 43 -3 4 -26 19
-51 33 l-46 27 -431 0 c-238 0 -432 -2 -432 -5 0 -3 8 -18 17 -33 16 -25 15
-25 -18 6 l-35 32 -203 0 -204 0 6 -40z m648 3 c-8 -15 -10 -15 -11 -2 0 17
10 32 18 25 2 -3 -1 -13 -7 -23z m2242 -72 c34 -18 34 -24 -2 -38 -28 -10 -29
-10 -33 23 -2 19 -2 33 1 31 4 -1 18 -9 34 -16z m2431 0 c3 -4 -3 -16 -14 -26
-23 -20 -35 -73 -26 -110 8 -33 61 -92 100 -112 49 -25 134 -42 221 -44 l80
-1 -45 -14 c-25 -8 -55 -13 -67 -11 -12 2 -21 1 -18 -3 2 -3 -11 -12 -30 -19
-31 -11 -35 -10 -58 13 -25 25 -25 25 -3 29 11 3 -4 2 -34 0 -53 -5 -56 -4
-73 26 -35 60 -162 111 -277 111 l-55 1 65 22 c85 29 151 68 186 111 31 36 39
41 48 27z m-4384 -21 c0 -14 61 -50 86 -50 11 0 43 -22 71 -49 58 -56 129 -84
246 -96 l68 -7 -64 -23 c-80 -28 -171 -87 -201 -132 -19 -27 -25 -31 -35 -20
-8 11 -6 18 9 32 52 47 47 133 -12 194 -60 61 -146 90 -280 94 -43 1 -78 5
-78 8 0 4 21 10 46 14 25 3 64 15 87 25 50 22 57 23 57 10z m-137 -313 c26
-20 74 -46 107 -58 33 -12 60 -22 60 -23 0 0 -6 -18 -14 -39 -16 -47 -6 -111
27 -179 l24 -47 -38 34 c-51 46 -111 75 -154 75 l-35 0 0 63 c0 83 -19 142
-70 225 l-42 67 44 -41 c23 -23 64 -58 91 -77z m-303 18 c-11 -38 -19 -99 -19
-135 -1 -61 -3 -67 -30 -83 -15 -9 -32 -13 -36 -9 -5 4 -5 2 -2 -4 4 -6 1 -18
-6 -27 -10 -14 -12 -9 -14 34 -1 28 -9 61 -18 75 -8 13 -12 24 -7 24 12 0 93
104 122 157 13 24 25 42 26 40 1 -1 -6 -33 -16 -72z m3190 -44 c0 -10 -4 -11
-12 -3 -14 11 -18 12 -45 12 -22 0 -5 17 22 22 21 4 35 -8 35 -31z m1323 -42
c-3 -11 -6 -18 -8 -17 -1 2 -14 26 -29 53 l-27 50 34 -33 c24 -23 33 -40 30
-53z m748 -40 c-5 -13 -10 -19 -10 -12 -1 15 10 45 15 40 3 -2 0 -15 -5 -28z
m-421 -68 c0 -20 -2 -21 -15 -11 -8 7 -32 18 -52 26 -38 13 -38 13 -8 14 17 0
37 4 45 10 18 11 30 -5 30 -39z m-967 2 c12 -23 12 -30 -2 -54 -14 -25 -14
-32 1 -78 l16 -50 -29 15 c-16 8 -28 18 -25 22 2 4 -17 7 -42 6 -34 -1 -51 -8
-63 -23 -15 -19 -27 -21 -111 -20 l-93 1 65 19 c133 40 225 98 250 159 7 16
14 30 16 30 2 0 10 -12 17 -27z m1355 -148 c-2 -1 -34 2 -72 8 -68 9 -69 10
-42 24 15 8 37 12 49 9 12 -3 17 -3 10 0 -8 3 0 16 20 34 l32 29 3 -51 c2 -28
2 -51 0 -53z m-1938 74 c0 -6 -4 -7 -10 -4 -5 3 -10 11 -10 16 0 6 5 7 10 4 6
-3 10 -11 10 -16z m-2627 -54 c-9 -19 -19 -33 -21 -30 -7 7 19 65 29 65 5 0 1
-16 -8 -35z m1138 18 c13 -16 12 -17 -3 -4 -10 7 -18 15 -18 17 0 8 8 3 21
-13z m74 -173 c-27 -12 -35 -12 -35 0 0 6 12 10 28 9 24 0 25 -1 7 -9z m263
-103 c10 4 13 1 10 -8 -3 -8 -12 -13 -21 -13 -9 1 -15 -1 -14 -5 1 -3 -6 -17
-16 -31 l-17 -24 0 32 c0 18 -7 47 -16 63 l-15 31 37 -25 c20 -14 43 -23 52
-20z m132 39 c0 -2 -9 -6 -20 -9 -11 -3 -20 -1 -20 4 0 5 9 9 20 9 11 0 20 -2
20 -4z"/>
<path d="M7988 5813 c7 -3 16 -2 19 1 4 3 -2 6 -13 5 -11 0 -14 -3 -6 -6z"/>
<path d="M10660 5989 c0 -5 16 -17 35 -25 32 -13 39 -13 70 2 19 9 35 20 35
25 0 5 -31 9 -70 9 -42 0 -70 -4 -70 -11z"/>
<path d="M2040 5976 c0 -2 8 -10 18 -17 15 -13 16 -12 3 4 -13 16 -21 21 -21
13z"/>
<path d="M10848 5973 c7 -3 16 -2 19 1 4 3 -2 6 -13 5 -11 0 -14 -3 -6 -6z"/>
<path d="M10689 5843 c-13 -16 -12 -17 4 -4 9 7 17 15 17 17 0 8 -8 3 -21 -13z"/>
<path d="M7000 5836 c0 -2 8 -10 18 -17 15 -13 16 -12 3 4 -13 16 -21 21 -21
13z"/>
<path d="M2003 5803 c9 -2 25 -2 35 0 9 3 1 5 -18 5 -19 0 -27 -2 -17 -5z"/>
<path d="M2028 5773 c7 -3 16 -2 19 1 4 3 -2 6 -13 5 -11 0 -14 -3 -6 -6z"/>
<path d="M5811 5724 c0 -11 3 -14 6 -6 3 7 2 16 -1 19 -3 4 -6 -2 -5 -13z"/>
<path d="M3243 5683 c9 -2 25 -2 35 0 9 3 1 5 -18 5 -19 0 -27 -2 -17 -5z"/>
<path d="M5850 5635 c13 -14 26 -25 28 -25 3 0 -5 11 -18 25 -13 14 -26 25
-28 25 -3 0 5 -11 18 -25z"/>
<path d="M11201 5634 c0 -11 3 -14 6 -6 3 7 2 16 -1 19 -3 4 -6 -2 -5 -13z"/>
<path d="M6989 5573 l-24 -28 28 24 c15 14 27 26 27 28 0 8 -8 1 -31 -24z"/>
<path d="M7053 5540 c0 -25 2 -35 4 -22 2 12 2 32 0 45 -2 12 -4 2 -4 -23z"/>
<path d="M5872 5495 c0 -16 2 -22 5 -12 2 9 2 23 0 30 -3 6 -5 -1 -5 -18z"/>
<path d="M2102 5480 c0 -19 2 -27 5 -17 2 9 2 25 0 35 -3 9 -5 1 -5 -18z"/>
<path d="M5839 5423 c-13 -16 -12 -17 4 -4 9 7 17 15 17 17 0 8 -8 3 -21 -13z"/>
<path d="M9708 5413 c6 -2 18 -2 25 0 6 3 1 5 -13 5 -14 0 -19 -2 -12 -5z"/>
<path d="M8516 5383 c-6 -14 -5 -15 5 -6 7 7 10 15 7 18 -3 3 -9 -2 -12 -12z"/>
<path d="M3232 5330 c0 -19 2 -27 5 -17 2 9 2 25 0 35 -3 9 -5 1 -5 -18z"/>
<path d="M11752 5290 c0 -14 2 -19 5 -12 2 6 2 18 0 25 -3 6 -5 1 -5 -13z"/>
<path d="M8522 5260 c0 -14 2 -19 5 -12 2 6 2 18 0 25 -3 6 -5 1 -5 -13z"/>
<path d="M0 5170 c0 -56 2 -61 27 -71 40 -15 74 -7 95 22 16 21 17 29 7 52
-13 29 -63 57 -103 57 -25 0 -26 -2 -26 -60z"/>
<path d="M3189 5203 c-13 -16 -12 -17 4 -4 16 13 21 21 13 21 -2 0 -10 -8 -17
-17z"/>
<path d="M8565 5060 c10 -11 20 -20 23 -20 3 0 -3 9 -13 20 -10 11 -20 20 -23
20 -3 0 3 -9 13 -20z"/>
<path d="M4972 5050 c0 -14 2 -19 5 -12 2 6 2 18 0 25 -3 6 -5 1 -5 -13z"/>
<path d="M1202 5030 c0 -19 2 -27 5 -17 2 9 2 25 0 35 -3 9 -5 1 -5 -18z"/>
<path d="M7534 4828 l-19 -23 23 19 c12 11 22 21 22 23 0 8 -8 2 -26 -19z"/>
<path d="M7814 4608 l-19 -23 23 19 c12 11 22 21 22 23 0 8 -8 2 -26 -19z"/>

<path d="M5360 525 c13 -14 26 -25 28 -25 3 0 -5 11 -18 25 -13 14 -26 25 -28
25 -3 0 5 -11 18 -25z"/>
<path d="M5658 363 c6 -2 18 -2 25 0 6 3 1 5 -13 5 -14 0 -19 -2 -12 -5z"/>

<path d="M11640 836 c0 -2 8 -10 18 -17 15 -13 16 -12 3 4 -13 16 -21 21 -21
13z"/>

<path d="M1508 623 c12 -2 30 -2 40 0 9 3 -1 5 -23 4 -22 0 -30 -2 -17 -4z"/>
<path d="M1849 363 l-24 -28 28 24 c15 14 27 26 27 28 0 8 -8 1 -31 -24z"/>
<path d="M3513 673 c9 -2 23 -2 30 0 6 3 -1 5 -18 5 -16 0 -22 -2 -12 -5z"/>
<path d="M3049 1443 c-13 -16 -12 -17 4 -4 9 7 17 15 17 17 0 8 -8 3 -21 -13z"/>
<path d="M79 1353 l-34 -38 38 34 c34 33 42 41 34 41 -2 0 -19 -17 -38 -37z"/>
<path d="M6299 1303 c-13 -16 -12 -17 4 -4 16 13 21 21 13 21 -2 0 -10 -8 -17
-17z"/>
<path d="M7653 1245 c0 -22 2 -30 4 -17 2 12 2 30 0 40 -3 9 -5 -1 -4 -23z"/>
<path d="M304 1228 l-19 -23 23 19 c21 18 27 26 19 26 -2 0 -12 -10 -23 -22z"/>
<path d="M2788 1233 c6 -2 18 -2 25 0 6 3 1 5 -13 5 -14 0 -19 -2 -12 -5z"/>
<path d="M2704 1198 l-19 -23 23 19 c21 18 27 26 19 26 -2 0 -12 -10 -23 -22z"/>
<path d="M9103 1180 c0 -25 2 -35 4 -22 2 12 2 32 0 45 -2 12 -4 2 -4 -23z"/>
<path d="M9300 1176 c0 -2 8 -10 18 -17 15 -13 16 -12 3 4 -13 16 -21 21 -21
13z"/>
<path d="M7520 1156 c0 -2 8 -10 18 -17 15 -13 16 -12 3 4 -13 16 -21 21 -21
13z"/>
<path d="M9154 1128 l-19 -23 23 19 c12 11 22 21 22 23 0 8 -8 2 -26 -19z"/>
<path d="M6048 1093 c6 -2 18 -2 25 0 6 3 1 5 -13 5 -14 0 -19 -2 -12 -5z"/>
<path d="M9662 1000 c0 -19 2 -27 5 -17 2 9 2 25 0 35 -3 9 -5 1 -5 -18z"/>
<path d="M4548 1003 c6 -2 18 -2 25 0 6 3 1 5 -13 5 -14 0 -19 -2 -12 -5z"/>
<path d="M11058 1003 c6 -2 18 -2 25 0 6 3 1 5 -13 5 -14 0 -19 -2 -12 -5z"/>
<path d="M9163 963 c9 -2 25 -2 35 0 9 3 1 5 -18 5 -19 0 -27 -2 -17 -5z"/>
<path d="M9560 946 c0 -2 8 -10 18 -17 15 -13 16 -12 3 4 -13 16 -21 21 -21
13z"/>
<path d="M9398 873 c6 -2 18 -2 25 0 6 3 1 5 -13 5 -14 0 -19 -2 -12 -5z"/>
<path d="M9548 873 c7 -3 16 -2 19 1 4 3 -2 6 -13 5 -11 0 -14 -3 -6 -6z"/>
<path d="M4442 850 c0 -14 2 -19 5 -12 2 6 2 18 0 25 -3 6 -5 1 -5 -13z"/>
<path d="M9522 700 c0 -19 2 -27 5 -17 2 9 2 25 0 35 -3 9 -5 1 -5 -18z"/>
<path d="M12778 643 c7 -3 16 -2 19 1 4 3 -2 6 -13 5 -11 0 -14 -3 -6 -6z"/>
<path d="M639 613 c-13 -16 -12 -17 4 -4 9 7 17 15 17 17 0 8 -8 3 -21 -13z"/>
<path d="M11969 503 l-24 -28 28 24 c15 14 27 26 27 28 0 8 -8 1 -31 -24z"/>
<path d="M4418 483 c6 -2 18 -2 25 0 6 3 1 5 -13 5 -14 0 -19 -2 -12 -5z"/>
<path d="M12002 430 c0 -14 2 -19 5 -12 2 6 2 18 0 25 -3 6 -5 1 -5 -13z"/>
<path d="M9598 393 c12 -2 30 -2 40 0 9 3 -1 5 -23 4 -22 0 -30 -2 -17 -4z"/>
<path d="M12035 350 c10 -11 20 -20 23 -20 3 0 -3 9 -13 20 -10 11 -20 20 -23
20 -3 0 3 -9 13 -20z"/>
<path d="M12228 273 c7 -3 16 -2 19 1 4 3 -2 6 -13 5 -11 0 -14 -3 -6 -6z"/>

</g>
</svg>
